<svg version="1.1" xmlns="http://www.w3.org/2000/svg" viewBox="0 0 402.985595703125 186.8092041015625" width="402.985595703125" height="186.8092041015625" class="excalidraw-svg"><!-- svg-source:excalidraw --><metadata></metadata><defs><style class="style-fonts">
      </style></defs><rect x="0" y="0" width="402.985595703125" height="186.8092041015625" fill="#ffffff"></rect><g stroke-linecap="round"><g transform="translate(17.94970703125 126.56305694580078) rotate(0 9.279411350311715 20.119536939691756)"><path d="M0.23 0.23 C3.34 6.66, 16.49 32.79, 19.67 39.6 M-1.11 -0.69 C1.73 6.43, 14.72 34.26, 18.54 40.93" stroke="#1e1e1e" stroke-width="2" fill="none"></path></g></g><mask></mask><g transform="translate(11.43292236328125 140.09933471679688) rotate(0 23.97723388671875 4.5658721923828125)" stroke="none"><path fill="#1e1e1e" d="M -4.12,-0.05 Q -4.12,-0.05 -4.39,-2.49 -4.67,-4.92 -3.28,-7.76 -1.90,-10.59 0.37,-12.99 2.65,-15.38 5.66,-17.77 8.67,-20.15 12.21,-22.42 15.74,-24.69 19.50,-26.58 23.25,-28.47 26.76,-29.58 30.27,-30.69 33.58,-30.73 36.88,-30.77 39.55,-28.10 42.21,-25.42 42.01,-22.89 41.81,-20.37 40.11,-17.59 38.41,-14.81 35.64,-11.45 32.86,-8.09 30.16,-5.12 27.46,-2.15 25.32,0.24 23.17,2.65 21.64,4.36 20.10,6.08 22.59,3.94 25.09,1.80 27.88,1.62 30.68,1.43 33.76,1.37 36.85,1.30 40.04,1.82 43.24,2.35 45.97,3.76 48.71,5.18 50.54,8.04 52.37,10.90 52.03,14.48 51.70,18.07 49.41,21.47 47.12,24.88 43.94,27.70 40.76,30.53 37.52,32.79 34.29,35.04 31.55,36.59 28.80,38.14 26.72,38.85 24.64,39.57 22.42,39.34 20.21,39.11 19.78,39.17 19.36,39.22 18.95,39.14 18.53,39.06 18.16,38.85 17.79,38.64 17.51,38.32 17.23,38.00 17.06,37.61 16.89,37.22 16.86,36.80 16.83,36.37 16.93,35.96 17.04,35.55 17.27,35.19 17.50,34.83 17.83,34.57 18.16,34.30 18.56,34.16 18.96,34.02 19.39,34.01 19.81,34.00 20.22,34.12 20.62,34.25 20.97,34.50 21.31,34.75 21.56,35.09 21.80,35.44 21.93,35.85 22.05,36.25 22.04,36.68 22.02,37.10 21.87,37.50 21.73,37.90 21.46,38.23 21.19,38.56 20.83,38.79 20.47,39.01 20.06,39.12 19.65,39.22 19.22,39.18 18.80,39.14 18.41,38.97 18.02,38.80 17.71,38.52 17.39,38.23 17.18,37.86 16.98,37.49 16.90,37.07 16.82,36.66 16.88,36.24 16.94,35.81 17.13,35.43 17.32,35.05 17.62,34.76 17.92,34.46 18.31,34.27 18.69,34.08 18.69,34.08 18.69,34.08 21.34,31.80 24.00,29.51 26.37,28.21 28.73,26.91 31.55,25.04 34.36,23.16 36.82,21.08 39.28,19.00 40.32,15.49 41.35,11.99 39.18,11.55 37.01,11.12 34.17,11.17 31.32,11.21 28.47,11.41 25.62,11.60 22.95,11.73 20.29,11.85 16.25,10.38 12.21,8.91 12.65,4.16 13.10,-0.58 14.73,-2.18 16.36,-3.78 18.61,-6.03 20.87,-8.28 23.48,-11.03 26.09,-13.78 29.64,-17.62 33.20,-21.45 30.43,-20.54 27.67,-19.62 24.37,-17.98 21.07,-16.33 17.90,-14.33 14.74,-12.33 12.16,-10.37 9.57,-8.41 7.18,-6.25 4.80,-4.09 4.46,-2.01 4.12,0.05 4.05,0.55 3.99,1.04 3.80,1.50 3.62,1.96 3.33,2.37 3.04,2.77 2.67,3.10 2.29,3.42 1.85,3.65 1.40,3.87 0.92,3.99 0.43,4.10 -0.05,4.09 -0.55,4.08 -1.03,3.96 -1.51,3.83 -1.95,3.59 -2.39,3.36 -2.75,3.02 -3.12,2.69 -3.40,2.27 -3.68,1.86 -3.84,1.39 -4.01,0.92 -4.07,0.43 -4.12,-0.05 -4.12,-0.05 L -4.12,-0.05 Z"></path></g><g transform="translate(92.4859619140625 133.98944091796875) rotate(0 33.7725830078125 -8.806640625)" stroke="none"><path fill="#1e1e1e" d="M -3.84,1.90 Q -3.84,1.90 -4.04,1.45 -4.23,0.99 -3.21,3.33 -2.18,5.66 -1.80,7.84 -1.42,10.02 -1.42,6.46 -1.42,2.89 -0.54,0.12 0.33,-2.64 0.54,-3.04 0.76,-3.44 1.01,-3.99 1.27,-4.53 1.65,-5.01 2.03,-5.48 2.51,-5.84 2.99,-6.21 3.55,-6.45 4.10,-6.69 4.70,-6.79 5.30,-6.89 5.90,-6.85 6.50,-6.80 7.08,-6.61 7.65,-6.43 8.17,-6.11 8.68,-5.78 9.10,-5.35 9.52,-4.92 9.83,-4.39 10.13,-3.87 10.31,-3.29 10.48,-2.71 10.51,-2.11 10.53,-1.50 10.42,-0.91 10.30,-0.32 9.82,-2.69 9.34,-5.07 10.76,-2.33 12.18,0.39 13.64,2.27 15.09,4.15 17.21,3.93 19.33,3.71 20.48,1.49 21.62,-0.73 22.37,-4.62 23.12,-8.51 23.06,-11.13 23.01,-13.75 23.37,-15.93 23.73,-18.10 26.94,-19.44 30.15,-20.78 33.47,-19.50 36.79,-18.22 38.92,-17.01 41.05,-15.80 43.25,-14.20 45.46,-12.59 47.40,-10.67 49.35,-8.75 50.71,-6.49 52.07,-4.24 52.41,-1.12 52.75,1.99 51.73,4.89 50.71,7.80 48.96,9.81 47.21,11.83 42.16,12.12 37.11,12.40 37.12,7.64 37.13,2.88 38.77,0.16 40.42,-2.56 42.59,-6.24 44.77,-9.93 46.83,-13.65 48.89,-17.38 50.64,-20.41 52.39,-23.44 53.82,-25.83 55.26,-28.22 56.60,-30.01 57.94,-31.80 60.76,-34.01 63.58,-36.23 65.72,-36.56 67.87,-36.90 70.13,-35.95 72.39,-35.00 73.95,-32.78 75.51,-30.56 76.30,-28.02 77.09,-25.49 77.60,-22.90 78.10,-20.31 78.29,-17.71 78.47,-15.12 78.27,-12.78 78.08,-10.45 78.02,-8.05 77.96,-5.66 77.98,-5.23 77.99,-4.81 77.87,-4.40 77.74,-3.99 77.50,-3.65 77.25,-3.30 76.91,-3.05 76.56,-2.80 76.16,-2.68 75.75,-2.55 75.32,-2.56 74.90,-2.57 74.50,-2.72 74.10,-2.86 73.77,-3.13 73.44,-3.39 73.21,-3.75 72.98,-4.11 72.87,-4.52 72.77,-4.93 72.80,-5.35 72.84,-5.78 73.00,-6.17 73.17,-6.56 73.45,-6.88 73.73,-7.19 74.10,-7.40 74.47,-7.61 74.89,-7.70 75.31,-7.78 75.73,-7.72 76.15,-7.67 76.53,-7.48 76.91,-7.29 77.21,-6.99 77.51,-6.69 77.70,-6.31 77.89,-5.93 77.95,-5.51 78.01,-5.09 77.93,-4.67 77.85,-4.25 77.65,-3.88 77.44,-3.51 77.12,-3.23 76.81,-2.94 76.42,-2.77 76.03,-2.60 75.60,-2.57 75.18,-2.53 74.77,-2.63 74.36,-2.74 74.00,-2.96 73.64,-3.19 73.37,-3.52 73.10,-3.85 72.96,-4.25 72.81,-4.65 72.81,-4.65 72.81,-4.65 71.82,-7.00 70.84,-9.35 69.96,-11.53 69.07,-13.72 68.52,-16.04 67.97,-18.35 67.56,-20.52 67.15,-22.68 67.14,-24.83 67.14,-26.98 65.18,-25.02 63.22,-23.06 61.65,-20.80 60.07,-18.54 58.12,-15.76 56.17,-12.99 53.90,-9.51 51.62,-6.04 49.65,-2.42 47.69,1.19 46.23,4.31 44.78,7.44 42.56,6.21 40.34,4.97 41.98,2.51 43.62,0.05 41.67,-2.38 39.72,-4.83 36.29,-7.10 32.86,-9.36 30.99,-10.76 29.11,-12.15 30.93,-14.69 32.74,-17.24 33.20,-14.28 33.66,-11.32 33.37,-9.06 33.09,-6.80 32.58,-4.13 32.08,-1.46 31.26,1.17 30.43,3.81 29.23,5.99 28.02,8.16 26.43,9.98 24.83,11.79 22.73,12.96 20.63,14.12 18.30,14.35 15.96,14.59 13.87,13.96 11.78,13.33 9.91,12.11 8.03,10.89 6.59,9.30 5.15,7.71 3.87,4.87 2.58,2.04 1.67,-0.69 0.76,-3.44 1.01,-3.99 1.27,-4.53 1.65,-5.01 2.03,-5.48 2.51,-5.84 2.99,-6.21 3.55,-6.45 4.10,-6.69 4.70,-6.79 5.29,-6.89 5.90,-6.85 6.50,-6.80 7.08,-6.61 7.65,-6.43 8.17,-6.11 8.68,-5.79 9.10,-5.35 9.52,-4.92 9.83,-4.40 10.13,-3.87 10.31,-3.29 10.48,-2.71 10.51,-2.11 10.53,-1.50 10.42,-0.91 10.30,-0.32 10.15,0.10 9.99,0.52 9.09,3.16 8.18,5.81 7.52,7.90 6.87,9.98 5.94,12.18 5.01,14.38 3.34,16.18 1.67,17.98 -0.60,18.55 -2.88,19.12 -6.54,17.01 -10.21,14.90 -11.13,12.89 -12.06,10.88 -12.29,8.65 -12.52,6.41 -11.40,2.34 -10.28,-1.72 -8.96,-3.58 -7.64,-5.44 -5.39,-6.51 -3.14,-7.59 -0.72,-6.85 1.69,-6.12 2.76,-4.01 3.84,-1.90 4.01,-1.42 4.19,-0.93 4.24,-0.41 4.29,0.09 4.21,0.60 4.14,1.12 3.95,1.60 3.75,2.08 3.45,2.50 3.14,2.91 2.75,3.25 2.35,3.58 1.89,3.81 1.43,4.04 0.92,4.16 0.42,4.27 -0.09,4.26 -0.61,4.24 -1.11,4.11 -1.61,3.97 -2.06,3.72 -2.51,3.47 -2.89,3.12 -3.27,2.77 -3.56,2.34 -3.84,1.90 -3.84,1.90 L -3.84,1.90 Z"></path></g><g transform="translate(162.32745361328125 86.0078125) rotate(0 -1.653411865234375 -4.165435791015625)" stroke="none"><path fill="#1e1e1e" d="M -4.39,1.48 Q -4.39,1.48 -4.85,-1.80 -5.30,-5.08 -5.52,-5.44 -5.74,-5.81 -5.83,-6.22 -5.92,-6.64 -5.88,-7.06 -5.83,-7.48 -5.65,-7.87 -5.48,-8.25 -5.18,-8.56 -4.89,-8.87 -4.52,-9.07 -4.14,-9.27 -3.72,-9.34 -3.30,-9.40 -2.88,-9.34 -2.46,-9.27 -2.09,-9.07 -1.71,-8.87 -1.42,-8.56 -1.13,-8.25 -0.95,-7.87 -0.77,-7.48 -0.72,-7.06 -0.68,-6.63 -0.77,-6.22 -0.86,-5.80 -1.08,-5.44 -1.30,-5.08 -1.62,-4.80 -1.95,-4.53 -2.34,-4.37 -2.74,-4.21 -3.16,-4.19 -3.59,-4.17 -4.00,-4.28 -4.41,-4.39 -4.76,-4.63 -5.11,-4.87 -5.37,-5.21 -5.62,-5.55 -5.76,-5.95 -5.89,-6.35 -5.89,-6.78 -5.89,-7.20 -5.76,-7.61 -5.62,-8.01 -5.36,-8.35 -5.11,-8.68 -4.76,-8.92 -4.40,-9.16 -3.99,-9.28 -3.58,-9.39 -3.16,-9.37 -2.74,-9.34 -2.34,-9.18 -1.95,-9.03 -1.62,-8.75 -1.30,-8.48 -1.30,-8.48 -1.30,-8.48 1.54,-4.98 4.39,-1.48 4.50,-0.93 4.62,-0.38 4.59,0.17 4.57,0.73 4.42,1.26 4.27,1.80 3.99,2.28 3.71,2.77 3.32,3.17 2.94,3.58 2.47,3.88 1.99,4.18 1.47,4.36 0.94,4.54 0.38,4.58 -0.17,4.63 -0.72,4.54 -1.27,4.45 -1.79,4.23 -2.30,4.02 -2.75,3.68 -3.20,3.35 -3.55,2.92 -3.91,2.48 -4.15,1.98 -4.39,1.48 -4.39,1.48 L -4.39,1.48 Z"></path></g><g transform="translate(198.6500244140625 93.35101318359375) rotate(0 2.56005859375 12.307235717773438)" stroke="none"><path fill="#1e1e1e" d="M 1.77,3.96 Q 1.77,3.96 -0.66,5.44 -3.10,6.92 -5.83,9.98 -8.56,13.03 -9.56,16.30 -10.55,19.56 -7.13,19.88 -3.71,20.20 0.60,20.01 4.92,19.82 9.54,19.45 14.16,19.08 17.60,18.32 21.03,17.56 21.46,17.53 21.88,17.50 22.29,17.61 22.70,17.72 23.06,17.95 23.41,18.19 23.67,18.52 23.94,18.86 24.08,19.26 24.22,19.66 24.22,20.08 24.23,20.51 24.10,20.91 23.97,21.32 23.71,21.66 23.46,22.00 23.11,22.24 22.76,22.49 22.36,22.61 21.95,22.73 21.52,22.71 21.10,22.69 20.70,22.54 20.31,22.39 19.98,22.11 19.65,21.84 19.43,21.48 19.20,21.12 19.11,20.71 19.01,20.29 19.05,19.87 19.09,19.45 19.27,19.06 19.44,18.67 19.73,18.36 20.02,18.05 20.39,17.84 20.76,17.64 21.18,17.57 21.60,17.49 22.02,17.55 22.44,17.62 22.82,17.81 23.19,18.01 23.49,18.31 23.79,18.62 23.97,19.00 24.15,19.38 24.20,19.80 24.26,20.23 24.17,20.64 24.08,21.06 23.87,21.43 23.65,21.79 23.33,22.07 23.01,22.35 22.62,22.51 22.23,22.68 22.23,22.68 22.23,22.68 18.81,23.52 15.40,24.36 10.74,26.16 6.09,27.95 0.76,29.15 -4.57,30.35 -8.93,29.83 -13.30,29.31 -16.17,27.08 -19.04,24.85 -20.03,21.57 -21.01,18.28 -20.39,15.25 -19.77,12.23 -18.36,9.35 -16.95,6.48 -14.81,3.97 -12.66,1.45 -9.97,-0.40 -7.29,-2.26 -4.53,-3.11 -1.77,-3.96 -1.27,-4.11 -0.77,-4.27 -0.25,-4.30 0.26,-4.33 0.78,-4.23 1.29,-4.14 1.77,-3.92 2.25,-3.71 2.66,-3.38 3.07,-3.06 3.39,-2.65 3.71,-2.23 3.93,-1.76 4.14,-1.28 4.24,-0.76 4.33,-0.25 4.30,0.26 4.26,0.78 4.11,1.28 3.95,1.78 3.68,2.23 3.41,2.68 3.04,3.05 2.67,3.42 2.22,3.69 1.77,3.96 1.77,3.96 L 1.77,3.96 Z"></path></g><g transform="translate(243.09979248046875 72.7232666015625) rotate(0 4.12005615234375 16.928237915039062)" stroke="none"><path fill="#1e1e1e" d="M -5.18,1.06 Q -5.18,1.06 -5.99,-1.57 -6.79,-4.21 -6.43,-5.00 -6.07,-5.78 -6.13,-6.44 -6.18,-7.10 -6.08,-7.75 -5.97,-8.41 -5.71,-9.02 -5.45,-9.63 -5.06,-10.16 -4.66,-10.69 -4.15,-11.10 -3.64,-11.52 -3.04,-11.81 -2.44,-12.09 -1.79,-12.23 -1.15,-12.36 -0.48,-12.33 0.17,-12.31 0.80,-12.13 1.44,-11.94 2.01,-11.61 2.59,-11.28 3.06,-10.82 3.54,-10.37 3.90,-9.81 4.25,-9.25 4.46,-8.62 4.67,-7.99 6.93,-3.27 9.19,1.45 10.10,5.39 11.02,9.34 11.59,14.11 12.16,18.89 12.35,24.07 12.54,29.25 12.46,33.13 12.37,37.00 12.67,39.79 12.97,42.58 12.95,43.00 12.93,43.42 12.78,43.82 12.62,44.22 12.35,44.54 12.08,44.87 11.71,45.09 11.35,45.31 10.94,45.40 10.52,45.50 10.10,45.45 9.68,45.41 9.29,45.23 8.90,45.06 8.59,44.77 8.28,44.48 8.08,44.10 7.88,43.73 7.81,43.31 7.74,42.89 7.80,42.47 7.87,42.05 8.07,41.68 8.26,41.30 8.57,41.00 8.88,40.71 9.26,40.53 9.65,40.35 10.07,40.30 10.49,40.25 10.91,40.34 11.32,40.43 11.69,40.65 12.05,40.86 12.33,41.19 12.61,41.51 12.77,41.90 12.93,42.30 12.95,42.72 12.98,43.14 12.87,43.55 12.76,43.96 12.52,44.32 12.28,44.67 11.95,44.93 11.61,45.19 11.21,45.33 10.81,45.47 10.38,45.47 9.96,45.47 9.55,45.34 9.15,45.20 8.81,44.95 8.47,44.69 8.23,44.34 7.99,43.99 7.87,43.58 7.76,43.17 7.76,43.18 7.76,43.18 7.42,40.39 7.08,37.61 6.13,33.96 5.18,30.30 3.94,25.45 2.69,20.61 1.59,16.20 0.50,11.79 -0.31,8.32 -1.12,4.85 -2.09,1.50 -3.07,-1.84 -4.57,-3.81 -6.07,-5.78 -6.13,-6.44 -6.18,-7.10 -6.08,-7.75 -5.97,-8.41 -5.71,-9.02 -5.45,-9.63 -5.06,-10.16 -4.66,-10.68 -4.15,-11.10 -3.64,-11.52 -3.04,-11.81 -2.44,-12.09 -1.79,-12.23 -1.15,-12.36 -0.48,-12.33 0.17,-12.31 0.80,-12.13 1.44,-11.94 2.01,-11.61 2.59,-11.28 3.06,-10.83 3.54,-10.37 3.90,-9.81 4.25,-9.25 4.46,-8.62 4.67,-8.00 4.66,-7.08 4.65,-6.16 4.92,-3.61 5.18,-1.06 5.24,-0.43 5.29,0.20 5.19,0.83 5.09,1.46 4.84,2.05 4.59,2.64 4.20,3.15 3.82,3.66 3.33,4.06 2.83,4.47 2.26,4.74 1.68,5.02 1.06,5.15 0.43,5.28 -0.20,5.25 -0.84,5.23 -1.45,5.05 -2.06,4.87 -2.62,4.55 -3.17,4.24 -3.63,3.79 -4.09,3.35 -4.44,2.81 -4.78,2.27 -4.98,1.67 -5.18,1.06 -5.18,1.06 L -5.18,1.06 Z"></path></g><g transform="translate(243.0440673828125 67.00613403320312) rotate(0 17.908782958984375 -0.5382232666015625)" stroke="none"><path fill="#1e1e1e" d="M -4.42,2.72 Q -4.42,2.72 -6.14,0.25 -7.87,-2.22 -8.38,-3.32 -8.89,-4.43 -9.16,-5.02 -9.43,-5.62 -9.56,-6.26 -9.68,-6.90 -9.65,-7.56 -9.61,-8.21 -9.42,-8.84 -9.24,-9.46 -8.90,-10.02 -8.57,-10.59 -8.11,-11.05 -7.65,-11.52 -7.09,-11.86 -6.54,-12.21 -5.91,-12.41 -5.29,-12.61 -4.64,-12.65 -3.99,-12.70 -3.34,-12.58 -2.70,-12.47 -2.10,-12.21 -1.50,-11.95 -0.98,-11.55 -0.46,-11.15 -0.05,-10.64 0.34,-10.12 -1.66,-11.30 -3.67,-12.47 -0.84,-11.53 1.97,-10.59 4.37,-8.49 6.78,-6.39 9.51,-3.35 12.24,-0.32 15.25,3.43 18.27,7.19 21.30,11.37 24.34,15.54 27.00,19.16 29.66,22.79 31.71,25.11 33.76,27.42 35.96,28.70 38.17,29.98 38.56,30.46 38.95,30.93 39.22,31.49 39.48,32.04 39.61,32.65 39.73,33.25 39.71,33.87 39.69,34.48 39.52,35.07 39.35,35.67 39.04,36.20 38.73,36.73 38.31,37.18 37.88,37.62 37.37,37.95 36.85,38.29 36.26,38.48 35.68,38.68 35.07,38.73 34.45,38.78 33.84,38.69 33.24,38.59 32.67,38.35 32.10,38.11 31.61,37.74 31.11,37.37 30.84,33.59 30.57,29.80 30.82,24.49 31.08,19.17 31.53,13.44 31.99,7.70 32.56,0.73 33.14,-6.23 33.71,-12.88 34.28,-19.53 34.68,-24.08 35.07,-28.63 38.27,-29.51 41.47,-30.38 40.68,-29.59 39.89,-28.80 39.58,-28.51 39.26,-28.23 38.87,-28.06 38.48,-27.89 38.06,-27.85 37.64,-27.81 37.22,-27.91 36.81,-28.01 36.45,-28.24 36.09,-28.46 35.82,-28.79 35.55,-29.12 35.40,-29.52 35.25,-29.92 35.24,-30.34 35.23,-30.77 35.35,-31.18 35.47,-31.58 35.72,-31.93 35.96,-32.28 36.30,-32.53 36.65,-32.78 37.05,-32.90 37.46,-33.03 37.88,-33.02 38.31,-33.01 38.71,-32.87 39.11,-32.73 39.44,-32.46 39.77,-32.20 40.01,-31.84 40.24,-31.49 40.34,-31.07 40.45,-30.66 40.42,-30.24 40.38,-29.82 40.22,-29.42 40.05,-29.03 39.77,-28.71 39.49,-28.40 39.12,-28.18 38.75,-27.97 38.34,-27.89 37.92,-27.81 37.50,-27.86 37.08,-27.92 36.69,-28.10 36.31,-28.29 36.01,-28.59 35.71,-28.89 35.52,-29.26 35.33,-29.64 35.27,-30.06 35.20,-30.49 35.28,-30.90 35.36,-31.32 35.57,-31.69 35.77,-32.06 35.77,-32.06 35.77,-32.06 36.94,-33.75 38.12,-35.44 41.04,-35.47 43.97,-35.50 45.16,-31.57 46.35,-27.64 45.93,-23.06 45.52,-18.48 44.86,-11.89 44.19,-5.30 43.60,1.62 43.01,8.56 42.57,14.29 42.13,20.01 41.78,24.23 41.44,28.45 40.85,31.54 40.25,34.63 39.21,32.31 38.17,29.98 38.56,30.46 38.95,30.93 39.22,31.49 39.48,32.04 39.61,32.65 39.73,33.25 39.71,33.87 39.69,34.48 39.52,35.07 39.35,35.66 39.04,36.20 38.74,36.73 38.31,37.18 37.89,37.62 37.37,37.95 36.85,38.29 36.26,38.48 35.68,38.68 35.07,38.73 34.45,38.78 33.84,38.69 33.24,38.59 32.67,38.35 32.10,38.11 31.61,37.74 31.12,37.37 29.18,35.28 27.24,33.19 25.01,30.67 22.79,28.16 19.91,24.69 17.02,21.22 13.85,17.40 10.68,13.58 7.62,10.13 4.57,6.68 2.16,4.09 -0.24,1.49 -1.75,-0.60 -3.26,-2.70 -6.07,-3.56 -8.89,-4.43 -9.16,-5.02 -9.43,-5.62 -9.56,-6.26 -9.68,-6.90 -9.65,-7.56 -9.61,-8.21 -9.42,-8.84 -9.24,-9.46 -8.90,-10.02 -8.57,-10.59 -8.11,-11.05 -7.65,-11.52 -7.09,-11.86 -6.54,-12.21 -5.91,-12.41 -5.29,-12.61 -4.64,-12.65 -3.99,-12.70 -3.34,-12.58 -2.70,-12.47 -2.10,-12.21 -1.50,-11.95 -0.98,-11.55 -0.46,-11.15 -0.06,-10.64 0.34,-10.12 0.95,-9.07 1.55,-8.02 2.99,-5.37 4.42,-2.72 4.68,-2.15 4.95,-1.58 5.06,-0.97 5.18,-0.35 5.15,0.26 5.12,0.89 4.94,1.49 4.75,2.09 4.44,2.63 4.12,3.17 3.68,3.61 3.24,4.06 2.70,4.39 2.17,4.72 1.57,4.91 0.98,5.10 0.35,5.14 -0.26,5.19 -0.88,5.08 -1.50,4.97 -2.07,4.72 -2.65,4.47 -3.14,4.09 -3.64,3.70 -4.03,3.21 -4.42,2.72 -4.42,2.72 L -4.42,2.72 Z"></path></g><g transform="translate(308.40179443359375 67.3984375) rotate(0 -4.091339111328125 11.193130493164062)" stroke="none"><path fill="#1e1e1e" d="M 3.88,2.88 Q 3.88,2.88 2.52,4.93 1.17,6.99 0.06,9.23 -1.04,11.46 -2.17,14.14 -3.29,16.82 -3.95,18.99 -4.61,21.16 -4.65,17.74 -4.69,14.32 -3.89,11.78 -3.09,9.24 -2.77,6.77 -2.46,4.30 -4.18,2.66 -5.89,1.02 -7.22,1.20 -8.54,1.38 -8.95,1.51 -9.35,1.64 -9.78,1.63 -10.20,1.63 -10.60,1.49 -11.00,1.35 -11.34,1.09 -11.68,0.83 -11.91,0.47 -12.14,0.12 -12.25,-0.28 -12.36,-0.69 -12.33,-1.12 -12.31,-1.54 -12.15,-1.93 -11.98,-2.33 -11.71,-2.65 -11.43,-2.97 -11.06,-3.18 -10.69,-3.40 -10.28,-3.49 -9.86,-3.57 -9.44,-3.52 -9.02,-3.47 -8.63,-3.29 -8.25,-3.11 -7.94,-2.81 -7.64,-2.51 -7.44,-2.14 -7.25,-1.76 -7.19,-1.34 -7.12,-0.92 -7.20,-0.50 -7.27,-0.08 -7.47,0.28 -7.68,0.65 -7.99,0.94 -8.30,1.23 -8.69,1.41 -9.07,1.58 -9.50,1.62 -9.92,1.66 -10.33,1.57 -10.75,1.47 -11.11,1.25 -11.47,1.02 -11.74,0.70 -12.01,0.37 -12.17,-0.02 -12.32,-0.41 -12.34,-0.84 -12.36,-1.26 -12.24,-1.67 -12.12,-2.08 -11.88,-2.43 -11.63,-2.78 -11.29,-3.03 -10.95,-3.28 -10.95,-3.28 -10.95,-3.28 -8.38,-4.68 -5.80,-6.07 -1.94,-5.22 1.92,-4.37 3.45,-2.34 4.99,-0.31 5.43,2.50 5.88,5.31 5.40,8.50 4.92,11.69 3.90,15.05 2.88,18.42 1.32,21.30 -0.23,24.18 -2.50,26.17 -4.78,28.17 -6.98,28.22 -9.18,28.28 -11.62,25.88 -14.07,23.49 -14.16,21.00 -14.26,18.51 -13.51,15.67 -12.75,12.83 -11.45,9.79 -10.16,6.75 -8.60,3.83 -7.04,0.92 -5.46,-0.97 -3.88,-2.88 -3.48,-3.30 -3.08,-3.72 -2.58,-4.04 -2.09,-4.35 -1.54,-4.54 -0.99,-4.73 -0.41,-4.78 0.16,-4.83 0.74,-4.74 1.31,-4.65 1.85,-4.42 2.39,-4.20 2.86,-3.85 3.32,-3.50 3.69,-3.05 4.07,-2.60 4.32,-2.08 4.57,-1.55 4.69,-0.98 4.81,-0.41 4.79,0.16 4.77,0.74 4.61,1.30 4.45,1.86 4.17,2.37 3.88,2.88 3.88,2.88 L 3.88,2.88 Z"></path></g><g transform="translate(316.1929931640625 42.959259033203125) rotate(0 9.64117431640625 -1.7377166748046875)" stroke="none"><path fill="#1e1e1e" d="M -3.15,-0.72 Q -3.15,-0.72 -2.48,-5.02 -1.80,-9.32 -1.28,-13.19 -0.75,-17.05 -0.23,-20.18 0.29,-23.30 0.74,-25.80 1.19,-28.29 2.61,-31.45 4.03,-34.61 7.35,-35.37 10.68,-36.14 13.37,-32.14 16.07,-28.14 16.22,-24.54 16.36,-20.94 16.07,-16.60 15.78,-12.26 15.47,-7.48 15.17,-2.70 15.20,1.80 15.24,6.32 15.74,9.94 16.24,13.55 17.00,16.17 17.76,18.80 18.29,20.88 18.82,22.96 20.09,25.42 21.36,27.88 21.56,28.25 21.76,28.63 21.83,29.05 21.90,29.46 21.84,29.88 21.77,30.30 21.57,30.68 21.38,31.06 21.07,31.35 20.76,31.64 20.38,31.83 19.99,32.01 19.57,32.05 19.15,32.10 18.73,32.01 18.32,31.92 17.95,31.71 17.59,31.49 17.31,31.17 17.03,30.85 16.87,30.45 16.72,30.06 16.69,29.63 16.66,29.21 16.78,28.80 16.89,28.39 17.12,28.04 17.36,27.68 17.70,27.42 18.03,27.16 18.44,27.03 18.84,26.89 19.26,26.89 19.69,26.88 20.09,27.02 20.50,27.15 20.83,27.41 21.17,27.66 21.41,28.01 21.66,28.36 21.77,28.77 21.89,29.18 21.87,29.61 21.85,30.03 21.69,30.43 21.54,30.82 21.26,31.15 20.99,31.47 20.63,31.69 20.26,31.91 19.85,32.01 19.43,32.10 19.01,32.06 18.59,32.01 18.20,31.84 17.81,31.66 17.50,31.37 17.19,31.08 17.20,31.08 17.20,31.08 14.73,28.69 12.27,26.31 10.60,24.05 8.93,21.79 7.66,18.37 6.39,14.96 5.79,10.69 5.18,6.42 5.14,1.52 5.09,-3.38 5.43,-8.17 5.76,-12.97 6.05,-16.85 6.35,-20.73 6.93,-24.56 7.51,-28.39 9.29,-27.21 11.07,-26.04 10.38,-23.56 9.70,-21.09 8.80,-18.15 7.90,-15.21 6.79,-11.41 5.68,-7.61 4.42,-3.44 3.15,0.72 3.02,1.09 2.89,1.45 2.67,1.78 2.45,2.10 2.17,2.37 1.88,2.63 1.54,2.82 1.19,3.00 0.82,3.10 0.44,3.20 0.05,3.21 -0.33,3.22 -0.71,3.13 -1.09,3.04 -1.44,2.87 -1.79,2.69 -2.09,2.44 -2.38,2.18 -2.61,1.86 -2.84,1.55 -2.98,1.18 -3.13,0.82 -3.18,0.43 -3.23,0.05 -3.19,-0.33 -3.15,-0.72 -3.15,-0.72 L -3.15,-0.72 Z"></path></g><g transform="translate(323.0318603515625 58.318084716796875) rotate(0 7.4569091796875 -9.192779541015625)" stroke="none"><path fill="#1e1e1e" d="M -4.44,1.13 Q -4.44,1.13 -5.53,-1.68 -6.62,-4.50 -5.92,-7.80 -5.23,-11.09 -2.80,-13.62 -0.36,-16.14 2.88,-17.44 6.12,-18.74 9.32,-19.45 12.51,-20.17 14.85,-20.53 17.18,-20.90 17.60,-20.95 18.03,-21.01 18.44,-20.92 18.86,-20.84 19.23,-20.63 19.59,-20.41 19.88,-20.09 20.16,-19.78 20.32,-19.38 20.49,-18.99 20.52,-18.57 20.55,-18.14 20.44,-17.73 20.34,-17.32 20.10,-16.97 19.87,-16.61 19.54,-16.35 19.20,-16.08 18.80,-15.94 18.40,-15.80 17.98,-15.79 17.55,-15.78 17.15,-15.91 16.74,-16.04 16.40,-16.29 16.06,-16.54 15.81,-16.89 15.57,-17.23 15.45,-17.64 15.33,-18.05 15.34,-18.47 15.36,-18.90 15.51,-19.30 15.66,-19.69 15.93,-20.02 16.19,-20.35 16.55,-20.58 16.91,-20.80 17.33,-20.90 17.74,-21.00 18.16,-20.96 18.59,-20.92 18.98,-20.75 19.37,-20.58 19.68,-20.29 19.99,-20.01 20.20,-19.64 20.41,-19.26 20.48,-18.85 20.56,-18.43 20.50,-18.01 20.44,-17.59 20.24,-17.21 20.05,-16.83 19.75,-16.53 19.45,-16.23 19.06,-16.05 18.68,-15.86 18.68,-15.86 18.68,-15.86 16.57,-14.90 14.46,-13.95 12.12,-12.92 9.78,-11.90 6.80,-9.18 3.81,-6.45 4.13,-3.79 4.44,-1.13 4.52,-0.58 4.59,-0.04 4.53,0.50 4.46,1.06 4.27,1.57 4.08,2.09 3.77,2.55 3.46,3.01 3.05,3.38 2.64,3.75 2.15,4.01 1.66,4.27 1.12,4.41 0.59,4.55 0.03,4.55 -0.51,4.56 -1.05,4.43 -1.59,4.30 -2.08,4.05 -2.57,3.80 -2.99,3.43 -3.41,3.07 -3.72,2.62 -4.04,2.16 -4.24,1.65 -4.44,1.13 -4.44,1.13 L -4.44,1.13 Z"></path></g><g transform="translate(342.369873046875 59.775115966796875) rotate(0 25.251220703125 -13.262252807617188)" stroke="none"><path fill="#1e1e1e" d="M -0.62,-3.24 Q -0.62,-3.24 2.00,-4.65 4.63,-6.07 6.80,-7.25 8.98,-8.44 11.36,-10.32 13.75,-12.20 16.35,-14.70 18.94,-17.20 21.15,-19.74 23.36,-22.28 24.59,-24.20 25.81,-26.12 27.79,-24.94 29.77,-23.77 28.61,-20.90 27.46,-18.03 26.05,-15.97 24.65,-13.91 23.60,-11.54 22.54,-9.18 26.38,-7.17 30.21,-5.17 34.48,-4.76 38.75,-4.35 42.06,-4.10 45.38,-3.86 47.87,-4.10 50.35,-4.35 50.78,-4.32 51.20,-4.29 51.59,-4.13 51.99,-3.97 52.31,-3.69 52.63,-3.41 52.84,-3.05 53.06,-2.68 53.15,-2.26 53.23,-1.85 53.18,-1.43 53.13,-1.00 52.95,-0.62 52.77,-0.24 52.47,0.06 52.18,0.36 51.80,0.56 51.42,0.75 51.00,0.82 50.58,0.88 50.17,0.81 49.75,0.74 49.37,0.54 49.00,0.33 48.71,0.02 48.42,-0.28 48.25,-0.67 48.07,-1.06 48.03,-1.48 47.99,-1.90 48.09,-2.32 48.18,-2.73 48.40,-3.09 48.63,-3.45 48.95,-3.73 49.28,-4.00 49.68,-4.15 50.07,-4.30 50.50,-4.32 50.92,-4.34 51.33,-4.22 51.74,-4.11 52.09,-3.86 52.44,-3.62 52.69,-3.28 52.94,-2.94 53.08,-2.54 53.21,-2.13 53.20,-1.71 53.20,-1.28 53.06,-0.88 52.92,-0.48 52.66,-0.14 52.40,0.18 52.04,0.42 51.69,0.65 51.28,0.76 50.87,0.87 50.87,0.87 50.87,0.87 48.38,1.12 45.90,1.36 42.48,2.27 39.07,3.18 33.96,4.00 28.84,4.82 24.48,4.22 20.13,3.62 16.88,1.40 13.62,-0.80 12.55,-4.19 11.48,-7.57 12.16,-10.62 12.84,-13.68 14.38,-16.83 15.92,-19.99 17.62,-22.36 19.32,-24.73 21.17,-26.89 23.03,-29.06 25.12,-30.76 27.21,-32.46 29.35,-32.55 31.49,-32.63 33.73,-30.77 35.97,-28.91 35.23,-24.68 34.48,-20.46 32.82,-17.98 31.16,-15.50 28.62,-12.59 26.08,-9.69 23.03,-6.84 19.99,-3.98 16.76,-1.60 13.52,0.77 10.09,2.33 6.66,3.88 3.64,3.56 0.62,3.24 0.23,3.26 -0.16,3.29 -0.55,3.22 -0.95,3.16 -1.31,3.00 -1.67,2.84 -1.99,2.59 -2.31,2.35 -2.55,2.04 -2.80,1.73 -2.97,1.37 -3.14,1.01 -3.21,0.62 -3.29,0.23 -3.27,-0.16 -3.25,-0.56 -3.13,-0.94 -3.02,-1.32 -2.82,-1.66 -2.61,-2.00 -2.34,-2.29 -2.06,-2.57 -1.72,-2.78 -1.38,-2.99 -1.00,-3.11 -0.62,-3.24 -0.62,-3.24 L -0.62,-3.24 Z"></path></g></svg>