<svg version="1.1" xmlns="http://www.w3.org/2000/svg" viewBox="0 0 484.304055828114 153.91183482957763" width="484.304055828114" height="153.91183482957763" class="excalidraw-svg"><!-- svg-source:excalidraw --><metadata></metadata><defs><style class="style-fonts">
      </style></defs><rect x="0" y="0" width="484.304055828114" height="153.91183482957763" fill="#ffffff"></rect><g transform="translate(48.001107531649154 83.61015874937539) rotate(0 -1.6754729899238328 21.589963718719787)" stroke="none"><path fill="#1e1e1e" d="M -0.98,0.50 Q -0.98,0.50 -1.79,-0.94 -2.59,-2.40 -3.13,-3.08 -3.67,-3.76 -3.72,-3.90 -3.77,-4.03 -3.79,-4.17 -3.80,-4.32 -3.78,-4.46 -3.76,-4.60 -3.71,-4.73 -3.66,-4.86 -3.58,-4.98 -3.50,-5.10 -3.39,-5.19 -3.28,-5.28 -3.15,-5.35 -3.03,-5.41 -2.89,-5.44 -2.75,-5.48 -2.61,-5.48 -2.47,-5.47 -2.33,-5.44 -2.19,-5.40 -2.06,-5.34 -1.94,-5.27 -1.83,-5.17 -1.73,-5.08 -1.65,-4.96 -1.57,-4.84 -1.77,-3.91 -1.98,-2.97 -1.85,-1.53 -1.73,-0.10 -1.57,2.46 -1.41,5.03 -1.26,8.46 -1.12,11.89 -0.92,16.19 -0.72,20.49 -0.45,25.91 -0.18,31.33 0.03,36.25 0.25,41.17 0.49,44.80 0.74,48.43 0.73,48.54 0.72,48.64 0.68,48.74 0.64,48.84 0.57,48.92 0.49,48.99 0.40,49.05 0.31,49.10 0.20,49.12 0.10,49.14 -0.00,49.12 -0.10,49.11 -0.19,49.06 -0.29,49.01 -0.36,48.93 -0.44,48.86 -0.49,48.76 -0.53,48.67 -0.55,48.56 -0.56,48.46 -0.54,48.35 -0.52,48.25 -0.46,48.16 -0.41,48.06 -0.33,47.99 -0.25,47.92 -0.15,47.88 -0.06,47.84 0.04,47.83 0.15,47.82 0.25,47.85 0.35,47.88 0.44,47.94 0.53,47.99 0.60,48.08 0.66,48.16 0.70,48.26 0.73,48.36 0.74,48.47 0.74,48.57 0.71,48.67 0.67,48.78 0.61,48.86 0.55,48.95 0.46,49.01 0.37,49.07 0.27,49.10 0.17,49.13 0.06,49.13 -0.03,49.12 -0.13,49.09 -0.23,49.05 -0.31,48.98 -0.39,48.91 -0.45,48.82 -0.51,48.73 -0.53,48.63 -0.56,48.53 -0.56,48.53 -0.56,48.53 -0.84,44.90 -1.12,41.27 -1.63,36.36 -2.13,31.46 -2.56,26.03 -3.00,20.60 -3.20,16.29 -3.41,11.99 -3.56,8.58 -3.71,5.17 -3.88,2.59 -4.04,0.00 -3.86,-1.88 -3.67,-3.76 -3.72,-3.90 -3.77,-4.03 -3.79,-4.17 -3.80,-4.32 -3.78,-4.46 -3.76,-4.60 -3.71,-4.73 -3.66,-4.86 -3.58,-4.98 -3.50,-5.10 -3.39,-5.19 -3.28,-5.28 -3.15,-5.35 -3.03,-5.41 -2.89,-5.44 -2.75,-5.48 -2.61,-5.48 -2.47,-5.47 -2.33,-5.44 -2.19,-5.40 -2.06,-5.34 -1.94,-5.27 -1.83,-5.17 -1.73,-5.08 -1.65,-4.96 -1.57,-4.84 -1.00,-4.18 -0.44,-3.51 0.27,-2.01 0.98,-0.50 1.03,-0.38 1.08,-0.25 1.09,-0.12 1.11,0.01 1.09,0.14 1.07,0.27 1.02,0.40 0.97,0.52 0.90,0.63 0.82,0.74 0.72,0.83 0.62,0.92 0.50,0.98 0.38,1.04 0.25,1.07 0.12,1.10 -0.01,1.10 -0.14,1.10 -0.27,1.06 -0.40,1.03 -0.52,0.97 -0.64,0.90 -0.73,0.81 -0.83,0.72 -0.91,0.61 -0.98,0.50 -0.98,0.50 L -0.98,0.50 Z"></path></g><g transform="translate(10.498431618458767 103.245332204144) rotate(0 41.200140228073394 -3.9939380938837417)" stroke="none"><path fill="#1e1e1e" d="M -1.26,0.09 Q -1.26,0.09 -1.46,-1.81 -1.65,-3.72 -1.71,-6.90 -1.77,-10.08 -0.60,-14.43 0.56,-18.77 4.99,-23.62 9.42,-28.47 16.67,-32.81 23.92,-37.15 30.88,-39.65 37.84,-42.15 44.15,-43.02 50.46,-43.89 56.00,-42.83 61.54,-41.76 66.27,-39.04 71.01,-36.31 74.78,-30.65 78.55,-24.98 80.14,-18.28 81.73,-11.58 81.56,-6.00 81.39,-0.41 79.40,5.47 77.41,11.35 74.06,16.53 70.72,21.72 66.75,25.47 62.78,29.21 58.89,31.51 55.01,33.81 51.57,34.82 48.13,35.83 45.22,36.47 42.32,37.11 42.21,37.12 42.10,37.13 42.00,37.10 41.90,37.08 41.81,37.02 41.72,36.97 41.65,36.89 41.58,36.80 41.54,36.70 41.51,36.60 41.50,36.50 41.50,36.39 41.53,36.29 41.56,36.19 41.62,36.10 41.68,36.01 41.77,35.95 41.85,35.89 41.95,35.86 42.05,35.82 42.16,35.83 42.27,35.83 42.37,35.86 42.47,35.90 42.55,35.96 42.63,36.03 42.69,36.12 42.75,36.21 42.78,36.31 42.80,36.41 42.80,36.52 42.79,36.63 42.75,36.72 42.71,36.82 42.64,36.90 42.57,36.98 42.48,37.03 42.38,37.09 42.28,37.11 42.18,37.13 42.07,37.12 41.96,37.10 41.87,37.06 41.77,37.01 41.70,36.94 41.62,36.86 41.57,36.77 41.52,36.67 41.51,36.57 41.49,36.46 41.51,36.36 41.53,36.25 41.58,36.16 41.63,36.07 41.71,36.00 41.79,35.92 41.89,35.88 41.98,35.84 41.98,35.84 41.98,35.84 44.78,34.99 47.58,34.14 50.74,33.03 53.91,31.92 57.60,29.77 61.30,27.62 65.11,24.08 68.92,20.53 72.15,15.59 75.39,10.64 77.30,5.07 79.21,-0.50 79.35,-5.79 79.49,-11.07 78.00,-17.39 76.50,-23.70 73.10,-28.98 69.69,-34.27 65.35,-36.79 61.01,-39.32 55.89,-40.33 50.77,-41.35 44.74,-40.52 38.71,-39.69 31.99,-37.28 25.27,-34.87 18.32,-30.74 11.36,-26.62 7.25,-22.27 3.13,-17.92 2.05,-14.01 0.98,-10.10 1.03,-7.01 1.08,-3.92 1.17,-2.01 1.26,-0.09 1.26,0.05 1.25,0.21 1.21,0.35 1.16,0.50 1.09,0.63 1.01,0.77 0.90,0.88 0.79,0.99 0.66,1.07 0.53,1.15 0.39,1.20 0.24,1.24 0.09,1.26 -0.05,1.27 -0.21,1.24 -0.36,1.22 -0.50,1.16 -0.64,1.09 -0.76,1.00 -0.88,0.91 -0.98,0.79 -1.08,0.67 -1.14,0.53 -1.21,0.39 -1.24,0.24 -1.26,0.09 -1.26,0.09 L -1.26,0.09 Z"></path></g><g transform="translate(94.3439750402481 105.571650414847) rotate(0 17.435302928929445 4.327403805534459)" stroke="none"><path fill="#1e1e1e" d="M -1.09,0.33 Q -1.09,0.33 -1.63,-1.12 -2.18,-2.58 -2.56,-3.44 -2.94,-4.29 -2.97,-4.45 -2.99,-4.61 -2.98,-4.77 -2.97,-4.93 -2.93,-5.08 -2.88,-5.23 -2.79,-5.37 -2.71,-5.51 -2.60,-5.62 -2.48,-5.73 -2.35,-5.82 -2.21,-5.90 -2.05,-5.95 -1.90,-5.99 -1.74,-6.00 -1.58,-6.01 -1.42,-5.98 -1.27,-5.95 -1.12,-5.89 -0.97,-5.82 -0.85,-5.72 -0.72,-5.62 -0.63,-5.49 -0.53,-5.37 -0.46,-5.22 -0.40,-5.07 -0.67,-4.44 -0.94,-3.81 -0.50,-2.72 -0.05,-1.63 0.53,0.29 1.12,2.22 1.91,4.23 2.69,6.25 3.71,8.04 4.74,9.83 5.90,11.26 7.07,12.69 8.40,13.32 9.74,13.95 11.32,13.93 12.90,13.90 14.63,12.94 16.36,11.99 17.99,10.22 19.63,8.45 20.96,6.03 22.28,3.62 23.27,1.18 24.26,-1.25 24.82,-3.02 25.38,-4.78 25.65,-5.67 25.93,-6.56 26.05,-6.83 26.17,-7.10 26.23,-7.23 26.28,-7.36 26.37,-7.47 26.46,-7.58 26.57,-7.66 26.68,-7.75 26.80,-7.80 26.93,-7.86 27.07,-7.88 27.20,-7.91 27.34,-7.90 27.48,-7.89 27.61,-7.85 27.75,-7.81 27.87,-7.74 27.99,-7.66 28.08,-7.57 28.18,-7.47 28.25,-7.35 28.33,-7.23 28.37,-7.09 28.41,-6.96 28.42,-6.82 28.42,-6.68 28.40,-6.55 28.37,-6.41 28.87,-5.43 29.37,-4.45 29.91,-2.96 30.44,-1.47 31.14,0.23 31.84,1.94 32.70,3.42 33.56,4.91 34.47,6.31 35.37,7.70 36.56,9.37 37.74,11.04 37.79,11.13 37.84,11.22 37.86,11.33 37.88,11.43 37.86,11.54 37.84,11.64 37.80,11.74 37.75,11.83 37.67,11.91 37.59,11.98 37.50,12.03 37.40,12.07 37.30,12.08 37.19,12.10 37.09,12.08 36.98,12.05 36.89,12.00 36.80,11.95 36.73,11.87 36.66,11.79 36.62,11.69 36.58,11.59 36.57,11.49 36.57,11.38 36.59,11.28 36.62,11.17 36.68,11.09 36.74,11.00 36.82,10.93 36.90,10.87 37.00,10.83 37.10,10.79 37.21,10.79 37.32,10.79 37.42,10.82 37.52,10.86 37.60,10.92 37.69,10.98 37.75,11.07 37.81,11.16 37.84,11.26 37.87,11.36 37.87,11.47 37.86,11.57 37.82,11.67 37.79,11.77 37.72,11.85 37.65,11.94 37.56,11.99 37.47,12.05 37.37,12.07 37.26,12.10 37.16,12.09 37.05,12.08 36.95,12.03 36.86,11.99 36.78,11.92 36.70,11.85 36.70,11.85 36.70,11.85 35.35,10.28 34.01,8.72 32.87,7.37 31.73,6.02 30.72,4.41 29.72,2.81 29.00,1.05 28.28,-0.69 27.74,-2.19 27.20,-3.69 26.89,-4.60 26.57,-5.51 26.37,-6.31 26.17,-7.10 26.23,-7.23 26.28,-7.36 26.37,-7.47 26.46,-7.58 26.57,-7.66 26.68,-7.75 26.80,-7.80 26.93,-7.86 27.07,-7.88 27.20,-7.91 27.34,-7.90 27.48,-7.89 27.61,-7.85 27.75,-7.81 27.87,-7.74 27.99,-7.66 28.08,-7.57 28.18,-7.47 28.25,-7.35 28.33,-7.23 28.37,-7.09 28.41,-6.96 28.42,-6.82 28.42,-6.68 28.40,-6.55 28.37,-6.41 28.26,-6.14 28.14,-5.86 27.85,-4.96 27.56,-4.05 26.92,-2.24 26.28,-0.42 25.22,2.12 24.16,4.67 22.68,7.28 21.20,9.90 19.31,11.89 17.42,13.89 15.23,15.03 13.03,16.18 10.91,16.16 8.78,16.14 7.00,15.23 5.21,14.32 3.88,12.70 2.56,11.08 1.45,9.12 0.34,7.17 -0.47,5.07 -1.29,2.97 -1.90,1.00 -2.52,-0.96 -2.73,-2.63 -2.94,-4.29 -2.97,-4.45 -2.99,-4.61 -2.98,-4.77 -2.97,-4.93 -2.93,-5.08 -2.88,-5.23 -2.79,-5.37 -2.71,-5.51 -2.60,-5.62 -2.48,-5.73 -2.35,-5.82 -2.21,-5.90 -2.05,-5.95 -1.90,-5.99 -1.74,-6.00 -1.58,-6.01 -1.42,-5.98 -1.27,-5.95 -1.12,-5.89 -0.98,-5.82 -0.85,-5.72 -0.72,-5.62 -0.63,-5.49 -0.53,-5.37 -0.46,-5.22 -0.40,-5.07 -0.02,-4.22 0.35,-3.36 0.72,-1.85 1.09,-0.33 1.11,-0.19 1.13,-0.06 1.13,0.07 1.12,0.21 1.08,0.34 1.03,0.47 0.96,0.59 0.89,0.70 0.79,0.80 0.70,0.90 0.58,0.97 0.46,1.04 0.33,1.08 0.20,1.12 0.06,1.13 -0.07,1.13 -0.20,1.11 -0.34,1.08 -0.46,1.03 -0.59,0.97 -0.70,0.88 -0.81,0.80 -0.89,0.69 -0.97,0.58 -1.03,0.46 -1.09,0.33 -1.09,0.33 L -1.09,0.33 Z"></path></g><g transform="translate(145.4339822434946 99.98882616603191) rotate(0 15.679677585022091 3.057784438610156)" stroke="none"><path fill="#1e1e1e" d="M -0.90,0.49 Q -0.90,0.49 -1.44,-0.33 -1.98,-1.15 -2.19,-1.33 -2.41,-1.50 -2.46,-1.63 -2.51,-1.76 -2.53,-1.90 -2.55,-2.05 -2.54,-2.19 -2.52,-2.33 -2.47,-2.46 -2.42,-2.60 -2.35,-2.72 -2.27,-2.84 -2.16,-2.93 -2.06,-3.03 -1.93,-3.10 -1.81,-3.16 -1.67,-3.20 -1.53,-3.24 -1.39,-3.24 -1.24,-3.24 -1.11,-3.21 -0.97,-3.18 -0.84,-3.11 -0.71,-3.05 -0.60,-2.96 -0.50,-2.86 -0.41,-2.75 -0.33,-2.63 -0.15,-2.04 0.02,-1.44 0.32,-0.42 0.62,0.59 0.86,2.21 1.10,3.83 1.25,5.33 1.41,6.83 1.47,8.13 1.54,9.44 1.56,10.33 1.59,11.22 1.62,11.70 1.64,12.18 1.63,12.32 1.62,12.46 1.57,12.60 1.52,12.73 1.44,12.85 1.36,12.97 1.26,13.07 1.15,13.17 1.03,13.24 0.90,13.31 0.77,13.35 0.63,13.38 0.48,13.39 0.34,13.39 0.20,13.36 0.06,13.33 -0.06,13.27 -0.19,13.21 -0.30,13.11 -0.41,13.02 -0.49,12.90 -0.58,12.79 -0.63,12.66 -0.68,12.52 -0.71,12.38 -0.73,12.24 -0.40,11.40 -0.07,10.56 1.02,8.65 2.12,6.74 3.89,4.34 5.66,1.93 7.38,-0.24 9.09,-2.43 10.51,-3.86 11.93,-5.30 13.23,-5.99 14.54,-6.68 15.68,-6.41 16.83,-6.14 17.65,-4.82 18.46,-3.49 18.84,-1.84 19.21,-0.18 19.36,1.53 19.50,3.26 19.51,4.53 19.52,5.80 19.47,6.68 19.42,7.56 19.40,7.97 19.39,8.39 19.37,8.52 19.34,8.65 19.29,8.78 19.23,8.90 19.15,9.01 19.06,9.12 18.96,9.20 18.85,9.28 18.73,9.34 18.60,9.39 18.47,9.42 18.33,9.44 18.20,9.44 18.06,9.43 17.93,9.39 17.80,9.35 17.69,9.28 17.57,9.21 17.47,9.11 17.38,9.01 17.31,8.90 17.24,8.78 17.20,8.65 17.16,8.52 17.15,8.38 17.14,8.25 17.33,7.44 17.52,6.62 17.93,5.22 18.34,3.82 19.01,2.08 19.67,0.35 20.46,-1.31 21.25,-2.97 22.43,-4.28 23.61,-5.60 24.84,-6.25 26.08,-6.90 27.41,-6.67 28.74,-6.44 29.90,-5.21 31.07,-3.99 31.82,-2.72 32.58,-1.45 33.01,0.16 33.43,1.78 33.51,3.23 33.58,4.68 33.63,6.31 33.68,7.93 33.68,8.03 33.67,8.14 33.63,8.24 33.59,8.34 33.52,8.42 33.45,8.50 33.36,8.55 33.27,8.61 33.17,8.63 33.06,8.65 32.96,8.64 32.85,8.63 32.76,8.58 32.66,8.54 32.58,8.47 32.51,8.39 32.46,8.30 32.41,8.21 32.39,8.10 32.37,8.00 32.39,7.89 32.41,7.79 32.46,7.69 32.51,7.60 32.59,7.53 32.66,7.45 32.76,7.41 32.86,7.36 32.96,7.35 33.07,7.34 33.17,7.37 33.28,7.39 33.37,7.44 33.46,7.50 33.53,7.58 33.59,7.66 33.63,7.76 33.67,7.86 33.68,7.96 33.68,8.07 33.65,8.17 33.63,8.28 33.57,8.36 33.51,8.45 33.42,8.51 33.34,8.58 33.24,8.61 33.13,8.65 33.03,8.65 32.92,8.65 32.82,8.61 32.72,8.58 32.64,8.51 32.55,8.45 32.49,8.36 32.43,8.27 32.41,8.17 32.38,8.07 32.38,8.07 32.38,8.07 32.09,6.48 31.81,4.90 31.54,3.62 31.28,2.35 30.93,1.02 30.57,-0.30 29.94,-1.39 29.31,-2.48 28.63,-3.39 27.96,-4.31 27.36,-4.55 26.76,-4.79 26.04,-4.38 25.32,-3.97 24.34,-2.95 23.37,-1.93 22.62,-0.36 21.87,1.19 21.23,2.84 20.60,4.49 20.17,5.91 19.75,7.33 19.57,7.86 19.39,8.39 19.37,8.52 19.34,8.65 19.29,8.78 19.23,8.90 19.15,9.01 19.06,9.12 18.96,9.20 18.85,9.28 18.73,9.34 18.60,9.39 18.47,9.42 18.33,9.44 18.20,9.44 18.06,9.43 17.93,9.39 17.80,9.35 17.69,9.28 17.57,9.21 17.47,9.11 17.38,9.01 17.31,8.90 17.24,8.78 17.20,8.65 17.16,8.52 17.15,8.39 17.14,8.25 17.17,7.84 17.21,7.43 17.26,6.62 17.31,5.81 17.31,4.62 17.30,3.44 17.18,1.85 17.05,0.26 16.77,-1.11 16.50,-2.49 15.81,-3.57 15.13,-4.65 14.33,-4.16 13.54,-3.67 12.22,-2.34 10.89,-1.01 9.20,1.13 7.50,3.28 5.82,5.58 4.13,7.88 2.88,10.03 1.64,12.18 1.63,12.32 1.62,12.46 1.57,12.60 1.52,12.73 1.44,12.85 1.36,12.97 1.26,13.07 1.15,13.17 1.03,13.24 0.90,13.31 0.77,13.35 0.63,13.38 0.48,13.39 0.34,13.39 0.20,13.36 0.06,13.33 -0.06,13.27 -0.19,13.21 -0.30,13.11 -0.41,13.02 -0.49,12.90 -0.58,12.79 -0.63,12.66 -0.68,12.52 -0.71,12.38 -0.73,12.24 -0.73,11.77 -0.74,11.29 -0.77,10.43 -0.79,9.56 -0.86,8.31 -0.92,7.06 -1.06,5.61 -1.21,4.17 -1.42,2.71 -1.63,1.26 -2.02,-0.12 -2.41,-1.50 -2.46,-1.63 -2.51,-1.76 -2.53,-1.90 -2.55,-2.05 -2.54,-2.19 -2.52,-2.33 -2.47,-2.46 -2.42,-2.60 -2.35,-2.72 -2.27,-2.84 -2.16,-2.93 -2.06,-3.03 -1.93,-3.10 -1.81,-3.16 -1.67,-3.20 -1.53,-3.24 -1.39,-3.24 -1.24,-3.24 -1.11,-3.21 -0.97,-3.18 -0.84,-3.11 -0.71,-3.05 -0.60,-2.96 -0.50,-2.86 -0.41,-2.75 -0.33,-2.63 -0.13,-2.50 0.05,-2.37 0.47,-1.43 0.90,-0.49 0.95,-0.37 0.99,-0.26 1.01,-0.13 1.03,-0.01 1.01,0.10 1.00,0.23 0.96,0.34 0.92,0.46 0.85,0.56 0.78,0.67 0.69,0.75 0.59,0.83 0.49,0.89 0.38,0.95 0.26,0.98 0.14,1.02 0.01,1.02 -0.10,1.02 -0.22,0.99 -0.34,0.96 -0.46,0.91 -0.57,0.85 -0.66,0.77 -0.76,0.69 -0.83,0.59 -0.90,0.49 -0.90,0.49 L -0.90,0.49 Z"></path></g><g transform="translate(192.2419183331957 96.26635223943254) rotate(0 16.291573929616277 1.7977914605968408)" stroke="none"><path fill="#1e1e1e" d="M -1.08,0.44 Q -1.08,0.44 -1.48,-0.34 -1.87,-1.13 -2.03,-1.30 -2.18,-1.47 -2.22,-1.62 -2.26,-1.78 -2.27,-1.93 -2.27,-2.09 -2.24,-2.25 -2.20,-2.40 -2.13,-2.54 -2.06,-2.68 -1.96,-2.80 -1.86,-2.92 -1.73,-3.02 -1.60,-3.11 -1.46,-3.17 -1.31,-3.23 -1.15,-3.25 -1.00,-3.27 -0.84,-3.26 -0.68,-3.24 -0.53,-3.19 -0.39,-3.13 -0.25,-3.05 -0.12,-2.96 -0.01,-2.85 0.08,-2.73 0.16,-2.59 0.24,-2.45 0.40,-1.74 0.57,-1.02 0.81,-0.12 1.05,0.78 1.18,1.96 1.30,3.13 1.35,4.54 1.40,5.94 1.32,7.11 1.24,8.28 1.02,9.22 0.81,10.17 0.72,10.67 0.63,11.18 0.58,11.33 0.53,11.48 0.44,11.61 0.35,11.74 0.24,11.85 0.12,11.96 -0.00,12.03 -0.14,12.11 -0.29,12.15 -0.44,12.20 -0.60,12.20 -0.76,12.20 -0.91,12.17 -1.07,12.14 -1.21,12.07 -1.35,12.00 -1.47,11.90 -1.59,11.80 -1.68,11.67 -1.78,11.54 -1.84,11.40 -1.90,11.25 -1.92,11.10 -1.94,10.94 -1.93,10.79 -1.92,10.63 -1.50,9.89 -1.08,9.15 -0.16,7.82 0.74,6.50 2.03,4.77 3.32,3.05 4.72,1.15 6.11,-0.75 7.38,-2.29 8.64,-3.84 9.63,-4.75 10.61,-5.67 11.86,-6.00 13.10,-6.32 14.19,-5.74 15.27,-5.15 15.94,-3.69 16.61,-2.22 16.95,-0.65 17.29,0.91 17.44,2.49 17.59,4.06 17.59,5.43 17.60,6.80 17.60,7.62 17.60,8.45 17.55,8.80 17.50,9.15 17.48,9.30 17.46,9.45 17.41,9.59 17.36,9.72 17.27,9.85 17.19,9.97 17.08,10.07 16.97,10.17 16.84,10.24 16.70,10.31 16.56,10.34 16.42,10.38 16.27,10.38 16.12,10.38 15.97,10.34 15.83,10.31 15.70,10.24 15.57,10.17 15.46,10.07 15.34,9.97 15.26,9.85 15.18,9.73 15.12,9.59 15.07,9.45 15.05,9.30 15.03,9.16 15.49,8.18 15.95,7.20 16.92,5.62 17.89,4.03 19.20,2.03 20.51,0.02 21.77,-1.77 23.02,-3.57 24.13,-4.97 25.25,-6.36 26.20,-7.05 27.15,-7.75 28.19,-7.57 29.23,-7.39 29.83,-6.27 30.42,-5.15 30.82,-3.50 31.22,-1.84 31.61,-0.24 31.99,1.34 33.17,3.91 34.36,6.48 34.39,6.58 34.42,6.68 34.42,6.79 34.42,6.90 34.39,7.00 34.35,7.10 34.29,7.18 34.22,7.27 34.14,7.33 34.05,7.39 33.95,7.41 33.84,7.44 33.74,7.43 33.63,7.43 33.53,7.39 33.43,7.35 33.35,7.28 33.27,7.21 33.22,7.12 33.16,7.03 33.14,6.92 33.12,6.82 33.13,6.71 33.14,6.61 33.19,6.51 33.23,6.42 33.31,6.34 33.38,6.26 33.47,6.21 33.57,6.16 33.67,6.15 33.78,6.13 33.88,6.15 33.99,6.17 34.08,6.22 34.18,6.27 34.25,6.34 34.32,6.42 34.36,6.52 34.41,6.62 34.42,6.72 34.43,6.83 34.41,6.93 34.38,7.03 34.33,7.12 34.27,7.22 34.19,7.28 34.11,7.35 34.01,7.39 33.91,7.43 33.81,7.43 33.70,7.44 33.60,7.41 33.50,7.38 33.41,7.32 33.32,7.26 33.26,7.18 33.19,7.09 33.19,7.09 33.19,7.09 31.66,4.49 30.13,1.88 29.60,0.28 29.06,-1.32 28.70,-2.82 28.33,-4.32 28.17,-5.08 28.00,-5.83 27.49,-5.39 26.99,-4.94 25.91,-3.62 24.84,-2.30 23.61,-0.53 22.37,1.22 21.10,3.21 19.82,5.19 18.93,6.71 18.04,8.22 17.77,8.69 17.50,9.15 17.48,9.30 17.46,9.45 17.41,9.59 17.36,9.72 17.27,9.85 17.19,9.97 17.08,10.07 16.97,10.17 16.84,10.24 16.70,10.30 16.56,10.34 16.42,10.38 16.27,10.38 16.12,10.38 15.98,10.34 15.83,10.31 15.70,10.24 15.57,10.17 15.46,10.07 15.34,9.97 15.26,9.85 15.18,9.73 15.12,9.59 15.07,9.45 15.05,9.30 15.03,9.16 15.09,8.80 15.14,8.45 15.14,7.63 15.14,6.80 15.14,5.54 15.14,4.28 15.02,2.85 14.89,1.42 14.61,0.04 14.32,-1.32 14.02,-2.31 13.73,-3.29 12.98,-3.52 12.23,-3.75 11.42,-2.98 10.61,-2.22 9.39,-0.73 8.17,0.75 6.76,2.66 5.36,4.57 4.11,6.26 2.86,7.94 1.75,9.56 0.63,11.18 0.58,11.33 0.53,11.48 0.44,11.61 0.35,11.74 0.24,11.85 0.12,11.96 -0.00,12.03 -0.14,12.11 -0.29,12.15 -0.44,12.20 -0.60,12.20 -0.76,12.20 -0.91,12.17 -1.07,12.14 -1.21,12.07 -1.35,12.00 -1.47,11.90 -1.59,11.80 -1.68,11.67 -1.78,11.54 -1.84,11.40 -1.90,11.25 -1.92,11.10 -1.94,10.94 -1.93,10.79 -1.92,10.63 -1.81,10.09 -1.70,9.56 -1.51,8.82 -1.32,8.09 -1.24,7.06 -1.16,6.03 -1.21,4.71 -1.25,3.39 -1.35,2.42 -1.44,1.44 -1.69,0.50 -1.94,-0.43 -2.06,-0.95 -2.18,-1.47 -2.22,-1.62 -2.26,-1.78 -2.27,-1.93 -2.27,-2.09 -2.24,-2.25 -2.20,-2.40 -2.13,-2.54 -2.06,-2.68 -1.96,-2.80 -1.86,-2.92 -1.73,-3.02 -1.60,-3.11 -1.46,-3.17 -1.31,-3.23 -1.15,-3.25 -1.00,-3.27 -0.84,-3.26 -0.68,-3.24 -0.53,-3.19 -0.39,-3.13 -0.25,-3.05 -0.12,-2.96 -0.01,-2.85 0.08,-2.73 0.16,-2.59 0.24,-2.45 0.38,-2.32 0.53,-2.18 0.81,-1.31 1.08,-0.44 1.12,-0.30 1.16,-0.16 1.16,-0.02 1.16,0.11 1.13,0.25 1.10,0.39 1.04,0.51 0.98,0.64 0.88,0.75 0.79,0.86 0.68,0.94 0.56,1.02 0.43,1.08 0.30,1.13 0.16,1.15 0.02,1.17 -0.11,1.15 -0.25,1.14 -0.38,1.09 -0.52,1.05 -0.64,0.97 -0.75,0.89 -0.85,0.79 -0.95,0.68 -1.01,0.56 -1.08,0.43 -1.08,0.43 L -1.08,0.44 Z"></path></g><g transform="translate(249.10086841506688 83.79637870959448) rotate(0 7.101716423324035 28.847766971711906)" stroke="none"><path fill="#1e1e1e" d="M -0.56,0.96 Q -0.56,0.96 -1.20,0.70 -1.84,0.43 -1.97,0.34 -2.10,0.24 -2.19,0.12 -2.29,-0.00 -2.36,-0.14 -2.43,-0.29 -2.46,-0.44 -2.49,-0.60 -2.48,-0.76 -2.47,-0.92 -2.43,-1.07 -2.38,-1.22 -2.30,-1.36 -2.22,-1.49 -2.11,-1.61 -2.00,-1.72 -1.86,-1.80 -1.73,-1.89 -1.57,-1.94 -1.42,-1.99 -1.26,-2.00 -1.11,-2.01 -0.95,-1.98 -0.79,-1.95 -0.65,-1.89 -0.50,-1.83 -0.58,-0.09 -0.65,1.63 -0.82,3.37 -0.99,5.12 -1.07,7.33 -1.16,9.55 -1.05,12.14 -0.93,14.74 -0.57,17.53 -0.21,20.32 0.25,23.35 0.73,26.39 1.34,29.45 1.94,32.50 3.04,36.12 4.13,39.74 5.36,42.85 6.60,45.96 8.17,48.67 9.74,51.39 11.00,53.48 12.26,55.57 12.98,56.72 13.69,57.86 13.90,58.34 14.11,58.82 14.16,58.93 14.22,59.05 14.24,59.18 14.27,59.31 14.26,59.44 14.26,59.57 14.22,59.69 14.19,59.82 14.12,59.93 14.06,60.04 13.97,60.14 13.88,60.23 13.77,60.30 13.66,60.37 13.53,60.41 13.41,60.45 13.28,60.46 13.15,60.47 13.02,60.45 12.89,60.43 12.77,60.38 12.65,60.33 12.55,60.25 12.45,60.17 12.36,60.07 12.28,59.97 9.79,60.02 7.31,60.07 3.98,59.39 0.65,58.71 -3.47,57.87 -7.60,57.03 -11.71,56.11 -15.81,55.19 -18.86,54.17 -21.92,53.15 -23.85,52.10 -25.79,51.06 -26.79,49.25 -27.79,47.45 -26.98,46.41 -26.17,45.36 -22.93,43.92 -19.69,42.47 -14.47,40.99 -9.25,39.51 -3.13,38.25 2.99,36.98 9.11,35.98 15.24,34.97 20.80,34.53 26.37,34.08 30.90,34.21 35.42,34.33 38.73,34.24 42.04,34.14 42.14,34.16 42.25,34.17 42.34,34.22 42.44,34.26 42.52,34.34 42.59,34.41 42.64,34.51 42.69,34.61 42.70,34.71 42.71,34.82 42.69,34.92 42.67,35.02 42.62,35.12 42.57,35.21 42.49,35.28 42.41,35.35 42.31,35.39 42.22,35.44 42.11,35.44 42.01,35.45 41.90,35.43 41.80,35.40 41.71,35.35 41.62,35.29 41.55,35.21 41.49,35.12 41.45,35.02 41.41,34.92 41.41,34.82 41.41,34.71 41.44,34.61 41.47,34.51 41.53,34.42 41.59,34.34 41.68,34.27 41.76,34.21 41.87,34.18 41.97,34.15 42.07,34.15 42.18,34.15 42.28,34.19 42.38,34.23 42.46,34.29 42.55,34.36 42.60,34.45 42.66,34.54 42.69,34.64 42.71,34.74 42.70,34.85 42.70,34.96 42.65,35.05 42.61,35.15 42.54,35.23 42.47,35.31 42.38,35.36 42.28,35.41 42.18,35.44 42.08,35.46 42.08,35.46 42.08,35.46 38.77,35.55 35.46,35.65 31.03,36.03 26.61,36.41 21.15,37.08 15.70,37.74 9.64,38.80 3.58,39.86 -2.43,41.10 -8.45,42.35 -13.50,43.77 -18.55,45.19 -21.29,46.27 -24.03,47.35 -24.78,48.19 -25.54,49.03 -24.94,48.78 -24.33,48.53 -22.66,49.52 -20.98,50.52 -18.09,51.61 -15.21,52.70 -11.17,53.74 -7.14,54.78 -3.01,55.64 1.10,56.49 4.39,57.16 7.68,57.84 9.52,58.17 11.37,58.50 12.74,58.66 14.11,58.82 14.16,58.93 14.22,59.05 14.24,59.18 14.27,59.31 14.26,59.44 14.26,59.57 14.22,59.69 14.19,59.82 14.12,59.93 14.06,60.04 13.97,60.14 13.88,60.23 13.77,60.30 13.66,60.37 13.53,60.41 13.41,60.45 13.28,60.46 13.15,60.47 13.02,60.45 12.89,60.43 12.77,60.38 12.65,60.33 12.55,60.25 12.45,60.17 12.36,60.07 12.28,59.97 12.09,59.48 11.90,58.99 11.17,57.84 10.44,56.70 9.11,54.63 7.78,52.55 6.05,49.72 4.31,46.89 2.98,43.69 1.65,40.49 0.52,36.75 -0.60,33.01 -1.22,29.90 -1.84,26.79 -2.32,23.72 -2.80,20.65 -3.18,17.75 -3.55,14.85 -3.67,12.15 -3.78,9.45 -3.69,7.14 -3.60,4.84 -3.36,2.77 -3.12,0.71 -2.48,0.57 -1.84,0.43 -1.97,0.34 -2.10,0.24 -2.19,0.12 -2.29,-0.00 -2.36,-0.14 -2.43,-0.29 -2.46,-0.44 -2.49,-0.60 -2.48,-0.76 -2.47,-0.92 -2.43,-1.07 -2.38,-1.22 -2.30,-1.36 -2.22,-1.49 -2.11,-1.61 -2.00,-1.72 -1.86,-1.80 -1.73,-1.89 -1.57,-1.94 -1.42,-1.99 -1.26,-2.00 -1.11,-2.01 -0.95,-1.98 -0.79,-1.95 -0.65,-1.89 -0.50,-1.83 0.03,-1.39 0.56,-0.96 0.67,-0.87 0.78,-0.79 0.86,-0.69 0.94,-0.58 1.00,-0.46 1.06,-0.34 1.08,-0.21 1.11,-0.07 1.10,0.05 1.10,0.19 1.06,0.31 1.02,0.44 0.95,0.56 0.88,0.67 0.79,0.77 0.69,0.87 0.58,0.94 0.46,1.01 0.34,1.05 0.21,1.09 0.07,1.10 -0.05,1.11 -0.18,1.09 -0.32,1.06 -0.44,1.01 -0.56,0.96 -0.56,0.96 L -0.56,0.96 Z"></path></g><g transform="translate(324.1997735420989 32.892616799169446) rotate(0 -1.628633008092038 13.307938018221591)" stroke="none"><path fill="#1e1e1e" d="M -1.15,0.30 Q -1.15,0.30 -1.68,-1.43 -2.21,-3.17 -2.77,-4.30 -3.33,-5.43 -3.95,-5.72 -4.57,-6.00 -4.62,-6.15 -4.68,-6.31 -4.69,-6.48 -4.71,-6.64 -4.69,-6.81 -4.66,-6.97 -4.60,-7.13 -4.54,-7.28 -4.44,-7.42 -4.34,-7.55 -4.22,-7.66 -4.09,-7.77 -3.94,-7.84 -3.79,-7.92 -3.63,-7.95 -3.47,-7.99 -3.30,-7.98 -3.13,-7.98 -2.97,-7.94 -2.81,-7.89 -2.67,-7.81 -2.52,-7.73 -2.40,-7.62 -2.28,-7.51 -2.18,-7.37 -2.09,-7.23 -2.09,-5.03 -2.09,-2.84 -1.79,0.34 -1.49,3.52 -1.07,7.47 -0.65,11.41 -0.26,15.40 0.12,19.39 0.44,23.84 0.75,28.28 1.12,31.55 1.49,34.82 1.48,34.92 1.47,35.03 1.44,35.13 1.40,35.23 1.33,35.31 1.26,35.39 1.17,35.45 1.08,35.50 0.97,35.52 0.87,35.55 0.77,35.54 0.66,35.53 0.56,35.48 0.47,35.44 0.39,35.37 0.31,35.29 0.26,35.20 0.21,35.11 0.19,35.00 0.18,34.90 0.19,34.79 0.21,34.69 0.26,34.59 0.31,34.50 0.38,34.42 0.46,34.35 0.56,34.31 0.65,34.26 0.76,34.25 0.86,34.24 0.97,34.26 1.07,34.28 1.16,34.34 1.26,34.39 1.32,34.47 1.39,34.55 1.43,34.65 1.47,34.75 1.48,34.85 1.49,34.96 1.46,35.06 1.43,35.17 1.37,35.25 1.31,35.34 1.23,35.41 1.14,35.47 1.04,35.51 0.94,35.54 0.84,35.54 0.73,35.54 0.63,35.51 0.53,35.47 0.44,35.41 0.36,35.35 0.30,35.26 0.24,35.17 0.21,35.07 0.18,34.97 0.18,34.97 0.18,34.97 -0.19,31.70 -0.56,28.43 -1.25,24.04 -1.94,19.64 -2.53,15.67 -3.13,11.70 -3.64,7.74 -4.16,3.78 -4.49,0.42 -4.83,-2.93 -4.70,-4.46 -4.56,-6.00 -4.62,-6.15 -4.68,-6.31 -4.69,-6.48 -4.71,-6.64 -4.69,-6.81 -4.66,-6.97 -4.60,-7.13 -4.54,-7.28 -4.44,-7.42 -4.34,-7.55 -4.22,-7.66 -4.09,-7.77 -3.94,-7.84 -3.79,-7.92 -3.63,-7.95 -3.47,-7.99 -3.30,-7.98 -3.13,-7.98 -2.97,-7.94 -2.81,-7.89 -2.67,-7.81 -2.52,-7.73 -2.40,-7.62 -2.28,-7.51 -2.18,-7.37 -2.09,-7.23 -1.68,-7.15 -1.27,-7.07 -0.47,-5.47 0.33,-3.86 0.74,-2.08 1.15,-0.30 1.17,-0.16 1.19,-0.02 1.17,0.11 1.16,0.26 1.11,0.39 1.06,0.53 0.98,0.65 0.90,0.77 0.80,0.86 0.69,0.96 0.56,1.03 0.44,1.10 0.30,1.14 0.16,1.17 0.02,1.18 -0.12,1.18 -0.26,1.15 -0.40,1.12 -0.52,1.05 -0.65,0.99 -0.76,0.89 -0.87,0.80 -0.95,0.69 -1.04,0.57 -1.09,0.44 -1.15,0.30 -1.15,0.30 L -1.15,0.30 Z"></path></g><g transform="translate(314.8009727312377 35.96378951814643) rotate(0 27.405315924935394 -2.093815585904963)" stroke="none"><path fill="#1e1e1e" d="M -1.12,0.16 Q -1.12,0.16 -1.65,-2.63 -2.18,-5.43 -2.46,-7.09 -2.73,-8.76 -1.54,-9.69 -0.35,-10.63 1.31,-9.73 2.97,-8.83 5.33,-6.93 7.68,-5.04 10.42,-2.58 13.15,-0.12 16.07,2.65 18.98,5.44 21.85,8.16 24.72,10.88 27.28,13.02 29.84,15.16 31.88,16.78 33.93,18.40 35.13,19.06 36.32,19.72 37.15,19.29 37.98,18.86 38.83,17.39 39.68,15.92 40.50,13.05 41.32,10.17 41.78,6.16 42.25,2.16 42.43,-2.35 42.62,-6.88 42.77,-10.82 42.92,-14.76 43.00,-17.56 43.08,-20.35 43.12,-21.93 43.17,-23.51 43.24,-24.23 43.31,-24.95 43.34,-25.10 43.36,-25.26 43.42,-25.41 43.49,-25.55 43.58,-25.68 43.68,-25.81 43.80,-25.91 43.92,-26.01 44.06,-26.08 44.21,-26.15 44.36,-26.18 44.52,-26.22 44.68,-26.21 44.84,-26.20 44.99,-26.16 45.14,-26.12 45.28,-26.04 45.42,-25.96 45.54,-25.85 45.65,-25.74 45.74,-25.61 45.82,-25.47 45.87,-25.32 45.93,-25.17 45.94,-25.01 45.95,-24.85 46.62,-23.84 47.28,-22.83 47.93,-20.87 48.57,-18.91 49.33,-16.38 50.09,-13.84 51.05,-11.12 52.01,-8.40 52.93,-5.93 53.86,-3.45 54.72,-0.97 55.59,1.50 56.47,3.78 57.36,6.05 57.39,6.16 57.41,6.26 57.41,6.37 57.40,6.47 57.36,6.57 57.32,6.67 57.25,6.75 57.18,6.83 57.09,6.88 57.00,6.94 56.89,6.96 56.79,6.98 56.68,6.97 56.58,6.95 56.48,6.91 56.39,6.86 56.31,6.79 56.23,6.71 56.18,6.62 56.14,6.53 56.12,6.42 56.10,6.32 56.12,6.21 56.14,6.11 56.19,6.01 56.24,5.92 56.32,5.85 56.40,5.78 56.50,5.73 56.59,5.69 56.70,5.68 56.80,5.67 56.91,5.69 57.01,5.72 57.10,5.77 57.19,5.83 57.26,5.91 57.33,5.99 57.37,6.09 57.40,6.19 57.41,6.30 57.41,6.40 57.38,6.50 57.35,6.61 57.29,6.69 57.23,6.78 57.15,6.84 57.06,6.91 56.96,6.94 56.86,6.97 56.75,6.97 56.65,6.97 56.55,6.94 56.45,6.90 56.36,6.83 56.28,6.77 56.22,6.68 56.16,6.59 56.16,6.59 56.16,6.59 55.04,4.39 53.92,2.20 52.75,-0.18 51.58,-2.56 50.56,-5.04 49.54,-7.53 48.55,-10.31 47.57,-13.09 46.82,-15.59 46.08,-18.09 45.48,-19.93 44.87,-21.77 44.55,-22.66 44.22,-23.56 43.77,-24.25 43.31,-24.95 43.34,-25.10 43.36,-25.26 43.42,-25.41 43.49,-25.55 43.58,-25.68 43.68,-25.81 43.80,-25.91 43.92,-26.01 44.06,-26.08 44.21,-26.15 44.36,-26.18 44.52,-26.22 44.68,-26.21 44.84,-26.20 44.99,-26.16 45.14,-26.12 45.28,-26.04 45.42,-25.96 45.54,-25.85 45.65,-25.74 45.74,-25.61 45.82,-25.47 45.87,-25.32 45.93,-25.17 45.94,-25.01 45.95,-24.85 45.88,-24.14 45.81,-23.42 45.74,-21.82 45.67,-20.22 45.49,-17.42 45.30,-14.62 44.99,-10.70 44.67,-6.78 44.43,-2.19 44.18,2.39 43.69,6.54 43.21,10.70 42.32,13.84 41.43,16.98 40.20,18.84 38.98,20.70 37.46,21.20 35.94,21.70 34.26,20.92 32.58,20.14 30.49,18.52 28.40,16.90 25.75,14.76 23.10,12.61 20.19,9.92 17.27,7.23 14.37,4.49 11.47,1.74 8.78,-0.66 6.10,-3.08 3.90,-4.86 1.70,-6.64 0.73,-7.59 -0.22,-8.54 0.14,-7.19 0.51,-5.83 0.82,-3.00 1.12,-0.16 1.13,-0.03 1.13,0.10 1.10,0.24 1.07,0.37 1.01,0.49 0.95,0.62 0.86,0.72 0.77,0.83 0.66,0.91 0.55,0.99 0.42,1.04 0.30,1.09 0.16,1.12 0.03,1.14 -0.10,1.12 -0.24,1.11 -0.37,1.06 -0.50,1.02 -0.61,0.94 -0.73,0.87 -0.82,0.77 -0.92,0.67 -0.98,0.55 -1.05,0.43 -1.09,0.30 -1.12,0.16 -1.12,0.16 L -1.12,0.16 Z"></path></g><g transform="translate(393.24991186443106 48.433763047984485) rotate(0 -2.7923114317927116 0.20523207831791979)" stroke="none"><path fill="#1e1e1e" d="M -0.99,0.28 Q -0.99,0.28 -1.86,-2.21 -2.72,-4.71 -3.50,-6.23 -4.27,-7.75 -4.79,-8.45 -5.31,-9.16 -5.71,-8.28 -6.11,-7.41 -6.68,-5.86 -7.26,-4.31 -7.55,-2.22 -7.84,-0.13 -7.83,2.32 -7.82,4.78 -7.38,7.30 -6.93,9.82 -6.19,11.67 -5.44,13.51 -4.71,14.38 -3.98,15.25 -3.34,15.48 -2.69,15.71 -1.88,15.08 -1.08,14.46 -0.29,13.27 0.48,12.09 1.11,9.74 1.74,7.38 1.90,4.45 2.06,1.51 1.46,-1.58 0.86,-4.69 -0.17,-7.50 -1.21,-10.30 -2.35,-12.05 -3.49,-13.79 -4.04,-14.48 -4.58,-15.16 -5.38,-14.55 -6.17,-13.93 -6.63,-12.52 -7.10,-11.12 -7.41,-9.19 -7.72,-7.27 -7.75,-7.17 -7.78,-7.07 -7.84,-6.98 -7.90,-6.89 -7.98,-6.83 -8.07,-6.76 -8.17,-6.73 -8.27,-6.70 -8.37,-6.70 -8.48,-6.70 -8.58,-6.73 -8.68,-6.77 -8.77,-6.83 -8.85,-6.90 -8.91,-6.99 -8.97,-7.07 -9.00,-7.18 -9.02,-7.28 -9.02,-7.38 -9.01,-7.49 -8.97,-7.59 -8.93,-7.69 -8.86,-7.77 -8.79,-7.85 -8.70,-7.90 -8.61,-7.96 -8.51,-7.98 -8.40,-8.00 -8.30,-7.99 -8.19,-7.98 -8.10,-7.93 -8.00,-7.89 -7.92,-7.81 -7.85,-7.74 -7.80,-7.65 -7.75,-7.55 -7.73,-7.45 -7.71,-7.34 -7.73,-7.24 -7.75,-7.13 -7.80,-7.04 -7.85,-6.95 -7.93,-6.87 -8.01,-6.80 -8.10,-6.76 -8.20,-6.71 -8.30,-6.70 -8.41,-6.69 -8.51,-6.71 -8.62,-6.74 -8.71,-6.79 -8.80,-6.85 -8.87,-6.93 -8.94,-7.01 -8.97,-7.11 -9.01,-7.21 -9.02,-7.31 -9.02,-7.42 -9.02,-7.42 -9.02,-7.42 -8.87,-9.55 -8.72,-11.67 -8.07,-13.48 -7.41,-15.28 -6.27,-16.13 -5.12,-16.97 -3.35,-16.04 -1.58,-15.10 -0.31,-13.11 0.95,-11.12 2.05,-8.13 3.15,-5.14 3.81,-1.76 4.46,1.62 4.31,4.83 4.16,8.04 3.37,10.78 2.59,13.53 1.43,15.08 0.27,16.63 -1.26,17.35 -2.81,18.07 -4.31,17.52 -5.80,16.98 -6.80,15.73 -7.79,14.48 -8.61,12.38 -9.44,10.27 -9.90,7.53 -10.37,4.79 -10.36,2.14 -10.36,-0.50 -10.00,-2.85 -9.64,-5.21 -8.92,-7.04 -8.20,-8.87 -7.46,-9.85 -6.73,-10.82 -5.96,-11.17 -5.18,-11.51 -4.20,-11.14 -3.23,-10.78 -2.55,-9.86 -1.88,-8.95 -1.02,-7.20 -0.17,-5.45 0.41,-2.86 0.99,-0.28 1.01,-0.16 1.03,-0.03 1.02,0.08 1.01,0.21 0.97,0.32 0.93,0.44 0.86,0.55 0.79,0.65 0.70,0.74 0.61,0.82 0.50,0.89 0.40,0.95 0.28,0.98 0.16,1.02 0.03,1.02 -0.08,1.03 -0.20,1.00 -0.33,0.97 -0.44,0.92 -0.55,0.87 -0.65,0.79 -0.74,0.71 -0.82,0.61 -0.89,0.51 -0.94,0.39 -0.99,0.28 -0.99,0.28 L -0.99,0.28 Z"></path></g><g transform="translate(412.23380944417966 25.076115666616488) rotate(0 -0.27934260662982524 9.95704270357885)" stroke="none"><path fill="#1e1e1e" d="M -1.00,0.10 Q -1.00,0.10 -1.21,-1.43 -1.41,-2.96 -1.85,-4.76 -2.29,-6.57 -2.61,-7.88 -2.93,-9.20 -3.10,-9.78 -3.27,-10.37 -3.38,-10.49 -3.48,-10.61 -3.51,-10.77 -3.54,-10.92 -3.53,-11.09 -3.51,-11.25 -3.46,-11.40 -3.41,-11.56 -3.33,-11.69 -3.24,-11.83 -3.13,-11.94 -3.01,-12.06 -2.87,-12.14 -2.73,-12.22 -2.58,-12.27 -2.42,-12.31 -2.26,-12.32 -2.10,-12.33 -1.94,-12.30 -1.78,-12.27 -1.63,-12.20 -1.49,-12.13 -1.36,-12.03 -1.23,-11.93 -1.14,-11.80 -1.04,-11.67 -0.97,-11.52 -0.91,-11.37 -0.92,-10.19 -0.93,-9.01 -0.94,-6.99 -0.95,-4.97 -0.96,-2.05 -0.97,0.87 -0.97,4.36 -0.97,7.85 -0.79,11.51 -0.62,15.17 -0.17,18.68 0.27,22.18 0.82,24.87 1.37,27.57 1.89,29.57 2.40,31.56 2.41,31.67 2.42,31.77 2.39,31.88 2.37,31.98 2.31,32.07 2.26,32.16 2.17,32.23 2.09,32.30 1.99,32.33 1.89,32.37 1.79,32.38 1.68,32.38 1.58,32.35 1.48,32.32 1.39,32.26 1.30,32.20 1.24,32.11 1.18,32.03 1.15,31.92 1.11,31.82 1.11,31.72 1.12,31.61 1.15,31.51 1.19,31.41 1.25,31.33 1.32,31.24 1.41,31.19 1.50,31.13 1.60,31.10 1.70,31.07 1.81,31.08 1.91,31.09 2.01,31.13 2.11,31.17 2.19,31.24 2.27,31.31 2.32,31.40 2.38,31.49 2.40,31.60 2.42,31.70 2.41,31.81 2.39,31.91 2.35,32.01 2.30,32.10 2.23,32.18 2.15,32.26 2.06,32.31 1.96,32.35 1.86,32.37 1.75,32.38 1.65,32.37 1.54,32.35 1.45,32.30 1.36,32.24 1.29,32.17 1.21,32.09 1.17,31.99 1.13,31.89 1.13,31.89 1.13,31.89 0.60,29.90 0.07,27.91 -0.77,25.21 -1.63,22.51 -2.40,18.91 -3.17,15.32 -3.42,11.59 -3.66,7.85 -3.66,4.35 -3.65,0.86 -3.65,-2.06 -3.64,-4.99 -3.63,-7.05 -3.61,-9.12 -3.55,-9.86 -3.48,-10.61 -3.51,-10.77 -3.54,-10.92 -3.53,-11.09 -3.51,-11.25 -3.46,-11.40 -3.41,-11.56 -3.33,-11.69 -3.24,-11.83 -3.13,-11.94 -3.01,-12.06 -2.87,-12.14 -2.73,-12.22 -2.58,-12.27 -2.42,-12.31 -2.26,-12.32 -2.10,-12.33 -1.94,-12.30 -1.78,-12.27 -1.63,-12.20 -1.49,-12.13 -1.36,-12.03 -1.23,-11.93 -1.14,-11.80 -1.04,-11.67 -0.97,-11.52 -0.91,-11.37 -0.85,-11.33 -0.79,-11.28 -0.56,-10.53 -0.33,-9.77 -0.05,-8.42 0.21,-7.06 0.50,-5.12 0.79,-3.19 0.90,-1.64 1.00,-0.10 1.00,0.02 1.00,0.14 0.96,0.26 0.93,0.37 0.87,0.48 0.82,0.59 0.73,0.68 0.65,0.77 0.55,0.83 0.45,0.90 0.33,0.94 0.22,0.98 0.10,0.99 -0.02,1.01 -0.14,0.99 -0.26,0.97 -0.37,0.93 -0.48,0.88 -0.58,0.81 -0.68,0.74 -0.76,0.65 -0.84,0.55 -0.89,0.44 -0.95,0.33 -0.97,0.22 -1.00,0.10 -1.00,0.10 L -1.00,0.10 Z"></path></g><g transform="translate(410.7450630665229 48.71262433516881) rotate(0 9.943553092802517 -7.537589180163934)" stroke="none"><path fill="#1e1e1e" d="M -0.98,0.07 Q -0.98,0.07 -1.26,-1.61 -1.53,-3.30 -1.64,-5.12 -1.75,-6.93 -0.95,-8.72 -0.16,-10.52 1.78,-11.97 3.72,-13.42 6.09,-14.22 8.46,-15.03 11.24,-15.16 14.01,-15.29 17.25,-14.67 20.48,-14.04 20.58,-14.01 20.68,-13.98 20.76,-13.91 20.85,-13.85 20.91,-13.76 20.97,-13.67 21.00,-13.57 21.03,-13.47 21.02,-13.36 21.02,-13.26 20.98,-13.16 20.94,-13.06 20.87,-12.98 20.80,-12.90 20.71,-12.84 20.62,-12.79 20.52,-12.76 20.41,-12.74 20.31,-12.75 20.20,-12.76 20.11,-12.81 20.01,-12.85 19.93,-12.92 19.85,-13.00 19.80,-13.09 19.75,-13.18 19.74,-13.29 19.72,-13.39 19.73,-13.50 19.75,-13.60 19.80,-13.70 19.85,-13.79 19.93,-13.86 20.00,-13.94 20.10,-13.98 20.20,-14.03 20.30,-14.04 20.41,-14.05 20.51,-14.03 20.61,-14.01 20.71,-13.95 20.80,-13.90 20.87,-13.82 20.94,-13.74 20.97,-13.64 21.01,-13.54 21.02,-13.43 21.03,-13.33 21.00,-13.22 20.97,-13.12 20.91,-13.03 20.85,-12.95 20.77,-12.88 20.68,-12.82 20.58,-12.78 20.48,-12.75 20.38,-12.75 20.27,-12.75 20.27,-12.75 20.27,-12.75 17.22,-13.12 14.17,-13.49 11.72,-13.12 9.27,-12.75 7.27,-11.97 5.27,-11.18 3.75,-10.18 2.22,-9.17 1.60,-8.03 0.97,-6.88 1.00,-5.19 1.03,-3.49 1.00,-1.78 0.98,-0.07 0.98,0.04 0.97,0.16 0.94,0.27 0.90,0.39 0.84,0.49 0.78,0.59 0.70,0.68 0.62,0.76 0.51,0.83 0.41,0.89 0.30,0.93 0.19,0.97 0.07,0.97 -0.04,0.98 -0.16,0.96 -0.28,0.94 -0.39,0.90 -0.49,0.85 -0.59,0.78 -0.68,0.70 -0.76,0.61 -0.83,0.52 -0.88,0.41 -0.93,0.30 -0.96,0.19 -0.98,0.07 -0.98,0.07 L -0.98,0.07 Z"></path></g><g transform="translate(431.6827629387292 58.20502911188623) rotate(0 21.310646444692395 -15.494407597392865)" stroke="none"><path fill="#1e1e1e" d="M -0.74,-0.53 Q -0.74,-0.53 0.11,-2.06 0.97,-3.59 2.69,-5.43 4.41,-7.28 6.61,-9.48 8.82,-11.68 11.18,-14.13 13.55,-16.57 15.45,-18.79 17.35,-21.00 18.88,-23.37 20.41,-25.74 21.22,-27.30 22.03,-28.85 22.30,-29.64 22.57,-30.43 22.66,-30.56 22.75,-30.69 22.87,-30.79 22.99,-30.90 23.13,-30.97 23.27,-31.05 23.42,-31.09 23.58,-31.12 23.74,-31.12 23.89,-31.12 24.05,-31.09 24.20,-31.05 24.34,-30.97 24.48,-30.90 24.60,-30.80 24.72,-30.69 24.81,-30.56 24.90,-30.43 24.96,-30.28 25.02,-30.13 25.04,-29.97 25.05,-29.82 25.04,-29.66 25.02,-29.50 24.96,-29.35 24.90,-29.20 24.02,-29.09 23.13,-28.97 22.59,-28.26 22.04,-27.56 20.68,-25.86 19.32,-24.15 17.96,-21.83 16.59,-19.51 15.68,-17.14 14.77,-14.78 14.48,-12.71 14.19,-10.65 14.91,-9.32 15.64,-7.99 17.48,-7.11 19.33,-6.22 22.36,-5.63 25.40,-5.03 29.42,-4.34 33.44,-3.65 36.10,-3.14 38.75,-2.63 40.73,-2.34 42.70,-2.04 42.80,-2.01 42.90,-1.98 42.99,-1.92 43.08,-1.86 43.14,-1.77 43.20,-1.69 43.23,-1.59 43.27,-1.49 43.26,-1.38 43.26,-1.27 43.23,-1.17 43.19,-1.07 43.13,-0.99 43.06,-0.91 42.97,-0.85 42.88,-0.79 42.78,-0.76 42.68,-0.74 42.57,-0.74 42.46,-0.75 42.37,-0.79 42.27,-0.83 42.19,-0.90 42.11,-0.97 42.06,-1.07 42.00,-1.16 41.98,-1.26 41.96,-1.37 41.97,-1.47 41.99,-1.58 42.03,-1.67 42.08,-1.77 42.15,-1.84 42.23,-1.92 42.32,-1.97 42.42,-2.02 42.52,-2.03 42.63,-2.05 42.73,-2.03 42.84,-2.01 42.93,-1.96 43.02,-1.91 43.09,-1.83 43.17,-1.75 43.21,-1.65 43.25,-1.56 43.26,-1.45 43.27,-1.34 43.25,-1.24 43.22,-1.14 43.17,-1.05 43.11,-0.96 43.03,-0.89 42.94,-0.82 42.85,-0.79 42.75,-0.75 42.64,-0.74 42.53,-0.74 42.53,-0.74 42.53,-0.74 40.55,-0.94 38.57,-1.15 35.87,-1.32 33.17,-1.48 28.99,-1.83 24.81,-2.18 21.38,-2.92 17.95,-3.67 15.62,-5.11 13.29,-6.55 12.40,-8.67 11.51,-10.79 11.89,-13.27 12.28,-15.75 13.31,-18.30 14.34,-20.85 15.83,-23.30 17.33,-25.75 18.82,-27.60 20.32,-29.45 21.44,-29.94 22.57,-30.43 22.66,-30.56 22.75,-30.69 22.87,-30.79 22.99,-30.90 23.13,-30.97 23.27,-31.05 23.42,-31.09 23.58,-31.12 23.74,-31.12 23.89,-31.12 24.05,-31.09 24.20,-31.05 24.34,-30.97 24.48,-30.90 24.60,-30.80 24.72,-30.69 24.81,-30.56 24.90,-30.43 24.96,-30.28 25.02,-30.13 25.04,-29.97 25.05,-29.82 25.04,-29.66 25.02,-29.50 24.96,-29.35 24.90,-29.20 24.66,-28.41 24.41,-27.62 23.53,-25.95 22.66,-24.28 21.02,-21.77 19.38,-19.26 17.43,-16.99 15.47,-14.71 13.09,-12.25 10.70,-9.78 8.52,-7.62 6.33,-5.46 4.71,-3.76 3.08,-2.07 1.91,-0.76 0.74,0.53 0.67,0.61 0.59,0.70 0.50,0.76 0.41,0.82 0.30,0.86 0.20,0.89 0.09,0.91 -0.01,0.92 -0.12,0.90 -0.23,0.89 -0.33,0.84 -0.44,0.80 -0.53,0.74 -0.62,0.67 -0.69,0.59 -0.76,0.51 -0.81,0.41 -0.86,0.31 -0.89,0.20 -0.91,0.09 -0.91,-0.01 -0.91,-0.12 -0.88,-0.23 -0.85,-0.34 -0.80,-0.43 -0.74,-0.53 -0.74,-0.53 L -0.74,-0.53 Z"></path></g></svg>