<svg version="1.1" xmlns="http://www.w3.org/2000/svg" viewBox="0 0 283.95372772216797 76.72599792480469" width="283.95372772216797" height="76.72599792480469" class="excalidraw-svg"><!-- svg-source:excalidraw --><metadata></metadata><defs><style class="style-fonts">
      </style></defs><rect x="0" y="0" width="283.95372772216797" height="76.72599792480469" fill="#ffffff"></rect><g transform="translate(26.03124237060547 29.114395141601562) rotate(0 -0.560546875 9.837074279785156)" stroke="none"><path fill="#1e1e1e" d="M -1.13,0.31 Q -1.13,0.31 -1.53,-0.76 -1.93,-1.83 -2.10,-2.37 -2.26,-2.91 -2.36,-3.17 -2.45,-3.42 -2.48,-3.60 -2.50,-3.78 -2.49,-3.95 -2.47,-4.13 -2.41,-4.30 -2.35,-4.47 -2.25,-4.62 -2.16,-4.77 -2.02,-4.89 -1.89,-5.01 -1.74,-5.10 -1.58,-5.18 -1.41,-5.23 -1.24,-5.28 -1.06,-5.28 -0.88,-5.29 -0.71,-5.25 -0.53,-5.21 -0.37,-5.13 -0.21,-5.05 -0.07,-4.93 0.05,-4.82 0.16,-4.67 0.26,-4.53 0.33,-4.36 0.40,-4.20 0.45,-3.24 0.51,-2.29 0.64,-0.91 0.77,0.46 0.82,2.44 0.88,4.43 0.81,6.72 0.73,9.02 0.65,11.25 0.56,13.48 0.42,15.49 0.29,17.50 0.09,19.13 -0.11,20.77 -0.26,22.33 -0.40,23.90 -0.43,24.00 -0.45,24.11 -0.50,24.20 -0.55,24.29 -0.63,24.36 -0.71,24.43 -0.81,24.47 -0.91,24.51 -1.02,24.52 -1.12,24.53 -1.23,24.50 -1.33,24.47 -1.42,24.41 -1.51,24.36 -1.57,24.27 -1.64,24.19 -1.67,24.09 -1.71,23.99 -1.71,23.88 -1.71,23.78 -1.68,23.67 -1.64,23.57 -1.58,23.49 -1.52,23.40 -1.43,23.34 -1.34,23.28 -1.24,23.25 -1.14,23.22 -1.03,23.23 -0.93,23.23 -0.83,23.27 -0.73,23.31 -0.65,23.37 -0.56,23.44 -0.51,23.53 -0.45,23.62 -0.43,23.73 -0.40,23.83 -0.41,23.94 -0.42,24.04 -0.47,24.14 -0.51,24.24 -0.58,24.31 -0.66,24.39 -0.75,24.44 -0.84,24.49 -0.95,24.51 -1.05,24.53 -1.16,24.51 -1.26,24.50 -1.36,24.45 -1.45,24.40 -1.52,24.32 -1.60,24.25 -1.64,24.15 -1.69,24.06 -1.70,23.95 -1.72,23.85 -1.72,23.85 -1.72,23.85 -1.73,22.30 -1.75,20.76 -1.94,19.11 -2.12,17.47 -2.20,15.43 -2.28,13.40 -2.24,11.16 -2.20,8.93 -2.13,6.72 -2.06,4.51 -2.11,2.63 -2.17,0.74 -2.30,-0.65 -2.44,-2.05 -2.45,-2.74 -2.45,-3.42 -2.48,-3.60 -2.50,-3.78 -2.49,-3.95 -2.47,-4.13 -2.41,-4.30 -2.35,-4.47 -2.25,-4.62 -2.16,-4.77 -2.02,-4.89 -1.89,-5.01 -1.74,-5.10 -1.58,-5.18 -1.41,-5.23 -1.24,-5.28 -1.06,-5.28 -0.88,-5.29 -0.71,-5.25 -0.53,-5.21 -0.37,-5.13 -0.21,-5.05 -0.07,-4.93 0.05,-4.82 0.16,-4.67 0.26,-4.53 0.33,-4.36 0.40,-4.20 0.43,-3.93 0.46,-3.66 0.59,-3.11 0.72,-2.57 0.93,-1.44 1.13,-0.31 1.16,-0.17 1.18,-0.03 1.16,0.10 1.15,0.25 1.10,0.38 1.06,0.52 0.98,0.64 0.90,0.75 0.80,0.85 0.69,0.95 0.57,1.02 0.44,1.09 0.31,1.13 0.17,1.16 0.03,1.17 -0.11,1.17 -0.24,1.14 -0.38,1.11 -0.51,1.05 -0.64,0.99 -0.75,0.89 -0.86,0.80 -0.94,0.69 -1.03,0.57 -1.08,0.44 -1.13,0.31 -1.13,0.31 L -1.13,0.31 Z"></path></g><g transform="translate(11.457588195800781 31.692520141601562) rotate(0 15.134204864501953 2.5521774291992188)" stroke="none"><path fill="#1e1e1e" d="M -1.23,0.40 Q -1.23,0.40 -1.63,-0.52 -2.02,-1.46 -2.30,-2.54 -2.57,-3.61 -2.61,-4.71 -2.65,-5.80 -2.16,-6.99 -1.67,-8.17 -0.18,-9.45 1.30,-10.73 3.51,-11.67 5.72,-12.62 9.28,-13.18 12.85,-13.74 16.27,-13.49 19.68,-13.23 22.56,-12.09 25.45,-10.94 27.52,-9.08 29.60,-7.23 30.67,-4.90 31.75,-2.57 31.61,-0.00 31.47,2.56 30.31,4.99 29.15,7.42 27.36,9.43 25.57,11.44 23.67,12.91 21.77,14.39 19.95,15.40 18.13,16.41 16.42,17.22 14.71,18.04 11.63,18.23 8.54,18.42 8.44,18.41 8.33,18.39 8.23,18.35 8.14,18.30 8.06,18.23 7.99,18.15 7.94,18.06 7.89,17.96 7.87,17.86 7.86,17.75 7.88,17.65 7.90,17.54 7.95,17.45 8.00,17.36 8.08,17.29 8.16,17.21 8.25,17.17 8.35,17.13 8.46,17.12 8.56,17.11 8.66,17.13 8.77,17.16 8.86,17.21 8.95,17.27 9.02,17.35 9.08,17.43 9.12,17.53 9.16,17.63 9.16,17.74 9.17,17.85 9.14,17.95 9.11,18.05 9.05,18.14 8.98,18.22 8.90,18.29 8.81,18.35 8.71,18.38 8.61,18.41 8.50,18.41 8.40,18.41 8.30,18.37 8.20,18.34 8.11,18.27 8.03,18.21 7.97,18.12 7.91,18.03 7.89,17.93 7.86,17.82 7.87,17.72 7.88,17.61 7.92,17.51 7.96,17.42 8.03,17.34 8.10,17.26 8.19,17.20 8.28,17.15 8.39,17.13 8.49,17.11 8.49,17.11 8.49,17.11 10.97,16.26 13.44,15.41 15.07,14.61 16.70,13.80 18.34,12.91 19.97,12.02 21.68,10.74 23.39,9.45 24.96,7.76 26.53,6.07 27.53,4.16 28.53,2.24 28.76,0.35 28.99,-1.54 28.24,-3.31 27.49,-5.08 25.87,-6.61 24.24,-8.15 21.82,-9.16 19.39,-10.17 16.35,-10.44 13.30,-10.71 10.10,-10.22 6.89,-9.73 5.05,-9.00 3.22,-8.26 2.12,-7.49 1.02,-6.71 0.69,-6.21 0.35,-5.71 0.35,-4.99 0.35,-4.28 0.55,-3.33 0.75,-2.38 0.99,-1.39 1.23,-0.40 1.26,-0.25 1.29,-0.10 1.29,0.05 1.28,0.21 1.23,0.36 1.19,0.51 1.11,0.64 1.03,0.78 0.92,0.89 0.82,1.00 0.68,1.09 0.55,1.17 0.40,1.22 0.25,1.27 0.10,1.28 -0.05,1.29 -0.20,1.27 -0.36,1.24 -0.50,1.18 -0.65,1.12 -0.77,1.03 -0.90,0.93 -1.00,0.81 -1.10,0.69 -1.16,0.55 -1.23,0.40 -1.23,0.40 L -1.23,0.40 Z"></path></g><g transform="translate(47.331459045410156 45.42578125) rotate(0 3.5784072875976562 -3.9684600830078125)" stroke="none"><path fill="#1e1e1e" d="M -0.64,-1.08 Q -0.64,-1.08 -0.17,-1.46 0.30,-1.85 1.17,-2.58 2.03,-3.32 2.92,-4.24 3.81,-5.16 4.44,-6.13 5.07,-7.09 5.34,-7.86 5.62,-8.64 5.55,-9.28 5.48,-9.92 4.96,-9.71 4.43,-9.50 3.62,-8.96 2.80,-8.42 1.86,-7.52 0.92,-6.63 0.36,-5.58 -0.19,-4.54 -0.43,-3.45 -0.66,-2.35 -0.40,-1.55 -0.14,-0.75 0.52,-0.12 1.20,0.51 2.33,1.07 3.46,1.63 4.92,1.62 6.37,1.61 7.92,1.54 9.47,1.47 9.58,1.48 9.68,1.49 9.78,1.53 9.88,1.57 9.96,1.64 10.03,1.71 10.09,1.80 10.14,1.90 10.16,2.00 10.18,2.11 10.17,2.21 10.15,2.32 10.11,2.41 10.06,2.51 9.98,2.58 9.91,2.66 9.81,2.70 9.72,2.75 9.61,2.77 9.51,2.78 9.40,2.76 9.30,2.74 9.21,2.69 9.11,2.64 9.04,2.56 8.97,2.48 8.93,2.38 8.89,2.28 8.88,2.18 8.87,2.07 8.89,1.97 8.92,1.87 8.98,1.78 9.03,1.69 9.12,1.62 9.20,1.55 9.30,1.52 9.40,1.48 9.51,1.48 9.61,1.47 9.71,1.51 9.81,1.54 9.90,1.60 9.99,1.66 10.05,1.75 10.11,1.83 10.14,1.93 10.17,2.04 10.17,2.14 10.17,2.25 10.13,2.35 10.10,2.45 10.03,2.53 9.96,2.61 9.87,2.67 9.78,2.73 9.68,2.75 9.58,2.78 9.58,2.78 9.58,2.78 8.00,2.97 6.43,3.17 4.62,3.29 2.81,3.41 1.18,2.83 -0.44,2.26 -1.50,1.15 -2.57,0.05 -2.88,-1.37 -3.18,-2.80 -2.81,-4.30 -2.44,-5.80 -1.63,-7.13 -0.82,-8.47 0.33,-9.51 1.50,-10.56 2.73,-11.25 3.96,-11.94 4.98,-12.04 6.00,-12.14 6.71,-11.73 7.43,-11.32 7.78,-10.54 8.14,-9.76 8.12,-8.79 8.10,-7.83 7.73,-6.74 7.36,-5.65 6.60,-4.44 5.85,-3.23 4.86,-2.18 3.87,-1.13 2.83,-0.26 1.78,0.59 1.21,0.84 0.64,1.08 0.51,1.14 0.37,1.20 0.22,1.23 0.07,1.26 -0.08,1.25 -0.23,1.24 -0.37,1.19 -0.52,1.15 -0.65,1.07 -0.78,0.99 -0.89,0.88 -0.99,0.77 -1.07,0.64 -1.15,0.51 -1.20,0.36 -1.24,0.22 -1.25,0.07 -1.26,-0.08 -1.23,-0.23 -1.20,-0.38 -1.14,-0.52 -1.07,-0.65 -0.98,-0.77 -0.89,-0.89 -0.77,-0.99 -0.64,-1.08 -0.64,-1.08 L -0.64,-1.08 Z"></path></g><g transform="translate(70.31307220458984 27.824798583984375) rotate(0 -0.239410400390625 14.462028503417969)" stroke="none"><path fill="#1e1e1e" d="M -0.95,0.01 Q -0.95,0.01 -1.08,-1.12 -1.21,-2.25 -1.54,-3.24 -1.86,-4.24 -2.34,-5.23 -2.82,-6.23 -3.38,-6.86 -3.94,-7.49 -4.44,-7.74 -4.93,-8.00 -5.69,-7.52 -6.45,-7.04 -6.76,-6.04 -7.07,-5.04 -7.22,-3.35 -7.38,-1.66 -7.18,0.67 -6.98,3.01 -6.49,6.01 -6.01,9.01 -5.53,12.33 -5.06,15.65 -4.55,18.91 -4.04,22.18 -3.61,25.19 -3.19,28.20 -3.12,30.61 -3.05,33.02 -3.32,34.70 -3.59,36.39 -4.63,37.64 -5.68,38.88 -6.24,38.59 -6.81,38.30 -7.26,37.06 -7.71,35.82 -7.81,34.10 -7.91,32.39 -7.72,30.54 -7.53,28.69 -7.10,27.01 -6.66,25.32 -6.11,23.82 -5.55,22.31 -4.84,20.99 -4.14,19.68 -3.18,18.45 -2.23,17.23 -1.01,16.12 0.19,15.01 1.64,14.19 3.08,13.38 5.82,12.65 8.56,11.92 8.67,11.91 8.77,11.90 8.88,11.92 8.98,11.94 9.07,11.99 9.16,12.05 9.23,12.13 9.30,12.21 9.34,12.31 9.38,12.41 9.39,12.51 9.39,12.62 9.36,12.72 9.34,12.82 9.28,12.91 9.22,13.00 9.13,13.07 9.05,13.13 8.95,13.16 8.85,13.20 8.74,13.20 8.64,13.20 8.54,13.17 8.44,13.13 8.35,13.07 8.27,13.01 8.21,12.92 8.15,12.83 8.12,12.73 8.09,12.63 8.09,12.52 8.10,12.41 8.14,12.31 8.17,12.22 8.24,12.13 8.31,12.05 8.40,12.00 8.49,11.94 8.60,11.92 8.70,11.90 8.81,11.91 8.91,11.92 9.01,11.96 9.10,12.01 9.18,12.08 9.26,12.15 9.31,12.24 9.36,12.34 9.38,12.44 9.40,12.55 9.38,12.65 9.36,12.76 9.31,12.85 9.26,12.95 9.19,13.02 9.11,13.09 9.01,13.14 8.92,13.18 8.92,13.18 8.92,13.18 6.57,14.15 4.22,15.11 3.09,16.02 1.95,16.92 0.90,17.91 -0.14,18.89 -0.98,19.94 -1.82,20.98 -2.49,22.13 -3.16,23.29 -3.77,24.65 -4.38,26.01 -4.91,27.50 -5.44,29.00 -5.76,30.64 -6.07,32.29 -5.99,33.78 -5.91,35.27 -5.65,35.94 -5.38,36.61 -5.84,36.30 -6.30,36.00 -6.13,34.56 -5.96,33.12 -6.06,30.87 -6.16,28.62 -6.58,25.63 -7.01,22.64 -7.53,19.36 -8.04,16.07 -8.51,12.78 -8.97,9.49 -9.47,6.37 -9.97,3.25 -10.16,0.63 -10.35,-1.98 -10.10,-4.06 -9.84,-6.14 -9.12,-7.69 -8.39,-9.25 -7.27,-9.97 -6.15,-10.70 -4.90,-10.65 -3.64,-10.61 -2.66,-9.96 -1.67,-9.31 -0.99,-8.31 -0.32,-7.32 0.13,-6.10 0.59,-4.89 0.87,-3.60 1.15,-2.30 1.05,-1.16 0.95,-0.01 0.94,0.10 0.93,0.21 0.89,0.32 0.85,0.43 0.78,0.52 0.72,0.62 0.64,0.70 0.55,0.77 0.45,0.83 0.35,0.88 0.24,0.91 0.12,0.94 0.01,0.95 -0.10,0.95 -0.21,0.92 -0.32,0.89 -0.42,0.84 -0.53,0.79 -0.61,0.72 -0.70,0.64 -0.77,0.55 -0.84,0.45 -0.88,0.35 -0.92,0.24 -0.94,0.12 -0.95,0.01 -0.95,0.01 L -0.95,0.01 Z"></path></g><g transform="translate(87.12889862060547 42.28684997558594) rotate(0 23.178024291992188 -9.402641296386719)" stroke="none"><path fill="#1e1e1e" d="M -0.84,0.07 Q -0.84,0.07 -1.04,-0.85 -1.24,-1.78 -1.57,-2.28 -1.89,-2.79 -2.37,-3.04 -2.84,-3.30 -3.48,-3.44 -4.11,-3.59 -4.66,-3.59 -5.21,-3.59 -5.91,-2.90 -6.60,-2.22 -6.82,-1.57 -7.03,-0.93 -7.11,-0.21 -7.19,0.50 -6.63,1.24 -6.07,1.98 -5.58,2.20 -5.09,2.41 -4.09,2.31 -3.08,2.21 -2.43,1.77 -1.77,1.32 -1.19,0.51 -0.61,-0.30 -0.11,-1.22 0.39,-2.14 0.77,-2.98 1.15,-3.81 1.36,-4.33 1.56,-4.85 1.66,-5.08 1.75,-5.31 1.83,-5.44 1.91,-5.58 2.01,-5.69 2.12,-5.80 2.25,-5.88 2.38,-5.97 2.52,-6.02 2.67,-6.07 2.82,-6.08 2.98,-6.10 3.13,-6.07 3.28,-6.05 3.43,-5.99 3.57,-5.93 3.69,-5.84 3.82,-5.75 3.91,-5.63 4.01,-5.51 4.08,-5.37 4.15,-5.23 4.18,-5.08 4.21,-4.93 4.21,-4.77 4.20,-4.62 4.16,-4.47 4.12,-4.32 3.97,-3.70 3.83,-3.07 3.72,-2.40 3.61,-1.74 3.67,-1.09 3.72,-0.45 4.40,0.18 5.07,0.82 5.68,0.99 6.29,1.16 7.02,1.26 7.75,1.36 8.41,1.23 9.07,1.09 9.54,0.70 10.00,0.32 10.24,-0.22 10.48,-0.78 10.56,-1.55 10.63,-2.33 10.63,-3.26 10.63,-4.19 10.56,-4.84 10.48,-5.50 11.03,-5.54 11.58,-5.58 11.82,-4.91 12.07,-4.25 12.04,-3.45 12.00,-2.66 12.09,-1.88 12.18,-1.10 12.49,-0.57 12.80,-0.03 13.32,0.25 13.84,0.54 14.43,0.68 15.02,0.82 15.80,0.82 16.59,0.81 17.33,0.52 18.07,0.22 18.77,-0.34 19.47,-0.92 20.04,-1.59 20.61,-2.27 20.91,-2.91 21.21,-3.54 21.46,-4.27 21.71,-5.00 21.78,-5.14 21.85,-5.28 21.95,-5.40 22.04,-5.52 22.17,-5.61 22.29,-5.70 22.43,-5.75 22.58,-5.81 22.73,-5.84 22.88,-5.86 23.03,-5.84 23.18,-5.83 23.33,-5.78 23.47,-5.73 23.60,-5.65 23.73,-5.56 23.84,-5.45 23.94,-5.34 24.02,-5.21 24.09,-5.07 24.13,-4.92 24.17,-4.78 24.18,-4.62 24.18,-4.47 24.15,-4.32 24.12,-4.17 24.26,-3.45 24.41,-2.73 24.55,-2.11 24.69,-1.49 25.51,-0.73 26.33,0.03 27.09,0.16 27.84,0.30 28.68,0.24 29.51,0.19 30.38,-0.21 31.25,-0.62 32.18,-1.40 33.11,-2.19 33.87,-3.32 34.62,-4.45 35.20,-5.98 35.77,-7.52 36.18,-9.37 36.59,-11.23 36.87,-13.20 37.14,-15.17 37.27,-16.91 37.39,-18.64 37.43,-19.66 37.47,-20.67 37.50,-21.18 37.53,-21.69 37.56,-21.86 37.59,-22.03 37.66,-22.18 37.73,-22.34 37.84,-22.47 37.94,-22.60 38.07,-22.71 38.21,-22.81 38.36,-22.88 38.52,-22.95 38.68,-22.98 38.85,-23.01 39.02,-23.00 39.19,-22.99 39.35,-22.94 39.51,-22.89 39.65,-22.80 39.80,-22.72 39.92,-22.60 40.04,-22.48 40.13,-22.33 40.21,-22.19 40.26,-22.03 40.32,-21.86 40.33,-21.70 40.34,-21.53 40.29,-20.83 40.25,-20.14 40.18,-18.96 40.12,-17.78 40.10,-16.30 40.07,-14.83 40.14,-13.22 40.20,-11.61 40.58,-10.15 40.96,-8.68 41.66,-7.53 42.35,-6.38 43.26,-5.49 44.17,-4.61 44.99,-4.21 45.81,-3.81 46.36,-3.89 46.91,-3.98 47.44,-4.54 47.96,-5.10 48.57,-6.24 49.17,-7.37 49.58,-8.97 49.98,-10.58 50.20,-12.56 50.41,-14.54 50.57,-16.51 50.72,-18.47 50.84,-19.80 50.97,-21.12 51.03,-21.71 51.10,-22.30 51.14,-22.47 51.19,-22.64 51.27,-22.80 51.35,-22.96 51.47,-23.09 51.59,-23.22 51.74,-23.32 51.89,-23.42 52.05,-23.48 52.22,-23.55 52.40,-23.57 52.57,-23.59 52.75,-23.57 52.93,-23.54 53.09,-23.48 53.26,-23.41 53.40,-23.31 53.55,-23.21 53.67,-23.08 53.78,-22.94 53.87,-22.78 53.95,-22.63 53.99,-22.45 54.03,-22.28 54.03,-22.10 54.03,-21.92 53.91,-21.08 53.78,-20.24 53.67,-19.08 53.56,-17.93 53.51,-16.52 53.47,-15.11 53.57,-13.74 53.67,-12.38 53.91,-11.10 54.15,-9.81 54.42,-8.61 54.69,-7.40 55.22,-5.85 55.75,-4.29 55.78,-4.19 55.81,-4.08 55.80,-3.98 55.79,-3.87 55.75,-3.77 55.70,-3.68 55.63,-3.60 55.56,-3.52 55.47,-3.47 55.38,-3.41 55.27,-3.39 55.17,-3.37 55.06,-3.39 54.96,-3.40 54.86,-3.45 54.77,-3.50 54.69,-3.57 54.62,-3.65 54.57,-3.74 54.52,-3.84 54.51,-3.94 54.49,-4.05 54.51,-4.15 54.54,-4.26 54.59,-4.35 54.64,-4.44 54.72,-4.51 54.80,-4.58 54.90,-4.63 54.99,-4.67 55.10,-4.68 55.21,-4.69 55.31,-4.66 55.41,-4.63 55.50,-4.58 55.59,-4.52 55.66,-4.44 55.72,-4.35 55.76,-4.25 55.80,-4.15 55.80,-4.05 55.80,-3.94 55.77,-3.84 55.74,-3.74 55.68,-3.65 55.61,-3.57 55.53,-3.50 55.44,-3.44 55.34,-3.41 55.24,-3.38 55.13,-3.38 55.03,-3.39 54.93,-3.42 54.83,-3.46 54.74,-3.53 54.66,-3.59 54.60,-3.68 54.55,-3.77 54.55,-3.77 54.55,-3.77 53.78,-5.24 53.02,-6.72 52.28,-7.95 51.55,-9.19 51.13,-10.67 50.71,-12.16 50.60,-13.68 50.48,-15.21 50.54,-16.72 50.59,-18.22 50.72,-19.47 50.84,-20.72 50.97,-21.51 51.10,-22.30 51.14,-22.47 51.19,-22.64 51.27,-22.80 51.35,-22.96 51.47,-23.09 51.59,-23.22 51.74,-23.32 51.89,-23.42 52.05,-23.48 52.22,-23.55 52.40,-23.57 52.57,-23.59 52.75,-23.57 52.93,-23.54 53.09,-23.48 53.26,-23.41 53.40,-23.31 53.55,-23.21 53.67,-23.08 53.78,-22.94 53.87,-22.79 53.95,-22.63 53.99,-22.45 54.03,-22.28 54.03,-22.10 54.03,-21.92 53.93,-21.34 53.84,-20.76 53.63,-19.49 53.42,-18.22 53.20,-16.23 52.99,-14.25 52.73,-12.08 52.47,-9.92 51.95,-8.02 51.43,-6.13 50.57,-4.65 49.71,-3.16 48.56,-2.29 47.42,-1.42 46.10,-1.36 44.79,-1.31 43.51,-1.95 42.24,-2.59 41.07,-3.76 39.91,-4.92 39.05,-6.45 38.19,-7.97 37.78,-9.73 37.36,-11.49 37.30,-13.19 37.24,-14.88 37.27,-16.41 37.31,-17.94 37.38,-19.13 37.44,-20.32 37.49,-21.01 37.53,-21.69 37.56,-21.86 37.59,-22.03 37.66,-22.18 37.73,-22.33 37.84,-22.47 37.94,-22.60 38.07,-22.71 38.21,-22.81 38.36,-22.88 38.51,-22.95 38.68,-22.98 38.85,-23.01 39.02,-23.00 39.19,-22.99 39.35,-22.94 39.51,-22.89 39.65,-22.80 39.80,-22.72 39.92,-22.60 40.04,-22.48 40.13,-22.33 40.21,-22.19 40.26,-22.03 40.32,-21.86 40.33,-21.70 40.34,-21.53 40.29,-21.01 40.24,-20.49 40.14,-19.45 40.05,-18.41 39.86,-16.61 39.66,-14.81 39.36,-12.74 39.06,-10.68 38.60,-8.64 38.13,-6.60 37.41,-4.81 36.70,-3.02 35.70,-1.64 34.71,-0.27 33.49,0.69 32.26,1.65 30.97,2.18 29.68,2.71 28.47,2.74 27.26,2.78 26.05,2.43 24.85,2.08 24.05,1.42 23.26,0.76 22.75,-0.06 22.24,-0.88 22.07,-1.67 21.90,-2.45 21.95,-3.15 22.00,-3.85 21.85,-4.43 21.71,-5.00 21.78,-5.14 21.85,-5.28 21.95,-5.40 22.04,-5.52 22.17,-5.61 22.29,-5.70 22.43,-5.75 22.57,-5.81 22.73,-5.84 22.88,-5.86 23.03,-5.84 23.18,-5.83 23.33,-5.78 23.47,-5.73 23.60,-5.65 23.73,-5.56 23.84,-5.45 23.94,-5.34 24.02,-5.21 24.09,-5.07 24.13,-4.92 24.17,-4.78 24.18,-4.62 24.18,-4.47 24.15,-4.32 24.12,-4.17 24.04,-3.90 23.97,-3.63 23.76,-3.00 23.54,-2.38 23.08,-1.49 22.61,-0.60 21.86,0.27 21.12,1.14 20.08,1.94 19.04,2.74 17.82,3.17 16.59,3.59 15.41,3.54 14.23,3.50 13.23,3.15 12.23,2.80 11.33,2.05 10.43,1.29 9.96,0.26 9.49,-0.76 9.40,-1.78 9.31,-2.79 9.36,-3.70 9.42,-4.61 9.55,-5.49 9.68,-6.37 10.53,-7.17 11.37,-7.97 12.16,-6.74 12.95,-5.52 12.89,-4.78 12.82,-4.04 12.70,-3.02 12.57,-2.00 12.35,-0.99 12.12,0.02 11.65,0.86 11.19,1.70 10.40,2.31 9.61,2.92 8.64,3.20 7.67,3.48 6.64,3.49 5.61,3.49 4.58,3.17 3.56,2.85 2.80,2.20 2.04,1.55 1.62,0.68 1.21,-0.18 1.15,-1.16 1.10,-2.13 1.22,-2.88 1.34,-3.63 1.55,-4.47 1.75,-5.31 1.83,-5.44 1.91,-5.58 2.01,-5.69 2.12,-5.80 2.25,-5.88 2.38,-5.97 2.52,-6.02 2.67,-6.07 2.82,-6.08 2.98,-6.10 3.13,-6.07 3.28,-6.05 3.43,-5.99 3.57,-5.93 3.69,-5.84 3.82,-5.75 3.91,-5.63 4.01,-5.51 4.08,-5.37 4.15,-5.23 4.18,-5.08 4.21,-4.93 4.21,-4.77 4.20,-4.62 4.16,-4.47 4.12,-4.32 4.02,-4.09 3.93,-3.86 3.68,-3.30 3.43,-2.73 2.99,-1.84 2.55,-0.94 1.95,0.11 1.34,1.18 0.49,2.26 -0.36,3.34 -1.36,4.00 -2.36,4.66 -3.39,4.92 -4.41,5.18 -5.37,5.03 -6.32,4.87 -7.20,4.38 -8.08,3.88 -8.73,3.07 -9.39,2.26 -9.64,1.26 -9.89,0.25 -9.72,-0.84 -9.56,-1.94 -9.10,-2.95 -8.64,-3.97 -7.89,-4.72 -7.14,-5.48 -6.18,-5.84 -5.22,-6.20 -4.28,-6.13 -3.34,-6.06 -2.36,-5.68 -1.37,-5.30 -0.60,-4.61 0.16,-3.91 0.54,-2.96 0.92,-2.02 0.88,-1.04 0.84,-0.07 0.83,0.03 0.83,0.13 0.80,0.22 0.77,0.32 0.72,0.41 0.67,0.50 0.60,0.57 0.53,0.65 0.45,0.70 0.36,0.76 0.26,0.79 0.17,0.82 0.07,0.83 -0.03,0.84 -0.13,0.82 -0.23,0.81 -0.32,0.77 -0.41,0.73 -0.50,0.67 -0.58,0.61 -0.64,0.53 -0.71,0.45 -0.75,0.36 -0.79,0.27 -0.82,0.17 -0.84,0.07 -0.84,0.07 L -0.84,0.07 Z"></path></g><g transform="translate(130.90624237060547 33.20591735839844) rotate(0 10.734100341796875 -2.0739288330078125)" stroke="none"><path fill="#1e1e1e" d="M -0.96,-0.85 Q -0.96,-0.85 -0.36,-1.68 0.22,-2.51 2.06,-3.17 3.89,-3.82 6.30,-4.18 8.70,-4.55 11.55,-4.66 14.41,-4.76 17.91,-4.78 21.41,-4.80 21.52,-4.79 21.62,-4.78 21.72,-4.74 21.82,-4.69 21.90,-4.62 21.98,-4.55 22.03,-4.46 22.08,-4.37 22.10,-4.26 22.12,-4.16 22.10,-4.05 22.09,-3.95 22.04,-3.85 21.99,-3.76 21.92,-3.68 21.84,-3.61 21.75,-3.56 21.65,-3.51 21.55,-3.50 21.44,-3.49 21.34,-3.51 21.23,-3.53 21.14,-3.58 21.05,-3.63 20.98,-3.71 20.91,-3.79 20.87,-3.89 20.83,-3.99 20.82,-4.09 20.81,-4.20 20.84,-4.30 20.86,-4.41 20.92,-4.49 20.98,-4.58 21.06,-4.65 21.14,-4.72 21.24,-4.75 21.34,-4.79 21.45,-4.79 21.55,-4.79 21.66,-4.76 21.76,-4.73 21.84,-4.67 21.93,-4.60 21.99,-4.52 22.05,-4.43 22.08,-4.33 22.11,-4.23 22.11,-4.12 22.11,-4.02 22.07,-3.92 22.03,-3.82 21.97,-3.73 21.90,-3.65 21.81,-3.60 21.72,-3.54 21.62,-3.51 21.51,-3.49 21.51,-3.49 21.51,-3.49 18.07,-2.97 14.63,-2.45 11.90,-2.01 9.16,-1.57 6.97,-1.22 4.77,-0.88 3.54,-0.62 2.30,-0.35 1.63,0.24 0.96,0.85 0.84,0.95 0.72,1.05 0.59,1.12 0.45,1.19 0.30,1.23 0.15,1.27 0.00,1.27 -0.15,1.27 -0.30,1.23 -0.45,1.20 -0.59,1.12 -0.72,1.05 -0.84,0.95 -0.95,0.85 -1.04,0.72 -1.13,0.59 -1.19,0.45 -1.24,0.30 -1.26,0.15 -1.28,0.00 -1.26,-0.15 -1.24,-0.30 -1.19,-0.45 -1.13,-0.59 -1.04,-0.72 -0.96,-0.85 -0.96,-0.85 L -0.96,-0.85 Z"></path></g><g transform="translate(195.87163543701172 18.688613891601562) rotate(0 -0.9249420166015625 7.398719787597656)" stroke="none"><path fill="#1e1e1e" d="M -1.11,0.52 Q -1.11,0.52 -1.63,-0.36 -2.14,-1.25 -2.39,-1.54 -2.64,-1.83 -2.69,-1.99 -2.74,-2.15 -2.76,-2.32 -2.77,-2.49 -2.74,-2.66 -2.71,-2.82 -2.64,-2.98 -2.58,-3.14 -2.47,-3.27 -2.37,-3.41 -2.24,-3.51 -2.11,-3.62 -1.95,-3.69 -1.80,-3.76 -1.63,-3.79 -1.47,-3.83 -1.30,-3.82 -1.13,-3.81 -0.97,-3.76 -0.80,-3.71 -0.66,-3.63 -0.51,-3.54 -0.39,-3.42 -0.27,-3.30 -0.18,-3.16 -0.09,-3.02 -0.21,-2.14 -0.33,-1.26 -0.24,-0.50 -0.15,0.25 -0.01,1.77 0.12,3.30 0.33,5.13 0.55,6.96 0.61,8.87 0.68,10.77 0.60,12.59 0.52,14.42 0.33,16.25 0.15,18.08 0.12,18.18 0.10,18.29 0.05,18.38 -0.00,18.47 -0.08,18.54 -0.16,18.61 -0.26,18.65 -0.36,18.68 -0.46,18.69 -0.57,18.70 -0.67,18.67 -0.78,18.64 -0.86,18.58 -0.95,18.52 -1.02,18.44 -1.08,18.35 -1.11,18.25 -1.15,18.15 -1.15,18.04 -1.15,17.94 -1.11,17.84 -1.08,17.74 -1.02,17.65 -0.95,17.57 -0.86,17.51 -0.78,17.45 -0.67,17.42 -0.57,17.39 -0.46,17.40 -0.36,17.40 -0.26,17.44 -0.16,17.48 -0.08,17.55 -0.00,17.62 0.05,17.71 0.10,17.80 0.12,17.90 0.15,18.01 0.13,18.11 0.12,18.22 0.08,18.32 0.03,18.41 -0.03,18.49 -0.10,18.57 -0.20,18.62 -0.29,18.67 -0.39,18.68 -0.50,18.70 -0.60,18.68 -0.71,18.67 -0.80,18.62 -0.90,18.57 -0.97,18.49 -1.04,18.41 -1.09,18.32 -1.13,18.22 -1.14,18.11 -1.16,18.01 -1.16,18.01 -1.16,18.01 -1.15,16.23 -1.14,14.45 -1.30,12.72 -1.46,10.99 -1.77,9.15 -2.08,7.32 -2.36,5.44 -2.65,3.55 -2.80,1.97 -2.94,0.38 -2.79,-0.72 -2.64,-1.83 -2.69,-1.99 -2.74,-2.15 -2.76,-2.32 -2.77,-2.49 -2.74,-2.66 -2.71,-2.82 -2.64,-2.98 -2.58,-3.14 -2.47,-3.27 -2.37,-3.41 -2.24,-3.51 -2.11,-3.62 -1.95,-3.69 -1.80,-3.76 -1.63,-3.79 -1.47,-3.83 -1.30,-3.82 -1.13,-3.81 -0.97,-3.76 -0.80,-3.71 -0.66,-3.63 -0.51,-3.54 -0.39,-3.42 -0.27,-3.30 -0.18,-3.16 -0.09,-3.02 0.15,-2.75 0.40,-2.48 0.76,-1.50 1.11,-0.52 1.16,-0.37 1.21,-0.23 1.22,-0.08 1.23,0.05 1.20,0.20 1.18,0.35 1.12,0.48 1.06,0.62 0.97,0.74 0.88,0.86 0.76,0.95 0.65,1.04 0.51,1.11 0.38,1.17 0.23,1.20 0.09,1.23 -0.05,1.22 -0.20,1.21 -0.34,1.17 -0.49,1.13 -0.62,1.05 -0.74,0.98 -0.85,0.87 -0.96,0.77 -1.04,0.64 -1.11,0.52 -1.11,0.52 L -1.11,0.52 Z"></path></g><g transform="translate(183.2600326538086 18.239974975585938) rotate(0 13.935272216796875 2.5223007202148438)" stroke="none"><path fill="#1e1e1e" d="M -1.10,0.24 Q -1.10,0.24 -1.51,-1.02 -1.93,-2.29 -2.06,-3.08 -2.19,-3.87 -1.67,-4.83 -1.14,-5.79 -0.15,-6.02 0.84,-6.25 2.31,-5.59 3.77,-4.93 5.38,-3.81 7.00,-2.70 8.84,-1.17 10.68,0.35 12.65,1.99 14.62,3.62 16.59,5.11 18.55,6.61 20.21,7.84 21.88,9.07 23.02,9.87 24.15,10.66 24.83,11.03 25.50,11.40 26.10,9.83 26.69,8.25 26.88,6.31 27.07,4.36 27.02,1.90 26.96,-0.55 26.76,-2.48 26.57,-4.40 26.86,-5.00 27.16,-5.60 25.89,-4.03 24.63,-2.45 24.57,-2.37 24.51,-2.28 24.42,-2.22 24.34,-2.16 24.24,-2.12 24.13,-2.09 24.03,-2.09 23.92,-2.10 23.82,-2.13 23.72,-2.17 23.64,-2.23 23.56,-2.30 23.50,-2.39 23.44,-2.48 23.41,-2.58 23.39,-2.68 23.40,-2.79 23.40,-2.90 23.44,-2.99 23.49,-3.09 23.56,-3.17 23.63,-3.25 23.72,-3.30 23.81,-3.36 23.91,-3.38 24.02,-3.40 24.12,-3.38 24.23,-3.37 24.33,-3.32 24.42,-3.28 24.50,-3.20 24.57,-3.13 24.62,-3.03 24.67,-2.94 24.68,-2.83 24.70,-2.73 24.68,-2.62 24.66,-2.52 24.61,-2.43 24.56,-2.33 24.48,-2.26 24.40,-2.19 24.30,-2.15 24.20,-2.11 24.10,-2.10 23.99,-2.09 23.89,-2.11 23.79,-2.14 23.70,-2.19 23.61,-2.25 23.54,-2.33 23.47,-2.41 23.43,-2.51 23.40,-2.61 23.39,-2.72 23.39,-2.83 23.42,-2.93 23.45,-3.03 23.45,-3.03 23.45,-3.03 24.79,-5.29 26.12,-7.56 26.95,-7.65 27.78,-7.74 28.63,-6.22 29.47,-4.70 29.68,-2.65 29.89,-0.61 29.93,2.03 29.98,4.68 29.71,6.92 29.45,9.16 28.87,10.72 28.30,12.27 27.39,13.11 26.47,13.94 25.36,13.93 24.25,13.91 23.40,13.44 22.55,12.96 21.38,12.15 20.21,11.33 18.53,10.08 16.85,8.84 14.84,7.31 12.84,5.78 10.86,4.15 8.89,2.51 7.14,1.06 5.39,-0.39 3.93,-1.41 2.47,-2.43 1.52,-3.29 0.56,-4.16 0.67,-3.53 0.78,-2.89 0.94,-1.57 1.10,-0.24 1.11,-0.10 1.12,0.02 1.10,0.16 1.08,0.29 1.03,0.42 0.98,0.54 0.90,0.65 0.82,0.76 0.72,0.85 0.61,0.94 0.49,1.00 0.37,1.06 0.24,1.09 0.10,1.12 -0.02,1.12 -0.16,1.11 -0.29,1.08 -0.42,1.04 -0.54,0.97 -0.66,0.91 -0.76,0.81 -0.86,0.72 -0.93,0.61 -1.01,0.49 -1.05,0.37 -1.10,0.24 -1.10,0.24 L -1.10,0.24 Z"></path></g><g transform="translate(216.05077362060547 24.966537475585938) rotate(0 4.220703125 4.708404541015625)" stroke="none"><path fill="#1e1e1e" d="M 0.98,0.13 Q 0.98,0.13 1.17,0.42 1.36,0.71 1.24,1.51 1.11,2.32 1.05,3.36 0.99,4.40 1.00,5.48 1.01,6.55 1.26,7.29 1.51,8.03 1.91,8.44 2.31,8.85 2.96,8.99 3.62,9.13 4.43,8.88 5.24,8.64 5.88,8.20 6.52,7.76 6.74,7.03 6.97,6.31 6.68,5.31 6.39,4.32 5.69,3.26 4.99,2.20 4.23,1.49 3.46,0.77 2.37,0.34 1.28,-0.08 1.23,-0.14 1.18,-0.20 1.15,-0.27 1.11,-0.34 1.09,-0.42 1.08,-0.50 1.08,-0.58 1.08,-0.66 1.11,-0.73 1.13,-0.81 1.17,-0.88 1.21,-0.95 1.26,-1.01 1.31,-1.06 1.38,-1.11 1.45,-1.15 1.52,-1.17 1.60,-1.20 1.68,-1.21 1.76,-1.21 1.83,-1.20 1.91,-1.19 1.99,-1.16 2.06,-1.13 2.12,-1.08 2.19,-1.03 2.29,-0.80 2.39,-0.57 2.37,-0.46 2.36,-0.36 2.31,-0.26 2.26,-0.17 2.19,-0.09 2.11,-0.02 2.01,0.02 1.92,0.06 1.81,0.08 1.71,0.09 1.60,0.07 1.50,0.05 1.41,-0.00 1.32,-0.05 1.25,-0.13 1.18,-0.21 1.13,-0.31 1.09,-0.40 1.09,-0.51 1.08,-0.62 1.11,-0.72 1.13,-0.82 1.19,-0.91 1.25,-1.00 1.33,-1.07 1.42,-1.13 1.52,-1.17 1.62,-1.20 1.72,-1.20 1.83,-1.21 1.93,-1.17 2.03,-1.14 2.12,-1.08 2.20,-1.01 2.26,-0.93 2.32,-0.84 2.35,-0.74 2.38,-0.64 2.38,-0.53 2.38,-0.42 2.34,-0.33 2.30,-0.23 2.23,-0.14 2.17,-0.06 2.08,-0.01 1.99,0.04 1.88,0.06 1.78,0.09 1.67,0.08 1.57,0.07 1.47,0.03 1.37,-0.01 1.29,-0.08 1.22,-0.15 1.16,-0.24 1.11,-0.34 1.20,-0.21 1.28,-0.08 1.23,-0.14 1.18,-0.20 1.15,-0.27 1.11,-0.34 1.09,-0.42 1.08,-0.50 1.08,-0.58 1.08,-0.66 1.11,-0.73 1.13,-0.81 1.17,-0.88 1.21,-0.95 1.26,-1.01 1.31,-1.06 1.38,-1.11 1.45,-1.15 1.52,-1.17 1.60,-1.20 1.68,-1.21 1.76,-1.21 1.83,-1.20 1.91,-1.19 1.99,-1.16 2.06,-1.13 2.12,-1.08 2.19,-1.03 3.73,-1.10 5.28,-1.16 6.27,-0.21 7.26,0.74 8.17,2.21 9.09,3.67 9.39,5.39 9.68,7.11 9.00,8.57 8.33,10.02 7.10,10.78 5.88,11.53 4.37,11.74 2.85,11.95 1.55,11.41 0.24,10.87 -0.49,9.92 -1.24,8.96 -1.57,7.78 -1.89,6.61 -1.90,5.41 -1.91,4.22 -1.83,3.04 -1.75,1.87 -1.63,1.09 -1.51,0.31 -1.24,0.08 -0.98,-0.13 -0.95,-0.25 -0.92,-0.36 -0.86,-0.47 -0.80,-0.57 -0.72,-0.66 -0.64,-0.75 -0.54,-0.81 -0.44,-0.88 -0.33,-0.92 -0.22,-0.96 -0.10,-0.97 0.01,-0.99 0.13,-0.97 0.25,-0.95 0.36,-0.91 0.47,-0.86 0.57,-0.79 0.66,-0.72 0.74,-0.63 0.82,-0.54 0.87,-0.44 0.93,-0.33 0.95,-0.21 0.98,-0.10 0.98,0.01 0.98,0.13 0.98,0.13 L 0.98,0.13 Z"></path></g><g transform="translate(231.18526458740234 16.165756225585938) rotate(0 -0.5047454833984375 6.306365966796875)" stroke="none"><path fill="#1e1e1e" d="M -0.99,0.02 Q -0.99,0.02 -1.19,-1.32 -1.39,-2.67 -1.51,-3.42 -1.63,-4.17 -1.98,-4.59 -2.33,-5.02 -2.37,-5.19 -2.42,-5.37 -2.43,-5.54 -2.43,-5.72 -2.39,-5.89 -2.36,-6.06 -2.28,-6.22 -2.20,-6.38 -2.09,-6.52 -1.97,-6.65 -1.83,-6.76 -1.69,-6.86 -1.53,-6.93 -1.36,-7.00 -1.19,-7.03 -1.01,-7.05 -0.84,-7.04 -0.66,-7.02 -0.49,-6.96 -0.32,-6.90 -0.18,-6.81 -0.03,-6.71 0.08,-6.58 0.20,-6.45 0.29,-6.30 0.38,-6.14 0.26,-5.34 0.14,-4.55 0.16,-3.96 0.19,-3.37 0.17,-2.01 0.14,-0.64 0.18,1.23 0.22,3.12 0.29,5.24 0.36,7.36 0.41,9.40 0.47,11.43 0.56,13.23 0.65,15.03 0.82,16.71 0.98,18.39 0.98,18.49 0.98,18.60 0.94,18.70 0.91,18.80 0.85,18.89 0.78,18.97 0.69,19.03 0.61,19.09 0.50,19.12 0.40,19.15 0.30,19.14 0.19,19.13 0.09,19.09 -0.00,19.06 -0.08,18.99 -0.16,18.92 -0.21,18.83 -0.27,18.74 -0.29,18.63 -0.31,18.53 -0.30,18.42 -0.29,18.32 -0.25,18.22 -0.20,18.12 -0.13,18.05 -0.06,17.97 0.03,17.92 0.12,17.87 0.23,17.85 0.33,17.84 0.44,17.85 0.54,17.87 0.63,17.92 0.73,17.97 0.80,18.05 0.87,18.12 0.92,18.22 0.96,18.32 0.98,18.42 0.99,18.53 0.96,18.63 0.94,18.74 0.89,18.83 0.83,18.92 0.75,18.99 0.67,19.06 0.57,19.09 0.47,19.13 0.37,19.14 0.26,19.15 0.16,19.12 0.05,19.09 -0.02,19.03 -0.11,18.97 -0.18,18.88 -0.24,18.80 -0.27,18.70 -0.31,18.60 -0.31,18.60 -0.31,18.60 -0.69,16.94 -1.07,15.29 -1.52,13.45 -1.98,11.62 -2.24,9.55 -2.51,7.47 -2.61,5.32 -2.71,3.17 -2.74,1.24 -2.78,-0.68 -2.76,-2.11 -2.74,-3.53 -2.54,-4.28 -2.33,-5.02 -2.37,-5.19 -2.42,-5.36 -2.43,-5.54 -2.43,-5.72 -2.39,-5.89 -2.36,-6.06 -2.28,-6.22 -2.20,-6.38 -2.09,-6.52 -1.97,-6.65 -1.83,-6.76 -1.69,-6.86 -1.53,-6.93 -1.36,-7.00 -1.19,-7.03 -1.01,-7.05 -0.84,-7.04 -0.66,-7.02 -0.49,-6.96 -0.32,-6.90 -0.18,-6.81 -0.03,-6.71 0.08,-6.58 0.20,-6.45 0.29,-6.30 0.38,-6.14 0.53,-5.98 0.68,-5.81 0.89,-5.17 1.10,-4.52 1.18,-3.63 1.26,-2.73 1.12,-1.37 0.99,-0.02 0.98,0.09 0.97,0.21 0.93,0.32 0.89,0.44 0.82,0.54 0.76,0.64 0.67,0.72 0.58,0.80 0.47,0.86 0.37,0.92 0.25,0.95 0.14,0.98 0.02,0.98 -0.09,0.99 -0.21,0.96 -0.33,0.93 -0.43,0.88 -0.54,0.83 -0.63,0.75 -0.72,0.67 -0.79,0.58 -0.87,0.48 -0.91,0.37 -0.96,0.26 -0.97,0.14 -0.99,0.02 -0.99,0.02 L -0.99,0.02 Z"></path></g><g transform="translate(228.94307708740234 28.497787475585938) rotate(0 4.76812744140625 -3.3911819458007812)" stroke="none"><path fill="#1e1e1e" d="M -1.26,0.04 Q -1.26,0.04 -1.38,-0.82 -1.50,-1.69 -1.13,-2.69 -0.76,-3.68 0.22,-4.60 1.21,-5.52 2.74,-6.10 4.27,-6.68 6.87,-7.05 9.48,-7.41 9.58,-7.42 9.69,-7.43 9.79,-7.41 9.89,-7.38 9.98,-7.32 10.07,-7.27 10.14,-7.18 10.21,-7.10 10.24,-7.00 10.28,-6.90 10.28,-6.80 10.29,-6.69 10.26,-6.59 10.22,-6.49 10.16,-6.40 10.10,-6.31 10.01,-6.25 9.93,-6.19 9.83,-6.16 9.73,-6.13 9.62,-6.13 9.51,-6.13 9.41,-6.17 9.31,-6.21 9.23,-6.27 9.15,-6.34 9.09,-6.43 9.03,-6.52 9.01,-6.62 8.98,-6.72 8.99,-6.83 9.00,-6.94 9.04,-7.03 9.08,-7.13 9.15,-7.21 9.22,-7.29 9.32,-7.34 9.41,-7.39 9.51,-7.41 9.62,-7.43 9.72,-7.42 9.83,-7.41 9.92,-7.36 10.02,-7.31 10.09,-7.24 10.17,-7.16 10.22,-7.07 10.26,-6.97 10.28,-6.87 10.29,-6.76 10.27,-6.66 10.25,-6.55 10.20,-6.46 10.15,-6.37 10.07,-6.30 9.99,-6.22 9.89,-6.18 9.80,-6.14 9.80,-6.14 9.80,-6.14 7.52,-5.29 5.25,-4.44 4.15,-3.86 3.06,-3.29 2.22,-2.48 1.38,-1.67 1.32,-0.85 1.26,-0.04 1.25,0.10 1.23,0.25 1.18,0.40 1.14,0.54 1.05,0.67 0.97,0.80 0.86,0.91 0.75,1.01 0.62,1.09 0.49,1.16 0.34,1.20 0.19,1.25 0.04,1.25 -0.10,1.26 -0.25,1.22 -0.40,1.19 -0.54,1.13 -0.68,1.06 -0.79,0.96 -0.91,0.87 -1.00,0.75 -1.09,0.62 -1.15,0.48 -1.21,0.34 -1.24,0.19 -1.26,0.04 -1.26,0.04 L -1.26,0.04 Z"></path></g><g transform="translate(239.59319305419922 37.46595764160156) rotate(0 17.180267333984375 -8.898704528808594)" stroke="none"><path fill="#1e1e1e" d="M -0.79,-0.90 Q -0.79,-0.90 0.17,-1.89 1.15,-2.89 2.48,-3.95 3.82,-5.01 5.22,-6.15 6.61,-7.29 7.71,-8.42 8.80,-9.55 9.55,-10.66 10.30,-11.77 10.62,-12.64 10.95,-13.52 10.27,-12.41 9.60,-11.31 8.97,-10.22 8.34,-9.13 8.04,-7.95 7.73,-6.77 7.69,-5.79 7.65,-4.80 7.96,-4.16 8.26,-3.53 8.97,-3.17 9.67,-2.82 10.74,-2.63 11.80,-2.45 13.03,-2.65 14.27,-2.85 15.59,-3.43 16.91,-4.00 18.08,-4.91 19.25,-5.81 20.13,-6.98 21.01,-8.15 21.60,-9.45 22.20,-10.76 22.46,-12.05 22.72,-13.35 22.74,-14.43 22.76,-15.51 22.62,-16.04 22.48,-16.56 22.32,-16.93 22.16,-17.30 22.14,-17.48 22.12,-17.67 22.15,-17.85 22.18,-18.03 22.25,-18.20 22.32,-18.38 22.43,-18.52 22.54,-18.67 22.68,-18.79 22.83,-18.91 22.99,-18.99 23.16,-19.07 23.34,-19.11 23.52,-19.15 23.71,-19.14 23.89,-19.14 24.07,-19.09 24.25,-19.04 24.41,-18.95 24.57,-18.85 24.71,-18.73 24.84,-18.60 24.94,-18.44 25.04,-18.29 25.10,-18.11 25.16,-17.94 25.74,-17.61 26.31,-17.29 27.29,-16.31 28.28,-15.34 29.44,-14.17 30.60,-13.00 31.72,-11.73 32.83,-10.47 33.66,-9.30 34.48,-8.13 34.88,-6.60 35.28,-5.08 34.60,-3.67 33.93,-2.25 32.20,-1.25 30.47,-0.24 28.33,0.35 26.19,0.95 23.98,1.20 21.76,1.44 18.45,1.05 15.13,0.65 15.03,0.63 14.92,0.62 14.83,0.57 14.73,0.52 14.66,0.44 14.59,0.36 14.54,0.27 14.50,0.17 14.48,0.07 14.47,-0.03 14.50,-0.13 14.52,-0.24 14.57,-0.33 14.63,-0.42 14.71,-0.49 14.79,-0.56 14.89,-0.60 14.99,-0.64 15.09,-0.64 15.20,-0.65 15.30,-0.62 15.40,-0.59 15.49,-0.53 15.58,-0.47 15.64,-0.39 15.71,-0.30 15.74,-0.20 15.78,-0.10 15.78,-0.00 15.78,0.10 15.74,0.20 15.71,0.30 15.65,0.39 15.58,0.47 15.49,0.53 15.41,0.59 15.30,0.62 15.20,0.65 15.09,0.64 14.99,0.64 14.89,0.60 14.79,0.56 14.71,0.49 14.63,0.42 14.57,0.33 14.52,0.24 14.50,0.14 14.47,0.03 14.48,-0.06 14.50,-0.17 14.54,-0.27 14.58,-0.36 14.66,-0.44 14.73,-0.52 14.82,-0.57 14.92,-0.62 15.02,-0.63 15.13,-0.65 15.13,-0.65 15.13,-0.65 18.27,-1.06 21.41,-1.47 23.40,-1.73 25.39,-2.00 27.23,-2.48 29.07,-2.96 30.28,-3.48 31.48,-4.00 31.96,-4.51 32.45,-5.01 32.20,-5.71 31.95,-6.41 31.24,-7.43 30.53,-8.44 29.48,-9.64 28.42,-10.84 27.27,-11.99 26.13,-13.15 25.16,-14.10 24.19,-15.06 23.62,-15.60 23.05,-16.15 22.60,-16.72 22.16,-17.30 22.14,-17.48 22.12,-17.67 22.15,-17.85 22.18,-18.03 22.25,-18.20 22.32,-18.38 22.43,-18.52 22.54,-18.67 22.68,-18.79 22.83,-18.91 22.99,-18.99 23.16,-19.07 23.34,-19.11 23.52,-19.15 23.71,-19.14 23.89,-19.14 24.07,-19.09 24.25,-19.04 24.41,-18.95 24.57,-18.85 24.71,-18.73 24.84,-18.60 24.94,-18.44 25.04,-18.29 25.10,-18.11 25.16,-17.94 25.32,-17.57 25.48,-17.21 25.64,-16.31 25.80,-15.41 25.72,-14.06 25.64,-12.70 25.25,-11.10 24.87,-9.50 24.08,-7.93 23.30,-6.37 22.15,-4.94 21.00,-3.51 19.51,-2.44 18.02,-1.36 16.34,-0.70 14.66,-0.03 12.94,0.13 11.23,0.30 9.69,-0.09 8.15,-0.49 7.02,-1.41 5.89,-2.33 5.47,-3.61 5.04,-4.90 5.18,-6.20 5.31,-7.49 5.79,-8.92 6.28,-10.35 7.05,-11.61 7.83,-12.86 8.72,-13.84 9.62,-14.83 10.58,-15.30 11.55,-15.76 12.37,-15.35 13.20,-14.93 13.35,-13.78 13.49,-12.64 13.06,-11.44 12.63,-10.23 11.74,-8.90 10.86,-7.56 9.64,-6.31 8.42,-5.06 7.00,-3.92 5.58,-2.77 4.29,-1.77 3.01,-0.77 1.90,0.06 0.79,0.90 0.67,0.98 0.55,1.07 0.42,1.12 0.28,1.17 0.13,1.18 -0.00,1.20 -0.14,1.18 -0.29,1.17 -0.42,1.11 -0.56,1.06 -0.68,0.98 -0.80,0.89 -0.90,0.79 -0.99,0.68 -1.06,0.55 -1.13,0.42 -1.16,0.28 -1.19,0.14 -1.19,-0.00 -1.19,-0.15 -1.16,-0.29 -1.12,-0.43 -1.05,-0.56 -0.99,-0.68 -0.89,-0.79 -0.79,-0.90 -0.79,-0.90 L -0.79,-0.90 Z"></path></g></svg>