<svg version="1.1" xmlns="http://www.w3.org/2000/svg" viewBox="0 0 1918.6672785153337 1400.2440163673682" width="1918.6672785153337" height="1400.2440163673682" class="excalidraw-svg"><!-- svg-source:excalidraw --><metadata></metadata><defs><style class="style-fonts">
      </style></defs><rect x="0" y="0" width="1918.6672785153337" height="1400.2440163673682" fill="#ffffff"></rect><g transform="translate(194.88448114874404 50.12734056574345) rotate(0 11.426188568535622 0.43702926302080414)" stroke="none"><path fill="#1971c2" d="M -1.30,-0.62 Q -1.30,-0.62 -0.71,-2.41 -0.11,-4.20 0.26,-5.27 0.65,-6.34 1.29,-7.80 1.93,-9.26 3.07,-9.97 4.22,-10.68 5.48,-10.24 6.73,-9.80 7.34,-8.23 7.94,-6.66 7.87,-3.96 7.80,-1.27 7.34,2.57 6.89,6.43 5.93,11.11 4.96,15.79 3.94,20.42 2.92,25.05 2.11,28.78 1.31,32.51 0.85,34.93 0.40,37.35 0.22,38.49 0.05,39.63 0.10,39.80 0.15,39.97 0.06,40.26 -0.02,40.56 -0.18,40.83 -0.34,41.10 -0.55,41.32 -0.77,41.55 -1.03,41.71 -1.30,41.88 -1.59,41.97 -1.89,42.07 -2.20,42.09 -2.51,42.11 -2.82,42.06 -3.12,42.01 -3.41,41.89 -3.70,41.76 -3.94,41.57 -4.19,41.39 -4.39,41.14 -4.58,40.90 -4.71,40.62 -4.84,40.34 -4.90,40.03 -4.96,39.73 -4.95,39.42 -4.94,39.11 -4.55,37.41 -4.15,35.71 -3.36,32.51 -2.56,29.31 -1.50,24.59 -0.45,19.88 0.74,13.36 1.94,6.85 3.95,-0.72 5.96,-8.31 8.25,-15.02 10.55,-21.74 12.44,-26.46 14.33,-31.18 15.81,-34.00 17.29,-36.82 18.72,-38.46 20.15,-40.10 22.66,-39.89 25.18,-39.69 26.13,-37.79 27.09,-35.88 27.43,-32.06 27.78,-28.25 27.69,-23.53 27.60,-18.81 27.23,-13.60 26.86,-8.40 26.36,-3.07 25.87,2.24 25.53,6.77 25.20,11.30 25.00,14.71 24.81,18.12 24.71,20.59 24.60,23.06 24.38,26.26 24.16,29.47 24.13,29.68 24.11,29.89 24.01,30.09 23.92,30.28 23.77,30.43 23.62,30.58 23.43,30.67 23.24,30.77 23.03,30.80 22.82,30.83 22.61,30.79 22.40,30.75 22.22,30.65 22.03,30.54 21.89,30.39 21.74,30.23 21.66,30.03 21.57,29.84 21.56,29.63 21.54,29.42 21.59,29.21 21.64,29.00 21.75,28.82 21.87,28.64 22.03,28.51 22.20,28.38 22.39,28.30 22.59,28.23 22.81,28.22 23.02,28.21 23.22,28.27 23.42,28.34 23.60,28.46 23.77,28.58 23.90,28.75 24.02,28.93 24.08,29.13 24.15,29.33 24.14,29.54 24.14,29.76 24.07,29.96 23.99,30.16 23.86,30.32 23.73,30.49 23.55,30.60 23.37,30.72 23.17,30.77 22.96,30.82 22.75,30.81 22.54,30.79 22.34,30.71 22.15,30.63 21.99,30.48 21.83,30.34 21.72,30.16 21.62,29.97 21.58,29.77 21.53,29.56 21.53,29.56 21.53,29.56 21.11,26.42 20.68,23.27 20.29,20.62 19.90,17.97 19.93,14.44 19.96,10.91 20.30,6.33 20.64,1.75 21.13,-3.51 21.63,-8.78 22.01,-13.85 22.39,-18.91 22.50,-23.38 22.60,-27.85 22.41,-31.00 22.22,-34.14 22.70,-35.23 23.19,-36.31 22.52,-35.35 21.85,-34.39 20.48,-31.82 19.11,-29.25 17.26,-24.66 15.40,-20.08 13.15,-13.54 10.89,-7.01 8.95,0.38 7.00,7.78 5.79,14.39 4.59,21.00 3.53,25.78 2.47,30.56 1.68,33.73 0.89,36.91 0.52,38.44 0.15,39.97 0.06,40.26 -0.02,40.56 -0.18,40.83 -0.34,41.10 -0.55,41.32 -0.77,41.55 -1.03,41.71 -1.30,41.88 -1.59,41.97 -1.89,42.07 -2.20,42.09 -2.51,42.11 -2.82,42.06 -3.12,42.01 -3.41,41.89 -3.69,41.76 -3.94,41.57 -4.19,41.39 -4.39,41.14 -4.58,40.90 -4.71,40.62 -4.84,40.34 -4.90,40.03 -4.96,39.73 -4.95,39.42 -4.94,39.11 -4.93,38.99 -4.93,38.87 -4.70,37.64 -4.47,36.41 -3.99,33.94 -3.51,31.47 -2.69,27.73 -1.87,23.98 -0.84,19.39 0.18,14.79 1.13,10.32 2.08,5.85 2.53,2.18 2.98,-1.47 3.29,-4.29 3.61,-7.12 4.81,-7.04 6.01,-6.96 5.25,-5.77 4.48,-4.57 3.91,-3.56 3.33,-2.55 2.32,-0.96 1.30,0.62 1.21,0.76 1.11,0.91 0.99,1.03 0.86,1.15 0.71,1.24 0.56,1.32 0.39,1.37 0.22,1.42 0.05,1.43 -0.11,1.43 -0.28,1.40 -0.45,1.36 -0.61,1.29 -0.77,1.21 -0.90,1.10 -1.04,0.99 -1.14,0.85 -1.25,0.72 -1.31,0.56 -1.38,0.39 -1.41,0.22 -1.44,0.05 -1.42,-0.11 -1.41,-0.29 -1.35,-0.45 -1.30,-0.62 -1.30,-0.62 L -1.30,-0.62 Z"></path></g><g transform="translate(193.13529258174765 66.96566166733555) rotate(0 14.378212154070354 -3.280264320574929)" stroke="none"><path fill="#1971c2" d="M -1.85,0.33 Q -1.85,0.33 -1.85,-1.13 -1.85,-2.60 -0.54,-3.69 0.76,-4.78 3.07,-5.53 5.39,-6.29 8.16,-6.73 10.93,-7.18 13.92,-7.36 16.91,-7.54 20.16,-7.62 23.40,-7.69 25.47,-7.71 27.53,-7.72 29.04,-7.79 30.55,-7.87 30.76,-7.84 30.97,-7.82 31.16,-7.73 31.35,-7.64 31.51,-7.49 31.66,-7.34 31.76,-7.16 31.86,-6.97 31.89,-6.76 31.92,-6.55 31.89,-6.34 31.85,-6.13 31.75,-5.94 31.65,-5.76 31.50,-5.61 31.34,-5.46 31.15,-5.38 30.95,-5.29 30.74,-5.27 30.53,-5.24 30.32,-5.29 30.12,-5.34 29.94,-5.45 29.75,-5.56 29.62,-5.72 29.48,-5.88 29.40,-6.08 29.33,-6.28 29.32,-6.49 29.30,-6.70 29.36,-6.91 29.42,-7.11 29.54,-7.29 29.66,-7.46 29.83,-7.59 30.00,-7.72 30.20,-7.79 30.40,-7.85 30.62,-7.85 30.83,-7.85 31.03,-7.78 31.23,-7.71 31.40,-7.58 31.57,-7.45 31.69,-7.28 31.80,-7.10 31.86,-6.90 31.92,-6.69 31.90,-6.48 31.89,-6.27 31.81,-6.07 31.73,-5.87 31.59,-5.71 31.45,-5.55 31.27,-5.44 31.09,-5.33 30.88,-5.29 30.67,-5.24 30.67,-5.24 30.67,-5.24 29.17,-5.17 27.66,-5.09 25.64,-4.91 23.62,-4.72 20.51,-4.33 17.39,-3.94 14.58,-3.35 11.78,-2.76 9.30,-2.20 6.83,-1.64 4.09,-0.90 1.35,-0.16 1.60,-0.24 1.85,-0.33 1.87,-0.11 1.88,0.11 1.84,0.34 1.80,0.56 1.70,0.77 1.61,0.97 1.47,1.15 1.33,1.33 1.15,1.47 0.97,1.61 0.76,1.70 0.55,1.80 0.33,1.84 0.11,1.88 -0.11,1.86 -0.34,1.85 -0.55,1.78 -0.77,1.71 -0.97,1.60 -1.16,1.48 -1.32,1.32 -1.48,1.16 -1.60,0.96 -1.72,0.77 -1.78,0.55 -1.85,0.33 -1.85,0.33 L -1.85,0.33 Z"></path></g><g transform="translate(253.92810787557278 63.684921117910335) rotate(0 -15.399871859388838 44.227700730765264)" stroke="none"><path fill="#1971c2" d="M -0.86,1.25 Q -0.86,1.25 -2.59,0.52 -4.31,-0.20 -5.45,-0.49 -6.58,-0.77 -8.52,-0.01 -10.45,0.74 -11.66,1.89 -12.87,3.04 -13.90,4.73 -14.94,6.42 -15.67,8.26 -16.39,10.10 -16.65,11.71 -16.91,13.32 -16.04,14.48 -15.18,15.64 -12.70,14.85 -10.23,14.06 -8.63,12.74 -7.02,11.42 -6.00,10.16 -4.99,8.90 -4.51,7.34 -4.04,5.79 -4.05,4.47 -4.06,3.15 -4.80,5.45 -5.54,7.76 -5.74,10.43 -5.94,13.11 -6.03,17.06 -6.12,21.01 -6.21,26.17 -6.30,31.32 -6.56,37.36 -6.83,43.40 -7.21,49.81 -7.59,56.21 -8.44,62.14 -9.29,68.07 -10.80,73.22 -12.32,78.37 -14.29,82.25 -16.25,86.12 -18.36,88.55 -20.46,90.98 -23.51,91.51 -26.56,92.05 -28.51,90.15 -30.46,88.25 -31.27,83.99 -32.08,79.73 -31.50,74.64 -30.92,69.56 -29.18,63.59 -27.44,57.63 -26.33,53.31 -25.21,48.98 -25.13,48.79 -25.04,48.59 -24.90,48.43 -24.75,48.28 -24.57,48.17 -24.38,48.07 -24.17,48.03 -23.96,47.99 -23.75,48.02 -23.54,48.05 -23.35,48.15 -23.17,48.25 -23.02,48.40 -22.87,48.55 -22.77,48.74 -22.68,48.93 -22.65,49.14 -22.63,49.35 -22.67,49.56 -22.71,49.77 -22.82,49.95 -22.92,50.14 -23.08,50.28 -23.24,50.42 -23.44,50.50 -23.63,50.58 -23.85,50.60 -24.06,50.62 -24.26,50.56 -24.47,50.51 -24.65,50.39 -24.83,50.28 -24.96,50.11 -25.09,49.94 -25.16,49.74 -25.23,49.54 -25.24,49.33 -25.24,49.12 -25.18,48.92 -25.11,48.71 -24.99,48.54 -24.86,48.37 -24.69,48.25 -24.51,48.13 -24.31,48.07 -24.11,48.00 -23.89,48.01 -23.68,48.02 -23.48,48.09 -23.28,48.17 -23.12,48.30 -22.96,48.44 -22.84,48.62 -22.73,48.80 -22.68,49.01 -22.63,49.21 -22.65,49.42 -22.67,49.64 -22.67,49.63 -22.67,49.63 -23.78,53.96 -24.90,58.29 -26.17,64.03 -27.45,69.78 -27.46,74.34 -27.46,78.90 -26.89,82.06 -26.31,85.21 -25.17,86.18 -24.03,87.16 -22.52,85.40 -21.00,83.64 -19.23,80.23 -17.45,76.82 -16.00,72.06 -14.56,67.30 -13.72,61.59 -12.88,55.89 -12.48,49.52 -12.09,43.16 -11.81,37.19 -11.52,31.21 -11.40,26.04 -11.27,20.88 -11.15,16.77 -11.03,12.67 -10.73,9.56 -10.43,6.46 -9.60,3.84 -8.78,1.23 -7.57,-0.05 -6.36,-1.34 -4.91,-1.69 -3.46,-2.03 -1.80,-0.91 -0.14,0.21 0.22,1.73 0.58,3.25 0.45,5.25 0.32,7.25 -0.53,9.50 -1.39,11.76 -2.77,13.38 -4.14,15.01 -6.26,16.65 -8.37,18.29 -10.85,19.24 -13.34,20.19 -15.54,19.86 -17.75,19.52 -19.30,18.07 -20.86,16.62 -21.30,14.63 -21.74,12.64 -21.34,10.46 -20.94,8.28 -20.00,6.03 -19.06,3.79 -17.62,1.62 -16.17,-0.53 -14.46,-2.03 -12.74,-3.53 -10.83,-4.41 -8.93,-5.29 -7.08,-5.29 -5.24,-5.29 -3.50,-4.64 -1.76,-3.99 -0.44,-2.62 0.86,-1.25 1.00,-1.13 1.14,-1.01 1.24,-0.85 1.35,-0.70 1.41,-0.53 1.48,-0.36 1.50,-0.18 1.52,0.00 1.50,0.18 1.48,0.36 1.41,0.53 1.35,0.71 1.24,0.86 1.14,1.01 1.00,1.13 0.86,1.25 0.70,1.34 0.53,1.42 0.36,1.47 0.18,1.51 -0.00,1.51 -0.18,1.51 -0.36,1.47 -0.54,1.42 -0.70,1.34 -0.86,1.25 -0.86,1.25 L -0.86,1.25 Z"></path></g><g transform="translate(260.70645168710917 97.58033094918187) rotate(0 10.004615686213299 -13.394263820831839)" stroke="none"><path fill="#1971c2" d="M -1.43,-0.76 Q -1.43,-0.76 -0.74,-2.66 -0.05,-4.56 1.53,-6.77 3.12,-8.98 4.99,-11.28 6.86,-13.58 8.53,-15.71 10.20,-17.83 11.17,-19.56 12.14,-21.28 12.67,-22.85 13.20,-24.41 14.22,-24.83 15.24,-25.24 14.11,-24.15 12.99,-23.06 12.00,-21.34 11.02,-19.62 10.21,-17.31 9.39,-15.00 8.93,-12.64 8.47,-10.29 8.48,-8.08 8.49,-5.87 9.02,-4.51 9.56,-3.15 10.35,-2.42 11.15,-1.69 12.42,-1.62 13.68,-1.56 16.59,-2.75 19.49,-3.94 19.70,-3.99 19.91,-4.04 20.12,-4.02 20.33,-4.00 20.52,-3.92 20.72,-3.83 20.88,-3.69 21.03,-3.54 21.14,-3.36 21.24,-3.17 21.28,-2.96 21.32,-2.76 21.29,-2.54 21.26,-2.33 21.16,-2.14 21.07,-1.96 20.91,-1.81 20.76,-1.66 20.57,-1.56 20.38,-1.47 20.17,-1.44 19.96,-1.42 19.75,-1.46 19.54,-1.50 19.36,-1.60 19.17,-1.71 19.03,-1.87 18.89,-2.03 18.81,-2.22 18.73,-2.42 18.71,-2.63 18.70,-2.84 18.75,-3.05 18.80,-3.26 18.92,-3.43 19.03,-3.61 19.20,-3.74 19.37,-3.88 19.57,-3.95 19.77,-4.02 19.98,-4.02 20.19,-4.03 20.39,-3.96 20.60,-3.90 20.77,-3.78 20.94,-3.65 21.06,-3.48 21.18,-3.30 21.25,-3.10 21.31,-2.90 21.30,-2.68 21.29,-2.47 21.22,-2.27 21.14,-2.07 21.01,-1.91 20.87,-1.74 20.69,-1.63 20.52,-1.52 20.52,-1.52 20.52,-1.52 17.08,-0.03 13.64,1.46 11.50,1.30 9.36,1.15 7.59,-0.10 5.82,-1.37 4.97,-3.57 4.13,-5.78 4.15,-8.46 4.18,-11.14 4.75,-13.82 5.31,-16.49 6.32,-19.15 7.32,-21.80 8.62,-23.92 9.92,-26.03 11.45,-27.40 12.99,-28.77 14.05,-28.90 15.11,-29.02 16.46,-27.41 17.80,-25.80 17.57,-24.39 17.35,-22.98 16.67,-21.05 15.98,-19.12 14.83,-17.12 13.68,-15.12 11.99,-12.95 10.30,-10.78 8.50,-8.58 6.70,-6.37 5.26,-4.42 3.83,-2.47 2.63,-0.85 1.43,0.76 1.32,0.93 1.21,1.09 1.06,1.22 0.91,1.34 0.73,1.43 0.56,1.52 0.37,1.57 0.18,1.61 -0.01,1.61 -0.21,1.61 -0.40,1.56 -0.59,1.51 -0.76,1.42 -0.93,1.33 -1.08,1.20 -1.22,1.07 -1.33,0.90 -1.44,0.74 -1.51,0.56 -1.58,0.37 -1.60,0.18 -1.62,-0.01 -1.60,-0.20 -1.57,-0.40 -1.50,-0.58 -1.43,-0.76 -1.43,-0.76 L -1.43,-0.76 Z"></path></g><g transform="translate(291.9775429104293 76.25944626593298) rotate(0 18.31430313005643 -4.538044242711635)" stroke="none"><path fill="#1971c2" d="M 1.35,0.62 Q 1.35,0.62 1.06,2.30 0.78,3.99 0.39,5.93 0.01,7.88 -0.54,10.38 -1.10,12.87 -1.50,14.89 -1.89,16.91 -2.24,18.42 -2.60,19.93 -2.76,20.54 -2.92,21.15 -3.04,21.44 -3.15,21.74 -3.34,22.00 -3.52,22.26 -3.76,22.47 -4.00,22.67 -4.28,22.82 -4.56,22.96 -4.87,23.04 -5.18,23.11 -5.49,23.11 -5.81,23.11 -6.12,23.03 -6.42,22.95 -6.70,22.80 -6.98,22.65 -7.22,22.44 -7.45,22.22 -7.63,21.96 -7.81,21.70 -7.92,21.40 -8.03,21.11 -8.06,20.79 -8.10,20.48 -8.06,20.16 -8.02,19.85 -7.03,17.46 -6.05,15.07 -4.59,12.42 -3.13,9.77 -1.05,6.84 1.03,3.90 3.33,1.54 5.63,-0.80 7.64,-2.23 9.66,-3.65 12.18,-3.84 14.70,-4.02 15.74,-2.92 16.77,-1.82 17.22,0.45 17.66,2.73 17.67,5.28 17.67,7.82 17.61,10.41 17.54,12.99 17.69,15.19 17.84,17.40 18.26,18.77 18.69,20.15 20.10,20.29 21.51,20.43 23.23,19.21 24.95,18.00 27.08,15.70 29.21,13.40 31.12,10.30 33.03,7.20 34.38,3.49 35.73,-0.22 36.68,-4.64 37.62,-9.06 38.20,-13.54 38.77,-18.02 38.96,-21.51 39.15,-25.01 38.98,-27.09 38.82,-29.16 40.21,-29.69 41.61,-30.22 41.37,-29.13 41.13,-28.05 40.48,-25.50 39.83,-22.96 39.20,-19.37 38.57,-15.78 38.11,-11.94 37.65,-8.10 37.54,-4.72 37.44,-1.33 37.80,1.15 38.17,3.64 38.86,5.17 39.55,6.69 41.35,8.21 43.15,9.73 43.30,9.87 43.46,10.02 43.56,10.21 43.66,10.39 43.70,10.60 43.73,10.81 43.70,11.02 43.67,11.23 43.57,11.42 43.47,11.61 43.32,11.75 43.16,11.90 42.97,11.99 42.78,12.08 42.57,12.11 42.36,12.13 42.15,12.09 41.94,12.04 41.76,11.93 41.57,11.83 41.44,11.66 41.30,11.50 41.22,11.31 41.14,11.11 41.13,10.90 41.11,10.68 41.17,10.48 41.22,10.27 41.34,10.10 41.46,9.92 41.63,9.79 41.80,9.66 42.00,9.59 42.20,9.52 42.41,9.52 42.62,9.52 42.83,9.59 43.03,9.66 43.20,9.78 43.37,9.91 43.49,10.09 43.61,10.26 43.67,10.47 43.72,10.67 43.71,10.88 43.70,11.09 43.63,11.29 43.55,11.49 43.41,11.65 43.27,11.82 43.09,11.93 42.91,12.04 42.70,12.08 42.50,12.13 42.29,12.11 42.07,12.09 41.88,12.00 41.69,11.91 41.69,11.91 41.69,11.91 39.08,10.32 36.47,8.73 34.93,6.67 33.39,4.61 32.80,1.56 32.21,-1.47 32.32,-5.10 32.42,-8.74 32.92,-12.72 33.41,-16.70 34.11,-20.50 34.80,-24.30 35.64,-27.31 36.47,-30.32 37.49,-31.79 38.52,-33.27 40.29,-33.33 42.06,-33.38 42.95,-31.37 43.85,-29.36 43.85,-27.02 43.84,-24.68 43.52,-21.06 43.20,-17.44 42.57,-12.78 41.95,-8.13 40.92,-3.41 39.88,1.30 38.34,5.41 36.79,9.52 34.64,12.96 32.49,16.40 29.99,19.14 27.49,21.89 24.74,23.53 21.99,25.17 19.61,25.01 17.24,24.86 15.69,23.36 14.14,21.86 13.53,19.81 12.93,17.75 12.77,15.31 12.61,12.86 12.68,10.33 12.75,7.79 12.79,5.61 12.82,3.43 12.65,1.94 12.48,0.45 10.87,1.59 9.27,2.73 7.27,4.82 5.27,6.90 3.38,9.61 1.49,12.32 0.08,14.90 -1.32,17.48 -2.12,19.32 -2.92,21.15 -3.04,21.44 -3.15,21.74 -3.34,22.00 -3.52,22.26 -3.76,22.47 -4.00,22.67 -4.28,22.82 -4.56,22.96 -4.87,23.04 -5.18,23.11 -5.49,23.11 -5.81,23.11 -6.12,23.03 -6.42,22.95 -6.70,22.80 -6.98,22.65 -7.22,22.44 -7.45,22.23 -7.63,21.96 -7.81,21.70 -7.92,21.40 -8.03,21.11 -8.06,20.79 -8.10,20.48 -8.06,20.16 -8.02,19.85 -7.75,19.26 -7.48,18.68 -7.10,17.31 -6.71,15.94 -6.28,13.86 -5.85,11.78 -5.27,9.31 -4.68,6.85 -4.11,4.44 -3.54,2.02 -2.45,0.70 -1.35,-0.62 -1.26,-0.77 -1.16,-0.92 -1.03,-1.05 -0.91,-1.18 -0.75,-1.27 -0.60,-1.36 -0.42,-1.41 -0.25,-1.47 -0.07,-1.47 0.10,-1.48 0.27,-1.45 0.45,-1.42 0.61,-1.34 0.78,-1.27 0.92,-1.15 1.06,-1.04 1.17,-0.90 1.28,-0.76 1.35,-0.59 1.42,-0.43 1.45,-0.25 1.49,-0.07 1.47,0.10 1.46,0.28 1.41,0.45 1.35,0.62 1.35,0.62 L 1.35,0.62 Z"></path></g><g transform="translate(320.73414580438896 68.82372805522209) rotate(0 23.56207718116775 -7.435152688951121)" stroke="none"><path fill="#1971c2" d="M -1.75,-1.51 Q -1.75,-1.51 -0.97,-2.86 -0.19,-4.20 3.08,-5.86 6.36,-7.51 11.10,-9.02 15.85,-10.53 21.99,-11.64 28.12,-12.74 34.15,-13.53 40.19,-14.32 44.56,-15.24 48.93,-16.15 49.14,-16.16 49.35,-16.17 49.56,-16.11 49.76,-16.05 49.94,-15.93 50.11,-15.81 50.24,-15.64 50.36,-15.47 50.43,-15.27 50.50,-15.06 50.49,-14.85 50.49,-14.64 50.42,-14.44 50.35,-14.24 50.22,-14.07 50.09,-13.90 49.91,-13.78 49.74,-13.67 49.53,-13.61 49.33,-13.56 49.11,-13.57 48.90,-13.59 48.70,-13.67 48.51,-13.75 48.35,-13.89 48.19,-14.03 48.08,-14.21 47.97,-14.39 47.93,-14.60 47.89,-14.81 47.91,-15.02 47.94,-15.23 48.03,-15.42 48.12,-15.61 48.27,-15.77 48.41,-15.92 48.60,-16.02 48.79,-16.11 49.00,-16.15 49.21,-16.18 49.42,-16.14 49.63,-16.11 49.82,-16.00 50.00,-15.90 50.15,-15.75 50.29,-15.59 50.38,-15.40 50.47,-15.20 50.49,-14.99 50.51,-14.78 50.46,-14.57 50.41,-14.37 50.30,-14.19 50.19,-14.00 50.03,-13.87 49.86,-13.73 49.66,-13.66 49.47,-13.58 49.47,-13.58 49.47,-13.58 45.10,-12.67 40.72,-11.75 34.93,-10.07 29.14,-8.39 23.38,-6.72 17.63,-5.04 13.22,-3.60 8.82,-2.15 6.43,-1.19 4.05,-0.23 2.90,0.64 1.75,1.51 1.54,1.70 1.33,1.89 1.08,2.02 0.84,2.15 0.57,2.22 0.30,2.29 0.02,2.30 -0.25,2.30 -0.52,2.23 -0.80,2.17 -1.04,2.04 -1.29,1.92 -1.50,1.73 -1.72,1.55 -1.88,1.32 -2.04,1.09 -2.14,0.83 -2.24,0.57 -2.28,0.30 -2.31,0.02 -2.28,-0.25 -2.25,-0.53 -2.15,-0.79 -2.06,-1.05 -1.90,-1.28 -1.75,-1.52 -1.75,-1.52 L -1.75,-1.51 Z"></path></g><g transform="translate(410.82902461153765 73.19741381598874) rotate(0 15.744840132794252 -4.154888368376305)" stroke="none"><path fill="#1971c2" d="M -1.25,-1.03 Q -1.25,-1.03 -0.62,-2.39 0.00,-3.76 2.50,-4.90 4.99,-6.04 8.19,-6.90 11.38,-7.77 14.96,-8.31 18.53,-8.86 21.73,-9.02 24.92,-9.18 27.17,-9.24 29.42,-9.29 31.04,-9.45 32.67,-9.61 32.88,-9.60 33.09,-9.58 33.29,-9.50 33.49,-9.42 33.65,-9.28 33.81,-9.14 33.91,-8.96 34.02,-8.78 34.07,-8.57 34.11,-8.36 34.08,-8.15 34.06,-7.94 33.97,-7.75 33.88,-7.56 33.73,-7.40 33.58,-7.25 33.39,-7.15 33.20,-7.06 32.99,-7.02 32.78,-6.99 32.57,-7.03 32.36,-7.06 32.18,-7.17 31.99,-7.27 31.85,-7.42 31.70,-7.58 31.61,-7.77 31.53,-7.97 31.51,-8.18 31.49,-8.39 31.53,-8.60 31.58,-8.80 31.69,-8.99 31.80,-9.17 31.97,-9.30 32.13,-9.44 32.33,-9.51 32.53,-9.59 32.74,-9.60 32.95,-9.61 33.16,-9.55 33.36,-9.49 33.54,-9.37 33.71,-9.25 33.84,-9.08 33.96,-8.91 34.03,-8.70 34.09,-8.50 34.09,-8.29 34.09,-8.08 34.02,-7.88 33.95,-7.68 33.82,-7.51 33.69,-7.34 33.51,-7.22 33.33,-7.11 33.13,-7.05 32.92,-7.00 32.92,-7.00 32.92,-7.00 31.30,-6.84 29.67,-6.68 27.52,-6.30 25.37,-5.93 22.36,-5.23 19.34,-4.53 15.99,-3.78 12.65,-3.03 9.71,-2.26 6.78,-1.48 5.14,-0.99 3.50,-0.50 2.37,0.26 1.25,1.03 1.11,1.16 0.97,1.30 0.80,1.40 0.63,1.49 0.44,1.55 0.25,1.60 0.05,1.61 -0.13,1.62 -0.32,1.58 -0.52,1.54 -0.69,1.45 -0.87,1.37 -1.02,1.24 -1.17,1.12 -1.29,0.96 -1.41,0.80 -1.48,0.62 -1.56,0.44 -1.59,0.25 -1.62,0.06 -1.60,-0.13 -1.59,-0.33 -1.53,-0.51 -1.46,-0.70 -1.36,-0.86 -1.25,-1.03 -1.25,-1.03 L -1.25,-1.03 Z"></path></g><g transform="translate(447.5666872783595 49.252091467576065) rotate(0 5.1388664659179994 18.47827467606072)" stroke="none"><path fill="#1971c2" d="M -1.44,1.69 Q -1.44,1.69 -2.74,0.78 -4.05,-0.13 -5.30,-0.52 -6.56,-0.92 -6.82,-1.09 -7.09,-1.27 -7.31,-1.50 -7.52,-1.74 -7.68,-2.02 -7.83,-2.30 -7.92,-2.60 -8.00,-2.91 -8.01,-3.23 -8.01,-3.55 -7.94,-3.86 -7.87,-4.17 -7.73,-4.46 -7.59,-4.74 -7.38,-4.99 -7.18,-5.23 -6.92,-5.42 -6.66,-5.60 -6.36,-5.72 -6.07,-5.84 -5.75,-5.89 -5.44,-5.93 -5.12,-5.90 -4.80,-5.87 -4.50,-5.76 -4.20,-5.66 -2.07,-4.13 0.05,-2.61 1.63,-1.44 3.21,-0.26 4.94,1.04 6.66,2.35 8.39,3.43 10.11,4.52 11.56,5.48 13.01,6.43 14.24,7.35 15.47,8.27 16.42,9.65 17.37,11.03 17.49,13.30 17.62,15.57 16.38,18.23 15.14,20.89 13.27,23.55 11.40,26.20 9.51,28.87 7.63,31.53 6.16,33.83 4.69,36.13 3.55,38.64 2.42,41.14 2.31,41.33 2.21,41.51 2.05,41.65 1.89,41.79 1.69,41.87 1.49,41.95 1.28,41.96 1.07,41.98 0.86,41.92 0.66,41.87 0.48,41.75 0.30,41.63 0.17,41.46 0.04,41.30 -0.02,41.09 -0.09,40.89 -0.09,40.68 -0.09,40.47 -0.02,40.27 0.03,40.06 0.16,39.89 0.29,39.72 0.46,39.60 0.63,39.48 0.84,39.42 1.04,39.36 1.26,39.37 1.47,39.38 1.67,39.46 1.86,39.54 2.03,39.67 2.19,39.81 2.30,39.99 2.41,40.17 2.46,40.38 2.51,40.59 2.49,40.80 2.47,41.01 2.38,41.20 2.29,41.40 2.15,41.55 2.00,41.71 1.82,41.81 1.63,41.91 1.42,41.95 1.21,41.98 1.00,41.95 0.79,41.92 0.60,41.82 0.41,41.72 0.27,41.57 0.12,41.42 0.03,41.22 -0.05,41.03 -0.08,40.82 -0.10,40.61 -0.06,40.40 -0.02,40.19 -0.02,40.19 -0.02,40.19 0.90,37.37 1.83,34.55 3.07,32.01 4.30,29.47 5.91,26.51 7.51,23.55 9.13,21.10 10.74,18.64 11.72,16.95 12.70,15.25 12.57,13.76 12.44,12.26 11.35,11.49 10.26,10.72 8.82,9.83 7.38,8.93 5.43,7.74 3.48,6.55 1.78,5.27 0.08,3.98 -1.51,2.81 -3.11,1.63 -4.84,0.35 -6.56,-0.92 -6.82,-1.09 -7.09,-1.27 -7.31,-1.50 -7.52,-1.74 -7.68,-2.02 -7.83,-2.29 -7.92,-2.60 -8.00,-2.91 -8.01,-3.23 -8.01,-3.55 -7.94,-3.86 -7.87,-4.17 -7.73,-4.46 -7.59,-4.74 -7.38,-4.99 -7.18,-5.23 -6.92,-5.42 -6.66,-5.60 -6.36,-5.72 -6.07,-5.84 -5.75,-5.89 -5.44,-5.93 -5.12,-5.90 -4.80,-5.87 -4.50,-5.76 -4.20,-5.66 -4.94,-5.62 -5.68,-5.58 -4.49,-5.45 -3.30,-5.31 -2.06,-4.66 -0.81,-4.01 0.31,-2.85 1.44,-1.69 1.62,-1.49 1.80,-1.30 1.93,-1.06 2.06,-0.83 2.13,-0.57 2.20,-0.31 2.21,-0.04 2.21,0.22 2.15,0.48 2.09,0.74 1.97,0.98 1.85,1.22 1.68,1.43 1.50,1.63 1.29,1.79 1.07,1.95 0.82,2.05 0.57,2.15 0.30,2.19 0.04,2.22 -0.22,2.20 -0.49,2.17 -0.74,2.08 -0.99,1.99 -1.22,1.84 -1.44,1.69 -1.44,1.69 L -1.44,1.69 Z"></path></g><g transform="translate(514.4825554857664 39.849429048088496) rotate(0 -7.7633934239912605 27.061272833496957)" stroke="none"><path fill="#1971c2" d="M -2.22,0.10 Q -2.22,0.10 -2.47,-1.26 -2.71,-2.63 -2.92,-3.26 -3.13,-3.88 -3.11,-4.20 -3.08,-4.53 -2.98,-4.84 -2.88,-5.15 -2.71,-5.43 -2.53,-5.70 -2.30,-5.93 -2.07,-6.16 -1.78,-6.32 -1.50,-6.49 -1.19,-6.58 -0.87,-6.67 -0.55,-6.69 -0.22,-6.70 0.09,-6.64 0.41,-6.57 0.70,-6.44 1.00,-6.30 1.25,-6.09 1.51,-5.89 1.71,-5.63 1.90,-5.37 2.03,-5.07 2.16,-4.77 2.22,-4.44 2.27,-4.12 1.12,-2.76 -0.01,-1.40 -1.19,2.39 -2.37,6.19 -3.62,10.91 -4.88,15.62 -5.95,20.55 -7.02,25.47 -8.15,31.23 -9.28,37.00 -10.25,41.71 -11.21,46.42 -11.96,49.72 -12.70,53.02 -13.47,56.15 -14.23,59.27 -14.30,59.47 -14.37,59.67 -14.50,59.84 -14.63,60.01 -14.81,60.12 -14.99,60.24 -15.20,60.29 -15.40,60.35 -15.61,60.33 -15.82,60.32 -16.02,60.23 -16.22,60.15 -16.38,60.01 -16.54,59.87 -16.64,59.69 -16.75,59.50 -16.79,59.30 -16.83,59.09 -16.81,58.88 -16.78,58.67 -16.69,58.47 -16.60,58.28 -16.45,58.13 -16.30,57.98 -16.11,57.88 -15.92,57.79 -15.71,57.76 -15.50,57.72 -15.29,57.76 -15.08,57.80 -14.90,57.90 -14.71,58.01 -14.57,58.16 -14.42,58.32 -14.34,58.51 -14.25,58.71 -14.23,58.92 -14.21,59.13 -14.26,59.34 -14.31,59.54 -14.42,59.72 -14.53,59.90 -14.70,60.04 -14.86,60.17 -15.06,60.25 -15.26,60.32 -15.47,60.33 -15.68,60.34 -15.89,60.28 -16.09,60.22 -16.27,60.10 -16.44,59.98 -16.57,59.81 -16.69,59.63 -16.76,59.43 -16.82,59.23 -16.82,59.02 -16.81,58.80 -16.81,58.80 -16.81,58.80 -16.45,55.69 -16.09,52.58 -15.95,49.13 -15.81,45.68 -15.23,40.83 -14.65,35.98 -13.58,30.13 -12.51,24.28 -11.40,19.22 -10.30,14.17 -8.97,9.26 -7.65,4.36 -6.37,0.78 -5.08,-2.80 -3.75,-4.45 -2.41,-6.10 -2.77,-4.99 -3.13,-3.88 -3.11,-4.20 -3.08,-4.53 -2.98,-4.84 -2.88,-5.15 -2.71,-5.43 -2.53,-5.70 -2.30,-5.93 -2.07,-6.16 -1.78,-6.32 -1.50,-6.49 -1.19,-6.58 -0.87,-6.67 -0.55,-6.69 -0.22,-6.70 0.09,-6.64 0.41,-6.57 0.70,-6.44 1.00,-6.30 1.25,-6.09 1.51,-5.89 1.71,-5.63 1.90,-5.37 2.03,-5.07 2.16,-4.77 2.22,-4.45 2.27,-4.12 2.36,-3.51 2.46,-2.89 2.34,-1.49 2.22,-0.10 2.20,0.16 2.18,0.43 2.10,0.68 2.01,0.94 1.87,1.17 1.73,1.40 1.54,1.58 1.34,1.77 1.11,1.90 0.88,2.04 0.62,2.12 0.36,2.19 0.10,2.20 -0.16,2.22 -0.43,2.16 -0.69,2.11 -0.93,2.00 -1.18,1.88 -1.39,1.72 -1.59,1.55 -1.76,1.33 -1.92,1.12 -2.03,0.87 -2.13,0.63 -2.18,0.36 -2.22,0.10 -2.22,0.10 L -2.22,0.10 Z"></path></g><g transform="translate(492.72395696052445 52.42306126701669) rotate(0 16.72798482984814 12.737871643661038)" stroke="none"><path fill="#1971c2" d="M -1.86,0.41 Q -1.86,0.41 -2.69,-2.04 -3.53,-4.51 -4.13,-6.94 -4.73,-9.38 -4.88,-12.05 -5.04,-14.73 -3.86,-17.42 -2.67,-20.12 -0.06,-22.01 2.55,-23.90 6.09,-24.83 9.64,-25.76 13.74,-25.51 17.83,-25.26 21.89,-23.31 25.95,-21.36 29.31,-17.64 32.66,-13.92 34.61,-8.32 36.57,-2.73 36.31,3.89 36.05,10.52 33.76,17.03 31.47,23.53 28.16,28.94 24.85,34.34 21.47,38.26 18.08,42.17 14.95,44.76 11.81,47.35 9.22,48.63 6.62,49.92 4.34,49.89 2.06,49.87 0.24,49.53 -1.56,49.19 -1.77,49.13 -1.97,49.08 -2.15,48.96 -2.32,48.84 -2.45,48.67 -2.58,48.50 -2.65,48.30 -2.71,48.09 -2.71,47.88 -2.71,47.67 -2.64,47.47 -2.58,47.27 -2.45,47.10 -2.32,46.93 -2.14,46.81 -1.96,46.69 -1.76,46.64 -1.55,46.58 -1.34,46.59 -1.13,46.60 -0.93,46.68 -0.74,46.76 -0.57,46.90 -0.41,47.04 -0.30,47.22 -0.20,47.40 -0.15,47.61 -0.11,47.82 -0.13,48.03 -0.15,48.24 -0.24,48.43 -0.33,48.63 -0.48,48.78 -0.62,48.93 -0.81,49.03 -1.00,49.13 -1.21,49.17 -1.42,49.20 -1.63,49.16 -1.84,49.13 -2.03,49.03 -2.21,48.93 -2.36,48.77 -2.51,48.62 -2.59,48.43 -2.68,48.23 -2.71,48.02 -2.73,47.81 -2.68,47.60 -2.64,47.40 -2.53,47.21 -2.42,47.03 -2.25,46.90 -2.09,46.76 -1.89,46.68 -1.70,46.60 -1.48,46.59 -1.27,46.58 -1.27,46.58 -1.27,46.58 0.10,46.60 1.49,46.62 2.81,45.92 4.13,45.21 6.10,44.00 8.07,42.78 10.83,40.51 13.58,38.23 16.68,34.71 19.78,31.19 22.82,26.33 25.86,21.48 27.96,15.80 30.07,10.13 30.46,4.56 30.84,-0.99 29.44,-5.56 28.03,-10.13 25.56,-13.12 23.09,-16.10 20.15,-17.70 17.20,-19.31 14.07,-19.62 10.95,-19.92 8.30,-19.37 5.66,-18.82 3.98,-17.97 2.31,-17.13 1.49,-15.84 0.66,-14.56 0.64,-12.47 0.62,-10.38 0.94,-7.99 1.26,-5.59 1.56,-3.00 1.86,-0.41 1.88,-0.19 1.90,0.03 1.87,0.26 1.84,0.49 1.75,0.70 1.67,0.92 1.53,1.10 1.40,1.29 1.22,1.44 1.05,1.59 0.84,1.69 0.64,1.79 0.41,1.84 0.19,1.89 -0.03,1.89 -0.26,1.88 -0.49,1.83 -0.71,1.77 -0.91,1.65 -1.11,1.54 -1.28,1.39 -1.45,1.23 -1.58,1.04 -1.70,0.85 -1.78,0.63 -1.86,0.41 -1.86,0.41 L -1.86,0.41 Z"></path></g><g transform="translate(523.6663312199544 93.86306712988926) rotate(0 15.307394169529402 -11.69942487137098)" stroke="none"><path fill="#1971c2" d="M -0.54,-2.03 Q -0.54,-2.03 1.92,-2.93 4.38,-3.83 6.43,-4.71 8.48,-5.60 10.51,-6.75 12.54,-7.90 14.72,-9.46 16.90,-11.02 18.80,-12.72 20.69,-14.42 22.25,-16.32 23.81,-18.22 24.81,-20.02 25.81,-21.82 26.24,-23.06 26.66,-24.31 27.81,-23.60 28.97,-22.90 27.41,-22.01 25.84,-21.12 24.27,-19.41 22.70,-17.70 21.46,-15.55 20.22,-13.39 19.40,-10.88 18.58,-8.37 18.35,-6.10 18.11,-3.83 18.51,-2.54 18.91,-1.24 20.28,-0.49 21.66,0.26 24.06,0.27 26.46,0.29 28.51,0.20 30.55,0.10 30.76,0.13 30.97,0.15 31.16,0.24 31.36,0.34 31.51,0.48 31.66,0.63 31.76,0.82 31.86,1.01 31.89,1.22 31.92,1.43 31.89,1.64 31.85,1.85 31.75,2.03 31.65,2.22 31.49,2.36 31.34,2.51 31.14,2.60 30.95,2.68 30.74,2.71 30.53,2.73 30.32,2.68 30.11,2.63 29.93,2.52 29.75,2.41 29.61,2.25 29.48,2.08 29.40,1.88 29.32,1.69 29.32,1.47 29.31,1.26 29.36,1.06 29.42,0.85 29.54,0.68 29.66,0.50 29.83,0.38 30.01,0.25 30.21,0.18 30.41,0.12 30.62,0.12 30.83,0.12 31.03,0.19 31.24,0.26 31.40,0.39 31.57,0.52 31.69,0.70 31.81,0.88 31.86,1.08 31.92,1.29 31.90,1.50 31.89,1.71 31.81,1.91 31.73,2.10 31.59,2.26 31.45,2.42 31.27,2.53 31.08,2.64 30.88,2.68 30.67,2.73 30.67,2.73 30.67,2.73 28.63,2.82 26.58,2.91 23.46,3.18 20.33,3.44 17.75,2.27 15.16,1.10 14.10,-1.51 13.03,-4.13 13.35,-7.06 13.66,-10.00 14.69,-13.00 15.73,-16.00 17.30,-18.63 18.88,-21.26 20.87,-23.34 22.86,-25.42 24.80,-26.59 26.73,-27.77 27.82,-27.81 28.90,-27.86 30.38,-25.41 31.87,-22.95 31.26,-21.03 30.65,-19.11 29.37,-16.88 28.09,-14.66 26.24,-12.47 24.38,-10.28 22.24,-8.40 20.09,-6.51 17.65,-4.80 15.21,-3.10 12.84,-1.80 10.46,-0.51 8.08,0.32 5.71,1.15 3.12,1.59 0.54,2.03 0.28,2.07 0.03,2.10 -0.21,2.08 -0.46,2.05 -0.70,1.97 -0.94,1.88 -1.15,1.74 -1.37,1.60 -1.54,1.41 -1.71,1.22 -1.83,1.00 -1.95,0.78 -2.02,0.53 -2.08,0.29 -2.09,0.03 -2.09,-0.21 -2.04,-0.46 -1.98,-0.71 -1.87,-0.94 -1.75,-1.16 -1.59,-1.36 -1.42,-1.55 -1.21,-1.70 -1.01,-1.85 -0.77,-1.94 -0.54,-2.03 -0.54,-2.03 L -0.54,-2.03 Z"></path></g><g transform="translate(587.082691249849 49.908572937656345) rotate(0 -17.767413824141727 48.0544078927075)" stroke="none"><path fill="#1971c2" d="M -1.89,0 Q -1.89,0 -2.13,-3.15 -2.38,-6.31 -2.61,-9.01 -2.85,-11.72 -3.68,-13.44 -4.51,-15.17 -5.72,-14.31 -6.93,-13.46 -7.64,-10.78 -8.34,-8.10 -8.89,-3.51 -9.44,1.06 -9.84,7.55 -10.24,14.04 -10.71,22.25 -11.18,30.46 -12.01,39.82 -12.85,49.19 -14.05,58.94 -15.24,68.68 -16.61,77.30 -17.98,85.91 -19.56,92.91 -21.14,99.90 -22.87,104.73 -24.59,109.56 -26.50,112.39 -28.41,115.23 -31.49,115.06 -34.57,114.89 -35.84,112.25 -37.11,109.62 -37.43,104.33 -37.75,99.03 -36.44,92.15 -35.14,85.27 -32.56,78.33 -29.97,71.39 -26.52,65.85 -23.07,60.32 -19.47,56.80 -15.86,53.27 -13.88,51.74 -11.89,50.22 -10.53,49.04 -9.16,47.87 -8.98,47.76 -8.80,47.65 -8.59,47.61 -8.38,47.56 -8.17,47.58 -7.96,47.60 -7.77,47.69 -7.57,47.78 -7.42,47.92 -7.26,48.07 -7.16,48.26 -7.06,48.44 -7.03,48.65 -6.99,48.86 -7.02,49.07 -7.06,49.28 -7.16,49.47 -7.26,49.66 -7.41,49.81 -7.56,49.95 -7.75,50.04 -7.95,50.13 -8.16,50.16 -8.37,50.18 -8.58,50.14 -8.78,50.09 -8.97,49.98 -9.15,49.87 -9.29,49.71 -9.43,49.55 -9.51,49.36 -9.59,49.16 -9.60,48.95 -9.61,48.73 -9.56,48.53 -9.50,48.32 -9.38,48.15 -9.26,47.97 -9.09,47.84 -8.93,47.71 -8.72,47.64 -8.52,47.57 -8.31,47.57 -8.10,47.57 -7.90,47.64 -7.70,47.71 -7.53,47.83 -7.36,47.96 -7.24,48.14 -7.12,48.31 -7.06,48.52 -7.00,48.72 -7.01,48.93 -7.02,49.15 -7.10,49.34 -7.18,49.54 -7.31,49.70 -7.45,49.87 -7.45,49.87 -7.45,49.87 -8.81,51.04 -10.18,52.21 -11.89,53.86 -13.60,55.50 -16.77,58.84 -19.94,62.19 -22.84,67.53 -25.74,72.87 -27.86,79.51 -29.98,86.15 -30.89,92.44 -31.81,98.74 -31.58,103.16 -31.36,107.58 -31.58,109.24 -31.80,110.91 -31.07,109.19 -30.34,107.47 -28.72,103.01 -27.11,98.56 -25.59,91.75 -24.07,84.95 -22.74,76.44 -21.41,67.93 -20.23,58.29 -19.05,48.64 -18.23,39.37 -17.41,30.10 -16.93,21.87 -16.46,13.65 -16.04,6.96 -15.61,0.27 -14.92,-4.81 -14.23,-9.90 -13.00,-13.51 -11.77,-17.11 -9.71,-19.13 -7.66,-21.15 -5.11,-21.07 -2.55,-20.98 -0.83,-19.17 0.89,-17.36 1.69,-14.67 2.49,-11.98 2.43,-9.14 2.38,-6.31 2.13,-3.15 1.89,0 1.87,0.22 1.84,0.45 1.76,0.66 1.68,0.88 1.55,1.07 1.42,1.25 1.24,1.41 1.07,1.56 0.87,1.66 0.67,1.77 0.45,1.82 0.22,1.88 -0.00,1.88 -0.22,1.88 -0.45,1.82 -0.67,1.77 -0.87,1.66 -1.07,1.56 -1.24,1.41 -1.42,1.25 -1.55,1.07 -1.68,0.88 -1.76,0.66 -1.84,0.45 -1.87,0.22 -1.89,-0.00 -1.89,-0.00 L -1.89,0 Z"></path></g><g transform="translate(621.9622280001779 85.3344632364433) rotate(0 30.865582357325763 -12.629053351377138)" stroke="none"><path fill="#1971c2" d="M -1.73,0.22 Q -1.73,0.22 -2.38,-1.76 -3.02,-3.74 -4.56,-4.83 -6.11,-5.91 -7.37,-5.97 -8.62,-6.03 -10.08,-5.48 -11.53,-4.94 -13.40,-3.95 -15.27,-2.97 -17.20,-1.38 -19.13,0.19 -20.83,2.17 -22.52,4.14 -23.61,6.18 -24.70,8.22 -25.21,9.85 -25.73,11.48 -23.87,11.75 -22.01,12.01 -20.36,11.39 -18.70,10.77 -16.62,9.29 -14.54,7.81 -12.82,6.08 -11.10,4.34 -9.92,2.72 -8.74,1.10 -8.13,0.00 -7.52,-1.08 -7.24,-1.73 -6.95,-2.38 -6.79,-2.66 -6.63,-2.94 -6.40,-3.17 -6.18,-3.40 -5.90,-3.57 -5.63,-3.75 -5.32,-3.85 -5.02,-3.95 -4.69,-3.97 -4.37,-3.99 -4.05,-3.94 -3.74,-3.89 -3.44,-3.76 -3.14,-3.63 -2.89,-3.43 -2.63,-3.24 -2.43,-2.99 -2.22,-2.74 -2.09,-2.44 -1.95,-2.15 -1.89,-1.84 -1.83,-1.52 -1.84,-1.20 -1.86,-0.87 -1.95,-0.56 -2.04,-0.25 -2.01,1.40 -1.98,3.07 -1.92,4.93 -1.86,6.79 -1.52,8.38 -1.18,9.98 -0.49,11.12 0.19,12.26 1.07,12.92 1.95,13.59 4.18,13.03 6.42,12.48 8.13,11.38 9.84,10.28 11.01,8.80 12.17,7.33 13.30,5.46 14.44,3.60 15.08,2.19 15.71,0.77 16.21,-0.49 16.70,-1.76 16.86,-2.04 17.03,-2.33 17.25,-2.56 17.48,-2.80 17.75,-2.98 18.03,-3.15 18.34,-3.26 18.65,-3.36 18.97,-3.39 19.30,-3.41 19.62,-3.36 19.94,-3.31 20.25,-3.18 20.55,-3.06 20.81,-2.86 21.07,-2.67 21.28,-2.41 21.49,-2.16 21.63,-1.87 21.77,-1.57 21.83,-1.25 21.90,-0.93 21.89,-0.60 21.88,-0.28 21.79,0.03 21.70,0.34 21.49,1.40 21.29,2.47 21.24,3.97 21.18,5.47 21.27,7.17 21.35,8.88 21.63,10.23 21.91,11.58 22.41,12.52 22.92,13.47 24.41,13.47 25.90,13.47 27.27,12.43 28.65,11.39 30.49,9.44 32.34,7.49 34.06,4.62 35.78,1.75 37.45,-2.08 39.11,-5.91 40.65,-10.53 42.18,-15.14 43.60,-19.91 45.02,-24.67 45.88,-28.27 46.74,-31.88 46.98,-33.72 47.23,-35.56 46.79,-36.57 46.36,-37.58 46.45,-37.92 46.54,-38.26 46.71,-38.57 46.87,-38.88 47.11,-39.14 47.35,-39.41 47.64,-39.60 47.93,-39.80 48.26,-39.92 48.59,-40.04 48.94,-40.08 49.29,-40.12 49.64,-40.07 49.99,-40.02 50.32,-39.89 50.64,-39.76 50.93,-39.56 51.22,-39.36 51.45,-39.09 51.68,-38.82 51.84,-38.51 52.00,-38.20 52.08,-37.85 52.16,-37.51 52.15,-37.16 52.15,-36.81 50.68,-35.23 49.20,-33.64 48.70,-32.05 48.20,-30.46 47.55,-27.42 46.91,-24.39 46.37,-20.23 45.82,-16.08 45.52,-11.30 45.23,-6.52 45.42,-2.52 45.60,1.46 46.53,4.92 47.45,8.37 48.78,10.37 50.12,12.36 51.35,13.09 52.59,13.82 54.29,13.35 55.99,12.89 58.32,11.37 60.66,9.85 62.87,7.17 65.09,4.49 67.14,0.44 69.20,-3.60 71.03,-8.79 72.86,-13.98 74.32,-19.50 75.79,-25.01 76.90,-29.64 78.02,-34.27 78.56,-37.01 79.10,-39.75 79.28,-40.98 79.46,-42.20 79.58,-42.54 79.69,-42.88 79.88,-43.19 80.08,-43.49 80.34,-43.74 80.60,-43.99 80.91,-44.17 81.22,-44.34 81.57,-44.44 81.92,-44.54 82.28,-44.56 82.64,-44.57 82.99,-44.50 83.34,-44.42 83.67,-44.27 83.99,-44.11 84.27,-43.88 84.55,-43.65 84.76,-43.36 84.98,-43.08 85.12,-42.74 85.26,-42.41 85.31,-42.06 85.37,-41.70 85.34,-41.34 85.31,-40.98 84.75,-39.21 84.20,-37.44 83.93,-34.43 83.65,-31.41 83.31,-27.12 82.98,-22.83 82.69,-17.94 82.41,-13.06 82.26,-8.29 82.12,-3.52 82.28,0.60 82.43,4.72 82.95,7.58 83.46,10.43 84.20,11.77 84.95,13.12 87.86,13.41 90.77,13.70 90.98,13.68 91.19,13.67 91.40,13.72 91.60,13.77 91.78,13.89 91.96,14.01 92.09,14.17 92.22,14.34 92.29,14.54 92.37,14.74 92.37,14.95 92.37,15.16 92.31,15.37 92.24,15.57 92.12,15.74 91.99,15.91 91.82,16.03 91.65,16.16 91.44,16.22 91.24,16.28 91.03,16.27 90.81,16.26 90.62,16.19 90.42,16.11 90.25,15.98 90.09,15.84 89.98,15.66 89.86,15.48 89.81,15.27 89.76,15.07 89.78,14.86 89.80,14.64 89.89,14.45 89.97,14.26 90.12,14.10 90.26,13.94 90.45,13.84 90.63,13.74 90.84,13.70 91.05,13.66 91.26,13.69 91.47,13.72 91.66,13.82 91.85,13.92 92.00,14.07 92.15,14.22 92.24,14.41 92.33,14.60 92.36,14.81 92.39,15.02 92.34,15.23 92.30,15.44 92.20,15.62 92.09,15.81 91.93,15.95 91.77,16.09 91.57,16.17 91.38,16.25 91.38,16.25 91.38,16.25 88.44,17.07 85.51,17.89 83.14,17.07 80.77,16.25 79.27,13.94 77.77,11.63 77.12,8.29 76.48,4.95 76.32,0.63 76.16,-3.69 76.30,-8.55 76.44,-13.41 76.73,-18.35 77.02,-23.29 77.36,-27.63 77.70,-31.97 78.03,-35.32 78.35,-38.68 78.90,-40.44 79.46,-42.20 79.58,-42.54 79.69,-42.88 79.88,-43.19 80.08,-43.49 80.34,-43.74 80.60,-43.99 80.91,-44.17 81.22,-44.34 81.57,-44.44 81.92,-44.54 82.28,-44.56 82.64,-44.57 82.99,-44.50 83.34,-44.42 83.66,-44.27 83.99,-44.11 84.27,-43.88 84.55,-43.65 84.76,-43.36 84.98,-43.08 85.12,-42.74 85.26,-42.41 85.31,-42.06 85.37,-41.70 85.34,-41.34 85.31,-40.98 85.12,-39.76 84.93,-38.54 84.31,-35.71 83.70,-32.88 82.53,-28.20 81.36,-23.52 79.83,-17.79 78.29,-12.06 76.30,-6.51 74.32,-0.96 71.91,3.62 69.49,8.22 66.60,11.48 63.71,14.74 60.31,16.67 56.92,18.61 53.63,18.78 50.34,18.95 47.86,17.30 45.37,15.65 43.61,12.78 41.85,9.92 40.82,5.84 39.78,1.75 39.60,-2.56 39.41,-6.88 39.72,-11.86 40.03,-16.84 40.62,-21.24 41.21,-25.64 42.03,-29.21 42.84,-32.77 44.60,-35.18 46.36,-37.58 46.45,-37.92 46.54,-38.26 46.71,-38.57 46.87,-38.88 47.11,-39.14 47.35,-39.40 47.64,-39.60 47.93,-39.80 48.26,-39.92 48.59,-40.04 48.94,-40.08 49.29,-40.12 49.64,-40.07 49.99,-40.02 50.32,-39.89 50.64,-39.76 50.93,-39.56 51.22,-39.36 51.45,-39.09 51.68,-38.83 51.84,-38.51 52.00,-38.20 52.08,-37.86 52.16,-37.51 52.15,-37.16 52.15,-36.81 52.54,-36.04 52.92,-35.28 52.60,-32.89 52.28,-30.50 51.30,-26.79 50.33,-23.08 48.87,-18.24 47.41,-13.40 45.79,-8.55 44.16,-3.70 42.32,0.46 40.47,4.62 38.38,7.96 36.29,11.29 33.96,13.65 31.62,16.01 29.09,17.45 26.55,18.88 24.15,18.83 21.74,18.77 20.00,17.50 18.26,16.22 17.41,14.45 16.55,12.67 16.23,10.90 15.90,9.13 15.82,7.19 15.74,5.25 15.83,3.48 15.91,1.71 16.30,-0.02 16.70,-1.76 16.86,-2.04 17.03,-2.33 17.25,-2.56 17.48,-2.80 17.75,-2.98 18.03,-3.15 18.34,-3.26 18.65,-3.36 18.97,-3.39 19.30,-3.41 19.62,-3.36 19.94,-3.31 20.25,-3.18 20.55,-3.06 20.81,-2.86 21.07,-2.67 21.28,-2.41 21.49,-2.16 21.63,-1.87 21.77,-1.57 21.83,-1.25 21.90,-0.93 21.89,-0.60 21.88,-0.28 21.79,0.03 21.70,0.34 21.10,1.69 20.49,3.03 19.68,4.70 18.87,6.36 17.50,8.50 16.13,10.65 14.40,12.61 12.67,14.57 10.51,15.95 8.34,17.32 5.90,18.12 3.45,18.92 1.15,18.37 -1.15,17.82 -2.77,16.38 -4.40,14.95 -5.41,13.03 -6.42,11.10 -6.81,9.04 -7.20,6.98 -7.27,4.98 -7.34,2.98 -7.31,1.45 -7.28,-0.07 -7.12,-1.22 -6.95,-2.38 -6.79,-2.66 -6.63,-2.94 -6.40,-3.17 -6.18,-3.40 -5.90,-3.57 -5.63,-3.75 -5.32,-3.85 -5.02,-3.95 -4.70,-3.97 -4.37,-3.99 -4.05,-3.94 -3.74,-3.89 -3.44,-3.76 -3.14,-3.63 -2.89,-3.44 -2.63,-3.24 -2.43,-2.99 -2.22,-2.74 -2.09,-2.44 -1.95,-2.15 -1.89,-1.84 -1.83,-1.52 -1.84,-1.20 -1.86,-0.87 -1.95,-0.56 -2.04,-0.25 -2.57,0.65 -3.11,1.56 -3.92,2.82 -4.73,4.08 -6.15,5.96 -7.58,7.85 -9.62,9.86 -11.66,11.88 -14.26,13.71 -16.87,15.54 -19.31,16.44 -21.75,17.35 -24.40,17.29 -27.05,17.24 -28.73,15.88 -30.42,14.52 -30.76,12.21 -31.10,9.91 -30.36,7.72 -29.63,5.52 -28.20,3.00 -26.77,0.48 -24.71,-1.84 -22.65,-4.17 -20.24,-6.06 -17.82,-7.95 -15.46,-9.11 -13.10,-10.27 -10.62,-10.87 -8.15,-11.47 -5.93,-11.11 -3.72,-10.76 -1.87,-9.58 -0.02,-8.40 0.96,-6.47 1.95,-4.55 1.84,-2.38 1.73,-0.22 1.73,-0.01 1.73,0.19 1.68,0.40 1.63,0.60 1.54,0.79 1.44,0.98 1.30,1.14 1.16,1.29 0.99,1.42 0.82,1.54 0.62,1.61 0.43,1.69 0.22,1.72 0.01,1.74 -0.19,1.72 -0.40,1.70 -0.60,1.62 -0.80,1.55 -0.97,1.43 -1.14,1.31 -1.29,1.16 -1.43,1.00 -1.53,0.81 -1.62,0.63 -1.68,0.42 -1.73,0.22 -1.73,0.22 L -1.73,0.22 Z"></path></g><g transform="translate(686.6901222836823 71.44816572038599) rotate(0 21.157657244822985 -6.122904092066165)" stroke="none"><path fill="#1971c2" d="M -0.45,2.42 Q -0.45,2.42 -1.67,2.46 -2.88,2.49 -3.03,2.50 -3.19,2.51 -3.54,2.39 -3.90,2.28 -4.21,2.09 -4.53,1.90 -4.79,1.63 -5.05,1.37 -5.23,1.05 -5.42,0.74 -5.53,0.38 -5.64,0.03 -5.66,-0.33 -5.68,-0.70 -5.61,-1.06 -5.54,-1.42 -5.39,-1.76 -5.24,-2.10 -5.01,-2.39 -4.78,-2.68 -4.48,-2.90 -4.19,-3.13 -3.85,-3.28 -3.52,-3.43 -3.15,-3.49 -2.79,-3.56 -2.42,-3.53 -2.05,-3.51 -0.87,-3.57 0.30,-3.64 3.04,-4.24 5.77,-4.84 10.21,-5.90 14.65,-6.95 20.37,-8.14 26.09,-9.32 31.88,-10.31 37.66,-11.29 41.84,-12.40 46.02,-13.51 46.23,-13.53 46.44,-13.55 46.65,-13.50 46.85,-13.46 47.04,-13.34 47.22,-13.23 47.35,-13.07 47.49,-12.91 47.56,-12.71 47.64,-12.51 47.65,-12.30 47.66,-12.08 47.60,-11.88 47.54,-11.68 47.42,-11.50 47.30,-11.33 47.13,-11.20 46.96,-11.07 46.76,-11.01 46.55,-10.94 46.34,-10.94 46.13,-10.95 45.93,-11.02 45.73,-11.09 45.56,-11.22 45.39,-11.35 45.27,-11.53 45.16,-11.70 45.10,-11.91 45.05,-12.11 45.06,-12.33 45.08,-12.54 45.16,-12.73 45.24,-12.93 45.38,-13.09 45.52,-13.25 45.70,-13.36 45.88,-13.47 46.09,-13.51 46.30,-13.55 46.51,-13.53 46.72,-13.50 46.91,-13.41 47.10,-13.32 47.26,-13.17 47.41,-13.02 47.51,-12.84 47.60,-12.65 47.64,-12.44 47.67,-12.23 47.63,-12.02 47.59,-11.81 47.49,-11.62 47.39,-11.43 47.24,-11.29 47.08,-11.15 46.89,-11.06 46.69,-10.97 46.69,-10.97 46.69,-10.97 42.51,-9.86 38.34,-8.75 32.81,-6.72 27.29,-4.70 21.69,-2.96 16.09,-1.23 11.57,-0.02 7.04,1.19 3.74,1.85 0.44,2.51 -1.37,2.51 -3.19,2.51 -3.54,2.39 -3.90,2.28 -4.21,2.09 -4.53,1.90 -4.79,1.63 -5.04,1.37 -5.23,1.05 -5.42,0.74 -5.53,0.38 -5.64,0.03 -5.66,-0.33 -5.68,-0.70 -5.61,-1.06 -5.54,-1.42 -5.39,-1.76 -5.24,-2.10 -5.01,-2.39 -4.78,-2.68 -4.48,-2.90 -4.19,-3.13 -3.85,-3.28 -3.52,-3.43 -3.15,-3.49 -2.79,-3.56 -2.42,-3.53 -2.05,-3.51 -1.91,-3.44 -1.77,-3.37 -0.65,-2.90 0.45,-2.42 0.74,-2.33 1.02,-2.24 1.27,-2.08 1.53,-1.93 1.74,-1.72 1.95,-1.51 2.10,-1.25 2.25,-0.99 2.34,-0.71 2.42,-0.43 2.44,-0.13 2.46,0.16 2.40,0.45 2.35,0.74 2.22,1.01 2.10,1.28 1.91,1.52 1.73,1.75 1.49,1.93 1.26,2.11 0.99,2.23 0.72,2.35 0.42,2.41 0.13,2.46 -0.16,2.44 -0.45,2.42 -0.45,2.42 L -0.45,2.42 Z"></path></g><g transform="translate(795.9201144086095 99.87611117906158) rotate(0 11.589505299870893 -39.31205165625386)" stroke="none"><path fill="#1971c2" d="M 0.76,1.75 Q 0.76,1.75 -0.34,2.57 -1.46,3.38 -1.70,3.59 -1.93,3.80 -2.27,3.90 -2.60,4.00 -2.94,4.01 -3.29,4.03 -3.63,3.96 -3.97,3.90 -4.28,3.75 -4.59,3.61 -4.86,3.39 -5.13,3.17 -5.34,2.90 -5.55,2.63 -5.69,2.31 -5.83,1.99 -5.88,1.65 -5.94,1.31 -5.92,0.97 -5.89,0.62 -5.79,0.29 -5.68,-0.03 -5.50,-0.32 -5.32,-0.61 -5.07,-0.85 -4.82,-1.09 -4.52,-1.27 -4.23,-1.45 -2.56,-4.79 -0.90,-8.13 1.11,-11.74 3.13,-15.36 6.06,-20.87 8.98,-26.38 11.60,-32.76 14.21,-39.14 16.36,-46.33 18.51,-53.52 19.98,-60.14 21.46,-66.77 22.29,-71.04 23.11,-75.30 23.42,-77.18 23.72,-79.06 23.84,-79.42 23.95,-79.78 24.15,-80.10 24.35,-80.42 24.62,-80.68 24.89,-80.95 25.21,-81.14 25.54,-81.33 25.90,-81.44 26.26,-81.55 26.64,-81.57 27.01,-81.59 27.38,-81.51 27.76,-81.44 28.10,-81.28 28.44,-81.13 28.73,-80.89 29.03,-80.65 29.26,-80.36 29.49,-80.06 29.64,-79.71 29.79,-79.36 29.85,-78.99 29.92,-78.62 29.89,-78.25 29.87,-77.87 29.17,-74.65 28.48,-71.43 27.94,-66.50 27.41,-61.57 27.18,-55.47 26.94,-49.37 26.92,-43.00 26.90,-36.64 27.08,-30.82 27.26,-25.01 27.34,-20.09 27.42,-15.18 27.24,-11.10 27.06,-7.03 26.36,-4.14 25.66,-1.26 25.34,0.77 25.02,2.80 24.96,3.00 24.90,3.21 24.77,3.38 24.65,3.55 24.48,3.67 24.30,3.80 24.10,3.86 23.90,3.92 23.68,3.91 23.47,3.91 23.27,3.84 23.07,3.76 22.91,3.63 22.74,3.49 22.63,3.32 22.51,3.14 22.46,2.93 22.41,2.72 22.43,2.51 22.45,2.30 22.53,2.10 22.62,1.91 22.76,1.75 22.90,1.59 23.09,1.49 23.27,1.39 23.48,1.35 23.69,1.31 23.90,1.34 24.11,1.36 24.30,1.46 24.49,1.55 24.64,1.70 24.79,1.86 24.88,2.05 24.98,2.24 25.01,2.45 25.03,2.66 24.99,2.87 24.95,3.07 24.85,3.26 24.74,3.44 24.58,3.59 24.43,3.73 24.23,3.81 24.04,3.89 23.82,3.91 23.61,3.93 23.41,3.88 23.20,3.82 23.02,3.71 22.84,3.60 22.71,3.43 22.58,3.26 22.50,3.06 22.43,2.86 22.43,2.65 22.42,2.44 22.42,2.44 22.42,2.44 22.66,0.40 22.91,-1.64 22.97,-4.27 23.03,-6.90 22.58,-10.90 22.12,-14.90 21.70,-19.84 21.27,-24.78 21.00,-30.71 20.73,-36.65 20.75,-43.13 20.76,-49.61 20.99,-55.92 21.23,-62.24 21.79,-67.40 22.35,-72.57 23.03,-75.81 23.72,-79.06 23.84,-79.42 23.95,-79.78 24.15,-80.10 24.35,-80.42 24.62,-80.68 24.89,-80.95 25.21,-81.14 25.54,-81.33 25.90,-81.44 26.26,-81.55 26.64,-81.57 27.01,-81.59 27.38,-81.51 27.75,-81.44 28.10,-81.28 28.44,-81.13 28.73,-80.89 29.03,-80.65 29.26,-80.36 29.49,-80.06 29.64,-79.71 29.79,-79.37 29.85,-78.99 29.92,-78.62 29.89,-78.25 29.87,-77.87 29.58,-75.99 29.29,-74.11 28.45,-69.75 27.60,-65.39 26.06,-58.55 24.52,-51.71 22.24,-44.24 19.97,-36.77 17.20,-30.11 14.43,-23.46 11.43,-17.90 8.44,-12.34 6.30,-8.66 4.17,-4.98 2.53,-2.37 0.88,0.24 -0.52,2.02 -1.93,3.80 -2.27,3.90 -2.60,4.00 -2.94,4.01 -3.29,4.03 -3.63,3.96 -3.96,3.90 -4.28,3.75 -4.59,3.61 -4.86,3.39 -5.13,3.18 -5.34,2.90 -5.55,2.63 -5.69,2.31 -5.83,1.99 -5.88,1.65 -5.94,1.31 -5.92,0.97 -5.89,0.62 -5.79,0.29 -5.68,-0.02 -5.50,-0.32 -5.32,-0.61 -5.07,-0.85 -4.82,-1.09 -4.52,-1.27 -4.23,-1.45 -3.83,-1.35 -3.44,-1.24 -2.10,-1.50 -0.76,-1.75 -0.54,-1.82 -0.32,-1.89 -0.09,-1.90 0.13,-1.91 0.36,-1.86 0.59,-1.82 0.80,-1.72 1.01,-1.62 1.19,-1.48 1.37,-1.34 1.51,-1.15 1.65,-0.97 1.74,-0.76 1.83,-0.54 1.87,-0.32 1.91,-0.09 1.89,0.13 1.88,0.36 1.81,0.58 1.74,0.80 1.61,1.00 1.49,1.20 1.33,1.36 1.16,1.52 0.96,1.64 0.76,1.75 0.76,1.75 L 0.76,1.75 Z"></path></g><g transform="translate(790.4526500360138 91.34744775700938) rotate(0 15.471544301352651 -8.746805999773414)" stroke="none"><path fill="#1971c2" d="M -2.39,0.31 Q -2.39,0.31 -2.74,-1.55 -3.08,-3.42 -1.79,-5.81 -0.49,-8.20 4.57,-11.32 9.65,-14.44 13.73,-15.89 17.81,-17.33 21.48,-17.72 25.15,-18.11 28.78,-18.07 32.41,-18.04 32.62,-18.01 32.84,-17.98 33.03,-17.89 33.22,-17.80 33.37,-17.65 33.52,-17.50 33.62,-17.32 33.72,-17.13 33.75,-16.92 33.78,-16.71 33.74,-16.50 33.71,-16.29 33.61,-16.10 33.50,-15.92 33.35,-15.77 33.19,-15.63 33.00,-15.54 32.80,-15.45 32.59,-15.43 32.38,-15.41 32.17,-15.46 31.97,-15.51 31.79,-15.62 31.61,-15.73 31.47,-15.90 31.33,-16.06 31.26,-16.26 31.18,-16.46 31.17,-16.67 31.16,-16.88 31.22,-17.09 31.28,-17.29 31.41,-17.46 31.53,-17.64 31.70,-17.76 31.87,-17.89 32.07,-17.96 32.27,-18.02 32.49,-18.02 32.70,-18.02 32.90,-17.95 33.10,-17.88 33.27,-17.74 33.43,-17.61 33.55,-17.44 33.67,-17.26 33.72,-17.05 33.78,-16.85 33.76,-16.64 33.75,-16.42 33.67,-16.23 33.59,-16.03 33.45,-15.87 33.31,-15.71 33.12,-15.60 32.94,-15.50 32.73,-15.45 32.52,-15.41 32.52,-15.41 32.52,-15.41 29.19,-15.08 25.85,-14.75 22.76,-13.72 19.67,-12.68 16.12,-11.06 12.58,-9.44 8.33,-7.09 4.08,-4.74 3.15,-3.94 2.22,-3.13 2.31,-1.72 2.39,-0.31 2.40,-0.02 2.40,0.26 2.33,0.55 2.26,0.83 2.13,1.09 2.00,1.35 1.81,1.57 1.62,1.79 1.38,1.96 1.14,2.13 0.87,2.23 0.60,2.34 0.31,2.38 0.02,2.41 -0.26,2.38 -0.55,2.35 -0.83,2.25 -1.10,2.15 -1.34,1.98 -1.58,1.82 -1.78,1.60 -1.97,1.39 -2.11,1.13 -2.25,0.87 -2.32,0.59 -2.39,0.31 -2.39,0.31 L -2.39,0.31 Z"></path></g><g transform="translate(826.0974270201006 81.61713988854444) rotate(0 19.62586714796919 2.732779728597393)" stroke="none"><path fill="#1971c2" d="M -2.19,0.65 Q -2.19,0.65 -3.01,-0.83 -3.84,-2.31 -3.52,-4.32 -3.21,-6.33 -1.50,-7.89 0.21,-9.44 2.99,-9.91 5.78,-10.38 8.85,-9.30 11.93,-8.22 14.49,-5.94 17.06,-3.66 18.83,-0.78 20.59,2.09 21.55,4.63 22.51,7.16 22.81,9.26 23.11,11.36 22.74,13.05 22.38,14.74 22.19,14.73 21.99,14.72 21.88,15.06 21.77,15.41 21.59,15.72 21.40,16.02 21.14,16.28 20.89,16.54 20.58,16.72 20.27,16.91 19.93,17.02 19.58,17.12 19.22,17.14 18.86,17.17 18.50,17.10 18.15,17.03 17.82,16.89 17.49,16.74 17.21,16.51 16.92,16.29 16.70,16.01 16.48,15.72 16.33,15.39 16.18,15.06 16.12,14.71 16.05,14.35 16.07,13.99 16.10,13.63 15.69,10.93 15.28,8.23 16.00,4.96 16.72,1.69 18.56,-1.33 20.40,-4.37 22.83,-6.38 25.25,-8.38 28.02,-9.29 30.78,-10.20 33.35,-10.04 35.91,-9.88 38.46,-9.47 41.02,-9.06 41.23,-9.01 41.43,-8.95 41.61,-8.84 41.78,-8.72 41.91,-8.55 42.04,-8.38 42.11,-8.18 42.18,-7.98 42.18,-7.77 42.18,-7.55 42.12,-7.35 42.05,-7.15 41.92,-6.98 41.80,-6.81 41.62,-6.69 41.45,-6.57 41.24,-6.51 41.04,-6.45 40.83,-6.46 40.61,-6.47 40.42,-6.55 40.22,-6.63 40.05,-6.77 39.89,-6.90 39.78,-7.08 39.67,-7.26 39.62,-7.47 39.58,-7.68 39.60,-7.89 39.62,-8.10 39.71,-8.29 39.80,-8.49 39.94,-8.64 40.09,-8.80 40.27,-8.90 40.46,-9.00 40.67,-9.04 40.88,-9.07 41.09,-9.04 41.30,-9.01 41.49,-8.91 41.68,-8.81 41.82,-8.66 41.97,-8.50 42.06,-8.31 42.15,-8.12 42.17,-7.91 42.20,-7.70 42.15,-7.49 42.11,-7.28 42.00,-7.10 41.89,-6.91 41.73,-6.78 41.57,-6.64 41.37,-6.56 41.18,-6.48 40.97,-6.46 40.75,-6.45 40.75,-6.45 40.75,-6.45 38.36,-6.55 35.96,-6.65 34.16,-6.41 32.35,-6.18 30.55,-5.16 28.74,-4.14 27.05,-2.67 25.35,-1.19 23.95,0.99 22.54,3.18 21.91,5.60 21.28,8.02 21.32,9.69 21.36,11.35 21.67,13.04 21.99,14.72 21.88,15.06 21.77,15.41 21.59,15.72 21.40,16.02 21.14,16.28 20.89,16.53 20.58,16.72 20.27,16.91 19.93,17.02 19.58,17.12 19.22,17.14 18.86,17.17 18.50,17.10 18.15,17.03 17.82,16.89 17.49,16.74 17.21,16.51 16.92,16.29 16.70,16.01 16.48,15.72 16.33,15.39 16.18,15.06 16.12,14.71 16.05,14.35 16.07,13.99 16.10,13.63 16.67,12.82 17.24,12.02 17.10,10.61 16.96,9.20 16.22,7.17 15.48,5.15 14.18,2.95 12.89,0.76 11.18,-0.89 9.48,-2.55 7.81,-3.40 6.14,-4.24 4.08,-4.02 2.02,-3.79 2.10,-2.22 2.19,-0.65 2.24,-0.38 2.28,-0.10 2.26,0.16 2.24,0.44 2.16,0.70 2.07,0.96 1.92,1.20 1.78,1.43 1.58,1.62 1.38,1.82 1.15,1.96 0.91,2.10 0.64,2.17 0.38,2.25 0.10,2.27 -0.16,2.28 -0.43,2.23 -0.70,2.17 -0.96,2.06 -1.21,1.94 -1.42,1.77 -1.64,1.59 -1.80,1.37 -1.97,1.15 -2.08,0.90 -2.19,0.65 -2.19,0.65 L -2.19,0.65 Z"></path></g><g transform="translate(890.1698518198313 72.10464719046604) rotate(0 46.90675589219302 -4.920753652499911)" stroke="none"><path fill="#1971c2" d="M -0.84,1.46 Q -0.84,1.46 -2.29,1.15 -3.75,0.85 -5.47,1.40 -7.18,1.96 -8.53,3.12 -9.88,4.29 -10.89,6.02 -11.90,7.75 -12.51,9.72 -13.12,11.70 -13.28,13.52 -13.44,15.34 -13.02,16.86 -12.61,18.37 -11.64,19.01 -10.68,19.66 -9.02,19.85 -7.35,20.05 -4.40,19.06 -1.45,18.08 2.21,15.97 5.87,13.85 9.35,10.76 12.83,7.67 15.80,3.57 18.77,-0.52 20.70,-5.51 22.64,-10.50 23.92,-15.89 25.19,-21.28 25.60,-25.12 26.01,-28.97 25.93,-30.35 25.84,-31.72 25.09,-32.49 24.34,-33.26 24.36,-33.60 24.37,-33.93 24.46,-34.26 24.55,-34.59 24.72,-34.88 24.89,-35.18 25.12,-35.42 25.36,-35.67 25.64,-35.85 25.93,-36.03 26.25,-36.14 26.57,-36.25 26.91,-36.28 27.24,-36.31 27.58,-36.26 27.91,-36.21 28.23,-36.07 28.54,-35.94 28.81,-35.74 29.09,-35.54 29.30,-35.28 29.52,-35.02 29.66,-34.71 29.81,-34.40 29.88,-34.07 29.95,-33.74 28.86,-31.51 27.77,-29.27 27.32,-26.74 26.87,-24.20 26.66,-20.27 26.45,-16.34 26.84,-11.96 27.24,-7.57 28.36,-3.73 29.49,0.10 31.07,3.03 32.66,5.95 34.25,7.61 35.84,9.26 37.09,9.82 38.33,10.37 39.35,9.95 40.36,9.52 41.62,8.35 42.88,7.18 44.34,5.31 45.80,3.44 47.18,1.57 48.56,-0.29 49.71,-1.75 50.87,-3.21 51.89,-4.24 52.92,-5.26 55.29,-5.48 57.66,-5.69 59.21,-3.14 60.77,-0.58 61.55,1.24 62.33,3.07 63.72,4.94 65.12,6.80 67.57,8.57 70.03,10.35 74.32,12.14 78.60,13.94 84.43,15.82 90.25,17.70 96.13,19.93 102.01,22.16 106.54,23.29 111.06,24.41 111.26,24.50 111.46,24.58 111.61,24.72 111.77,24.86 111.88,25.04 111.99,25.23 112.03,25.44 112.07,25.64 112.04,25.86 112.01,26.07 111.92,26.26 111.83,26.45 111.68,26.60 111.53,26.75 111.34,26.85 111.15,26.94 110.94,26.97 110.73,27.00 110.52,26.96 110.31,26.93 110.13,26.82 109.94,26.72 109.80,26.56 109.65,26.40 109.57,26.21 109.48,26.02 109.46,25.80 109.45,25.59 109.50,25.39 109.55,25.18 109.66,25.00 109.77,24.82 109.94,24.69 110.10,24.55 110.30,24.48 110.50,24.40 110.71,24.39 110.92,24.39 111.13,24.45 111.33,24.51 111.50,24.63 111.68,24.75 111.80,24.93 111.93,25.10 111.99,25.30 112.06,25.50 112.05,25.72 112.05,25.93 111.98,26.13 111.90,26.33 111.77,26.49 111.64,26.66 111.46,26.78 111.28,26.89 111.08,26.95 110.87,27.00 110.66,26.98 110.45,26.97 110.45,26.97 110.45,26.97 105.90,25.91 101.36,24.84 94.96,24.12 88.57,23.39 82.29,21.67 76.02,19.96 71.07,17.78 66.11,15.60 62.98,13.13 59.85,10.67 58.09,8.12 56.33,5.56 55.45,3.34 54.58,1.11 54.65,-0.08 54.72,-1.27 55.24,-0.30 55.75,0.66 54.66,2.03 53.56,3.41 52.09,5.38 50.62,7.35 48.65,9.71 46.68,12.06 44.23,13.74 41.77,15.43 39.08,15.70 36.39,15.96 33.95,14.70 31.50,13.44 29.44,11.11 27.38,8.78 25.58,5.26 23.77,1.74 22.59,-2.66 21.40,-7.07 21.04,-11.88 20.68,-16.69 20.98,-21.04 21.28,-25.40 22.81,-29.33 24.34,-33.26 24.36,-33.59 24.37,-33.93 24.46,-34.26 24.55,-34.59 24.72,-34.88 24.89,-35.18 25.12,-35.42 25.36,-35.67 25.64,-35.85 25.93,-36.03 26.25,-36.14 26.57,-36.25 26.91,-36.28 27.24,-36.31 27.58,-36.26 27.91,-36.21 28.23,-36.07 28.54,-35.94 28.81,-35.74 29.08,-35.54 29.30,-35.28 29.52,-35.02 29.66,-34.71 29.81,-34.40 29.88,-34.07 29.95,-33.74 30.36,-33.60 30.76,-33.47 31.02,-30.87 31.28,-28.28 30.60,-24.20 29.92,-20.12 28.48,-14.43 27.04,-8.75 24.79,-3.27 22.54,2.19 19.23,6.65 15.92,11.12 12.12,14.51 8.31,17.90 4.21,20.44 0.11,22.98 -3.97,24.20 -8.06,25.43 -11.06,24.74 -14.07,24.05 -15.94,22.14 -17.81,20.23 -18.44,17.55 -19.07,14.87 -18.78,12.39 -18.48,9.91 -17.55,7.34 -16.63,4.76 -15.02,2.41 -13.41,0.05 -11.41,-1.47 -9.41,-3.01 -7.25,-3.74 -5.10,-4.48 -3.18,-4.11 -1.26,-3.74 -0.21,-2.60 0.84,-1.46 1.00,-1.33 1.16,-1.21 1.29,-1.05 1.42,-0.90 1.51,-0.71 1.59,-0.53 1.63,-0.33 1.67,-0.13 1.67,0.06 1.66,0.26 1.60,0.46 1.55,0.65 1.44,0.83 1.34,1.01 1.20,1.15 1.06,1.30 0.89,1.41 0.72,1.52 0.53,1.58 0.33,1.65 0.13,1.66 -0.06,1.68 -0.26,1.65 -0.46,1.61 -0.65,1.53 -0.84,1.45 -0.84,1.45 L -0.84,1.46 Z"></path></g><g transform="translate(10 789.5371000713931) rotate(0 72.43686367920208 -24.055271684215825)" stroke="none"><path fill="#1971c2" d="M 0.21,-1.68 Q 0.21,-1.68 0.78,-1.96 1.35,-2.24 2.89,-4.64 4.43,-7.03 6.18,-9.64 7.93,-12.25 9.82,-15.68 11.72,-19.11 13.63,-22.86 15.55,-26.62 17.10,-31.13 18.66,-35.64 19.85,-40.34 21.04,-45.03 21.95,-48.86 22.86,-52.68 23.39,-55.07 23.93,-57.46 24.06,-58.80 24.19,-60.15 24.30,-60.50 24.42,-60.84 24.61,-61.15 24.81,-61.46 25.07,-61.72 25.33,-61.97 25.65,-62.16 25.96,-62.34 26.31,-62.45 26.66,-62.55 27.03,-62.57 27.39,-62.58 27.75,-62.51 28.11,-62.44 28.44,-62.29 28.77,-62.13 29.06,-61.90 29.34,-61.67 29.56,-61.38 29.79,-61.09 29.93,-60.75 30.08,-60.42 30.14,-60.06 30.20,-59.70 30.17,-59.33 30.14,-58.97 29.35,-57.45 28.56,-55.93 27.71,-53.66 26.85,-51.40 25.89,-47.79 24.92,-44.18 24.09,-40.03 23.27,-35.88 22.48,-30.19 21.70,-24.51 21.30,-19.29 20.90,-14.07 20.89,-9.78 20.88,-5.49 21.42,-2.54 21.97,0.40 22.67,1.61 23.37,2.82 24.73,1.66 26.09,0.50 27.83,-1.91 29.57,-4.34 31.40,-7.79 33.23,-11.24 34.69,-15.54 36.15,-19.85 37.49,-24.61 38.84,-29.37 39.94,-33.01 41.04,-36.66 41.62,-38.79 42.20,-40.92 42.47,-41.89 42.73,-42.86 42.87,-43.20 43.00,-43.54 43.22,-43.84 43.43,-44.13 43.71,-44.37 43.99,-44.60 44.32,-44.77 44.65,-44.93 45.00,-45.01 45.36,-45.09 45.72,-45.08 46.09,-45.07 46.44,-44.98 46.79,-44.88 47.11,-44.70 47.43,-44.53 47.70,-44.28 47.97,-44.03 48.17,-43.73 48.37,-43.42 48.49,-43.08 48.62,-42.73 48.65,-42.37 48.69,-42.00 48.64,-41.64 48.58,-41.28 47.64,-39.12 46.71,-36.97 46.12,-34.65 45.54,-32.34 45.08,-29.43 44.63,-26.53 44.37,-23.59 44.12,-20.65 44.13,-17.81 44.13,-14.96 44.50,-13.07 44.86,-11.17 45.86,-10.18 46.86,-9.19 48.34,-10.61 49.82,-12.03 51.38,-13.78 52.93,-15.54 54.77,-17.62 56.60,-19.69 58.28,-21.64 59.96,-23.59 61.29,-25.02 62.62,-26.45 63.99,-27.40 65.35,-28.35 67.32,-28.57 69.28,-28.78 70.86,-27.74 72.45,-26.70 73.28,-24.68 74.11,-22.66 74.27,-20.20 74.44,-17.73 73.60,-14.75 72.77,-11.78 71.37,-9.00 69.96,-6.22 68.28,-3.96 66.60,-1.70 65.16,-0.33 63.73,1.03 61.16,1.28 58.59,1.54 57.58,0.46 56.56,-0.61 56.52,-2.59 56.47,-4.57 57.35,-6.42 58.24,-8.28 59.65,-9.76 61.07,-11.24 62.95,-12.31 64.83,-13.37 66.86,-13.93 68.88,-14.49 71.03,-14.46 73.19,-14.42 75.05,-14.02 76.92,-13.62 78.74,-13.19 80.56,-12.75 82.46,-12.49 84.36,-12.23 86.29,-12.22 88.22,-12.20 89.79,-12.55 91.36,-12.89 92.85,-13.73 94.33,-14.57 95.42,-15.74 96.51,-16.91 97.37,-18.14 98.23,-19.37 98.62,-20.47 99.02,-21.57 98.82,-22.90 98.62,-24.23 97.98,-22.26 97.33,-20.29 96.41,-18.52 95.49,-16.74 94.86,-14.71 94.23,-12.68 94.10,-10.65 93.98,-8.62 94.32,-7.00 94.67,-5.38 95.62,-3.90 96.57,-2.42 97.88,-1.60 99.19,-0.78 100.67,-0.62 102.15,-0.46 103.79,-1.09 105.44,-1.72 107.10,-3.10 108.75,-4.48 110.42,-6.37 112.08,-8.26 113.42,-10.19 114.76,-12.13 115.62,-13.85 116.48,-15.57 116.86,-16.71 117.24,-17.85 117.69,-19.12 118.15,-20.39 120.25,-21.44 122.35,-22.49 123.73,-22.55 125.11,-22.61 126.79,-22.66 128.47,-22.72 130.06,-22.52 131.64,-22.32 133.24,-21.16 134.85,-19.99 135.53,-17.87 136.21,-15.74 135.69,-13.14 135.16,-10.53 134.15,-7.96 133.15,-5.39 132.23,-3.03 131.30,-0.66 130.62,1.38 129.93,3.44 129.81,5.06 129.68,6.68 131.09,7.82 132.49,8.96 134.83,9.57 137.17,10.18 139.28,10.14 141.38,10.10 143.05,9.92 144.72,9.73 144.94,9.74 145.15,9.75 145.35,9.83 145.54,9.91 145.71,10.05 145.87,10.19 145.98,10.37 146.09,10.55 146.13,10.76 146.18,10.96 146.16,11.18 146.13,11.39 146.05,11.58 145.96,11.77 145.81,11.93 145.67,12.08 145.48,12.18 145.29,12.28 145.08,12.32 144.87,12.35 144.66,12.32 144.45,12.28 144.26,12.18 144.08,12.09 143.93,11.93 143.78,11.78 143.69,11.58 143.60,11.39 143.58,11.18 143.56,10.97 143.60,10.76 143.65,10.55 143.76,10.37 143.87,10.19 144.03,10.05 144.19,9.91 144.39,9.84 144.58,9.76 144.80,9.74 145.01,9.73 145.21,9.79 145.42,9.85 145.59,9.96 145.77,10.08 145.90,10.25 146.03,10.42 146.10,10.62 146.16,10.82 146.16,11.04 146.17,11.25 146.10,11.45 146.03,11.65 145.90,11.82 145.77,11.99 145.60,12.11 145.42,12.23 145.22,12.29 145.01,12.34 145.01,12.34 145.01,12.34 143.34,12.53 141.67,12.72 139.25,13.18 136.83,13.64 133.43,13.66 130.03,13.67 127.78,12.34 125.53,11.00 124.58,8.79 123.63,6.59 123.86,4.06 124.10,1.53 124.86,-0.70 125.61,-2.95 126.58,-5.31 127.55,-7.67 128.49,-9.86 129.42,-12.04 130.06,-14.15 130.69,-16.25 129.68,-16.58 128.66,-16.91 127.01,-16.85 125.36,-16.79 124.09,-16.36 122.82,-15.94 122.28,-14.42 121.75,-12.91 120.68,-10.83 119.62,-8.75 118.05,-6.52 116.49,-4.30 114.42,-2.04 112.36,0.21 109.79,2.05 107.23,3.88 104.29,4.59 101.35,5.31 98.65,4.67 95.96,4.04 93.81,2.34 91.67,0.64 90.35,-1.80 89.03,-4.25 88.65,-6.64 88.27,-9.03 88.52,-11.71 88.78,-14.40 89.61,-16.91 90.45,-19.43 91.69,-21.69 92.93,-23.95 94.48,-25.70 96.03,-27.45 97.83,-28.14 99.63,-28.82 101.62,-27.80 103.61,-26.78 104.15,-25.17 104.69,-23.55 104.53,-21.53 104.38,-19.51 103.62,-17.79 102.86,-16.06 101.67,-14.47 100.49,-12.89 98.73,-11.26 96.98,-9.63 94.73,-8.54 92.49,-7.45 90.34,-7.07 88.18,-6.68 85.89,-6.72 83.59,-6.76 81.44,-7.07 79.29,-7.38 77.50,-7.80 75.71,-8.22 74.33,-8.55 72.95,-8.88 71.58,-8.99 70.22,-9.10 68.83,-8.76 67.43,-8.43 66.20,-7.83 64.97,-7.22 63.52,-5.53 62.08,-3.83 61.06,-3.49 60.04,-3.16 61.10,-4.11 62.15,-5.07 63.57,-6.92 64.99,-8.76 66.17,-11.07 67.35,-13.39 68.00,-15.46 68.64,-17.53 67.86,-19.91 67.07,-22.28 65.84,-20.94 64.61,-19.60 62.90,-17.61 61.19,-15.62 59.34,-13.54 57.49,-11.45 55.59,-9.36 53.69,-7.28 51.63,-5.78 49.57,-4.29 47.33,-4.06 45.09,-3.83 43.25,-4.95 41.42,-6.08 40.26,-7.99 39.10,-9.91 38.65,-12.43 38.20,-14.94 38.21,-18.05 38.21,-21.15 38.48,-24.31 38.76,-27.46 39.26,-30.64 39.77,-33.82 40.48,-36.53 41.20,-39.25 41.96,-41.06 42.73,-42.86 42.87,-43.20 43.00,-43.54 43.22,-43.84 43.43,-44.13 43.71,-44.37 43.99,-44.60 44.32,-44.77 44.65,-44.93 45.00,-45.01 45.36,-45.09 45.72,-45.08 46.09,-45.07 46.44,-44.98 46.79,-44.88 47.11,-44.70 47.43,-44.53 47.70,-44.28 47.97,-44.03 48.17,-43.73 48.37,-43.42 48.49,-43.08 48.62,-42.73 48.65,-42.37 48.69,-42.00 48.64,-41.64 48.58,-41.28 48.35,-40.30 48.11,-39.32 47.52,-37.10 46.93,-34.88 45.84,-31.28 44.76,-27.69 43.35,-22.77 41.94,-17.85 40.29,-13.10 38.63,-8.35 36.54,-4.51 34.45,-0.67 32.06,2.36 29.67,5.41 27.03,6.84 24.40,8.27 21.83,7.43 19.26,6.60 17.74,4.08 16.21,1.56 15.60,-1.97 15.00,-5.50 15.02,-10.01 15.04,-14.51 15.45,-19.91 15.86,-25.31 16.67,-31.17 17.48,-37.03 18.34,-41.38 19.20,-45.72 20.25,-49.61 21.30,-53.49 22.75,-56.82 24.19,-60.15 24.30,-60.50 24.42,-60.84 24.61,-61.15 24.81,-61.46 25.07,-61.72 25.33,-61.97 25.65,-62.16 25.96,-62.34 26.31,-62.45 26.66,-62.55 27.03,-62.57 27.39,-62.58 27.75,-62.51 28.11,-62.44 28.44,-62.29 28.77,-62.13 29.06,-61.90 29.34,-61.67 29.56,-61.38 29.79,-61.09 29.93,-60.75 30.08,-60.42 30.14,-60.06 30.20,-59.70 30.17,-59.33 30.14,-58.97 30.25,-58.97 30.36,-58.97 30.19,-57.53 30.01,-56.09 29.46,-53.67 28.92,-51.24 28.00,-47.36 27.08,-43.48 25.81,-38.54 24.53,-33.60 22.80,-28.69 21.07,-23.79 19.07,-19.93 17.07,-16.08 14.98,-12.46 12.88,-8.84 10.95,-6.10 9.02,-3.37 7.34,-1.40 5.67,0.56 3.83,1.61 1.98,2.66 0.88,2.17 -0.21,1.68 -0.41,1.63 -0.61,1.58 -0.79,1.48 -0.97,1.39 -1.12,1.25 -1.27,1.11 -1.39,0.95 -1.50,0.78 -1.57,0.58 -1.65,0.39 -1.67,0.19 -1.69,-0.00 -1.67,-0.21 -1.64,-0.41 -1.57,-0.60 -1.49,-0.79 -1.38,-0.96 -1.26,-1.13 -1.11,-1.26 -0.95,-1.40 -0.77,-1.49 -0.59,-1.59 -0.39,-1.63 -0.19,-1.68 0.00,-1.68 0.21,-1.68 0.21,-1.68 L 0.21,-1.68 Z"></path></g><g transform="translate(179.25560274098734 772.2612437136268) rotate(0 8.529109886599315 -0.7739909388812976)" stroke="none"><path fill="#1971c2" d="M -0.06,2.19 Q -0.06,2.19 -2.56,2.29 -5.06,2.39 -6.55,2.57 -8.04,2.74 -7.73,1.29 -7.43,-0.16 -6.22,-0.52 -5.01,-0.89 -2.06,-0.92 0.88,-0.95 4.27,-1.23 7.65,-1.51 11.21,-1.78 14.77,-2.05 18.33,-2.74 21.88,-3.43 24.84,-4.25 27.80,-5.07 28.01,-5.10 28.22,-5.14 28.43,-5.10 28.64,-5.06 28.83,-4.96 29.01,-4.86 29.16,-4.70 29.30,-4.55 29.39,-4.35 29.47,-4.16 29.50,-3.95 29.52,-3.74 29.47,-3.53 29.42,-3.32 29.31,-3.14 29.20,-2.96 29.03,-2.82 28.87,-2.69 28.67,-2.61 28.47,-2.54 28.26,-2.53 28.05,-2.52 27.84,-2.58 27.64,-2.64 27.46,-2.76 27.29,-2.88 27.16,-3.05 27.04,-3.22 26.97,-3.42 26.91,-3.63 26.91,-3.84 26.91,-4.05 26.98,-4.25 27.05,-4.45 27.18,-4.62 27.31,-4.79 27.49,-4.90 27.67,-5.02 27.87,-5.08 28.08,-5.13 28.29,-5.12 28.50,-5.10 28.70,-5.02 28.90,-4.94 29.06,-4.80 29.22,-4.66 29.32,-4.48 29.43,-4.29 29.47,-4.09 29.52,-3.88 29.49,-3.67 29.47,-3.46 29.37,-3.26 29.28,-3.07 29.13,-2.92 28.99,-2.77 28.80,-2.67 28.61,-2.57 28.61,-2.57 28.61,-2.57 25.67,-1.48 22.72,-0.39 19.11,0.89 15.50,2.19 11.83,3.15 8.17,4.10 4.54,4.46 0.91,4.83 -2.32,4.83 -5.56,4.83 -8.29,4.19 -11.02,3.55 -11.73,2.70 -12.44,1.86 -10.49,-0.36 -8.54,-2.59 -6.73,-2.64 -4.91,-2.70 -2.42,-2.44 0.06,-2.19 0.32,-2.15 0.59,-2.11 0.83,-2.01 1.08,-1.91 1.29,-1.75 1.50,-1.60 1.67,-1.39 1.84,-1.19 1.96,-0.95 2.07,-0.71 2.13,-0.45 2.18,-0.19 2.18,0.06 2.17,0.33 2.10,0.58 2.03,0.84 1.90,1.07 1.77,1.30 1.58,1.49 1.40,1.68 1.18,1.83 0.96,1.97 0.71,2.06 0.46,2.14 0.19,2.17 -0.06,2.19 -0.06,2.19 L -0.06,2.19 Z"></path></g><g transform="translate(203.63846034557417 758.5936542970502) rotate(0 1.6606248830001107 20.61014288854244)" stroke="none"><path fill="#1971c2" d="M -0.71,1.98 Q -0.71,1.98 -2.60,1.75 -4.49,1.53 -5.09,-1.30 -5.69,-4.14 -3.42,-3.22 -1.14,-2.30 0.92,-1.42 2.98,-0.55 5.21,0.65 7.43,1.86 9.29,2.90 11.15,3.93 12.57,4.73 13.98,5.54 14.96,6.20 15.93,6.86 16.75,8.27 17.57,9.69 17.51,11.07 17.45,12.46 16.25,13.87 15.05,15.28 13.58,16.45 12.12,17.62 10.15,19.25 8.19,20.88 5.82,23.17 3.45,25.46 0.81,28.18 -1.83,30.89 -4.02,33.65 -6.20,36.41 -7.62,38.33 -9.05,40.26 -9.98,42.08 -10.92,43.91 -11.03,44.09 -11.14,44.27 -11.31,44.40 -11.47,44.54 -11.67,44.61 -11.87,44.69 -12.08,44.70 -12.29,44.71 -12.49,44.65 -12.70,44.59 -12.87,44.46 -13.05,44.34 -13.17,44.17 -13.30,44.00 -13.36,43.80 -13.43,43.60 -13.43,43.38 -13.42,43.17 -13.35,42.97 -13.28,42.77 -13.15,42.60 -13.02,42.44 -12.84,42.32 -12.67,42.20 -12.46,42.15 -12.25,42.09 -12.04,42.11 -11.83,42.12 -11.63,42.20 -11.44,42.29 -11.28,42.43 -11.12,42.57 -11.01,42.75 -10.90,42.93 -10.86,43.14 -10.82,43.35 -10.84,43.56 -10.87,43.77 -10.96,43.96 -11.05,44.15 -11.20,44.31 -11.35,44.46 -11.54,44.56 -11.73,44.65 -11.94,44.68 -12.15,44.72 -12.36,44.68 -12.57,44.64 -12.75,44.54 -12.94,44.44 -13.08,44.28 -13.23,44.12 -13.31,43.93 -13.40,43.74 -13.42,43.52 -13.44,43.31 -13.39,43.11 -13.34,42.90 -13.34,42.90 -13.34,42.90 -12.70,40.90 -12.05,38.90 -11.33,36.08 -10.60,33.25 -8.42,29.97 -6.24,26.68 -3.55,23.82 -0.87,20.97 1.66,18.53 4.19,16.09 6.22,14.39 8.25,12.70 9.58,11.83 10.91,10.96 9.52,10.17 8.12,9.38 6.28,8.36 4.43,7.34 2.49,6.26 0.54,5.19 -1.44,4.34 -3.43,3.50 -6.11,2.21 -8.79,0.92 -8.81,-1.46 -8.82,-3.86 -7.05,-4.33 -5.28,-4.79 -3.88,-4.42 -2.48,-4.04 -0.88,-3.01 0.71,-1.98 0.94,-1.87 1.16,-1.75 1.36,-1.59 1.55,-1.42 1.70,-1.21 1.85,-1.01 1.94,-0.77 2.04,-0.53 2.07,-0.28 2.11,-0.03 2.08,0.21 2.05,0.47 1.97,0.71 1.88,0.94 1.74,1.16 1.60,1.37 1.41,1.54 1.22,1.71 1.00,1.83 0.78,1.96 0.53,2.02 0.28,2.09 0.03,2.09 -0.21,2.09 -0.46,2.04 -0.71,1.98 -0.71,1.98 L -0.71,1.98 Z"></path></g><g transform="translate(160.88677140757642 781.9926230970046) rotate(0 136.77999481600133 -15.909347436255075)" stroke="none"><path fill="#1971c2" d="M -1.17,1.08 Q -1.17,1.08 -2.63,-0.32 -4.08,-1.73 -4.99,-2.70 -5.91,-3.67 -6.81,-4.48 -7.71,-5.30 -7.81,-5.41 -7.91,-5.52 -8.07,-5.71 -8.23,-5.90 -8.33,-6.13 -8.44,-6.35 -8.49,-6.60 -8.55,-6.84 -8.54,-7.09 -8.53,-7.34 -8.46,-7.59 -8.39,-7.83 -8.27,-8.04 -8.14,-8.26 -7.97,-8.44 -7.80,-8.62 -7.59,-8.76 -7.38,-8.89 -7.14,-8.97 -6.90,-9.05 -6.66,-9.08 -6.41,-9.10 -6.16,-9.06 -5.91,-9.02 -5.68,-8.92 -5.45,-8.83 -5.25,-8.68 -5.05,-8.53 -3.92,-9.02 -2.80,-9.51 0.16,-9.59 3.12,-9.67 7.96,-10.06 12.80,-10.45 19.57,-11.20 26.35,-11.95 35.22,-12.91 44.09,-13.88 54.78,-15.02 65.47,-16.16 77.62,-17.22 89.76,-18.29 102.62,-19.30 115.49,-20.31 128.40,-21.18 141.31,-22.05 153.85,-22.80 166.39,-23.54 178.19,-24.20 189.98,-24.86 200.79,-25.52 211.59,-26.18 221.23,-26.73 230.87,-27.28 239.31,-27.82 247.74,-28.36 254.01,-28.77 260.28,-29.19 265.28,-29.50 270.29,-29.82 273.04,-30.00 275.79,-30.17 277.04,-30.30 278.30,-30.42 278.65,-30.40 279.00,-30.38 279.34,-30.28 279.68,-30.17 279.99,-29.99 280.29,-29.81 280.54,-29.56 280.79,-29.31 280.98,-29.00 281.16,-28.70 281.27,-28.36 281.37,-28.02 281.40,-27.67 281.42,-27.32 281.35,-26.97 281.29,-26.62 281.15,-26.29 281.00,-25.97 280.78,-25.69 280.56,-25.41 280.29,-25.19 280.01,-24.97 279.68,-24.83 279.36,-24.68 279.01,-24.61 278.66,-24.55 277.68,-25.24 276.69,-25.93 275.20,-25.86 273.71,-25.79 272.04,-26.30 270.38,-26.80 268.51,-27.29 266.64,-27.79 264.35,-28.38 262.06,-28.97 259.34,-29.59 256.62,-30.21 253.57,-30.85 250.51,-31.49 247.24,-32.12 243.96,-32.75 240.76,-33.45 237.56,-34.15 234.87,-34.80 232.18,-35.44 229.81,-36.05 227.44,-36.65 225.84,-37.16 224.23,-37.67 223.12,-38.05 222.01,-38.44 221.10,-38.84 220.20,-39.24 219.88,-39.43 219.56,-39.62 219.30,-39.88 219.04,-40.14 218.85,-40.45 218.65,-40.76 218.54,-41.11 218.43,-41.47 218.40,-41.83 218.38,-42.20 218.44,-42.56 218.51,-42.93 218.66,-43.26 218.81,-43.60 219.03,-43.89 219.26,-44.18 219.55,-44.41 219.83,-44.64 220.17,-44.80 220.51,-44.95 220.87,-45.02 221.23,-45.09 221.60,-45.07 221.97,-45.05 222.32,-44.94 222.67,-44.83 225.64,-44.26 228.60,-43.68 231.38,-43.00 234.16,-42.32 237.65,-41.25 241.14,-40.19 244.89,-39.07 248.65,-37.94 252.52,-36.50 256.39,-35.06 259.89,-33.18 263.39,-31.30 266.15,-29.63 268.90,-27.96 271.00,-26.64 273.09,-25.32 274.42,-24.41 275.75,-23.49 276.82,-20.99 277.89,-18.49 275.89,-17.36 273.89,-16.23 272.08,-15.73 270.27,-15.24 267.69,-14.17 265.11,-13.11 261.28,-11.35 257.45,-9.59 252.41,-7.12 247.36,-4.65 241.38,-1.89 235.41,0.86 229.07,3.15 222.73,5.43 217.21,7.03 211.69,8.63 207.76,10.12 203.83,11.61 203.62,11.65 203.41,11.69 203.20,11.67 202.99,11.64 202.80,11.55 202.61,11.46 202.46,11.31 202.31,11.16 202.21,10.97 202.11,10.78 202.08,10.57 202.05,10.36 202.09,10.15 202.13,9.94 202.23,9.75 202.33,9.57 202.49,9.43 202.65,9.28 202.84,9.20 203.04,9.11 203.25,9.09 203.46,9.07 203.67,9.12 203.87,9.17 204.05,9.28 204.23,9.40 204.37,9.56 204.50,9.72 204.58,9.92 204.65,10.12 204.66,10.33 204.67,10.55 204.61,10.75 204.55,10.95 204.43,11.13 204.30,11.30 204.13,11.43 203.96,11.55 203.76,11.62 203.56,11.68 203.34,11.68 203.13,11.67 202.93,11.60 202.73,11.53 202.56,11.40 202.40,11.27 202.28,11.09 202.16,10.91 202.11,10.71 202.06,10.50 202.07,10.29 202.09,10.08 202.17,9.88 202.25,9.68 202.39,9.53 202.53,9.37 202.72,9.26 202.90,9.15 202.90,9.15 202.90,9.15 206.83,7.66 210.76,6.18 215.88,3.75 221.00,1.32 226.93,-1.56 232.86,-4.45 238.74,-7.36 244.61,-10.26 249.73,-12.77 254.84,-15.27 258.80,-17.09 262.76,-18.90 265.69,-20.08 268.63,-21.26 270.69,-21.49 272.75,-21.72 272.51,-20.09 272.26,-18.47 271.05,-19.31 269.85,-20.16 267.79,-21.45 265.73,-22.74 263.11,-24.33 260.49,-25.92 257.37,-27.62 254.25,-29.33 250.57,-30.69 246.89,-32.06 243.12,-33.19 239.34,-34.32 236.02,-35.34 232.69,-36.36 229.91,-37.04 227.12,-37.73 224.77,-38.43 222.42,-39.12 221.31,-39.18 220.20,-39.24 219.88,-39.43 219.56,-39.62 219.30,-39.88 219.04,-40.13 218.85,-40.45 218.65,-40.76 218.54,-41.11 218.43,-41.47 218.40,-41.83 218.38,-42.20 218.44,-42.56 218.51,-42.93 218.66,-43.26 218.81,-43.60 219.03,-43.89 219.26,-44.18 219.55,-44.41 219.83,-44.64 220.17,-44.80 220.50,-44.95 220.87,-45.02 221.23,-45.09 221.60,-45.07 221.97,-45.05 222.32,-44.94 222.67,-44.83 223.35,-44.49 224.04,-44.14 225.06,-43.77 226.09,-43.40 227.54,-42.92 228.99,-42.43 231.28,-41.79 233.57,-41.15 236.19,-40.50 238.81,-39.86 241.94,-39.17 245.07,-38.48 248.38,-37.84 251.69,-37.19 254.80,-36.56 257.90,-35.92 260.71,-35.30 263.53,-34.68 265.83,-34.09 268.14,-33.50 270.12,-32.99 272.11,-32.47 273.49,-32.04 274.88,-31.61 276.59,-31.02 278.30,-30.42 278.65,-30.40 279.00,-30.38 279.34,-30.28 279.68,-30.17 279.99,-29.99 280.29,-29.81 280.54,-29.56 280.79,-29.31 280.98,-29.00 281.16,-28.70 281.27,-28.36 281.37,-28.02 281.40,-27.67 281.42,-27.32 281.35,-26.97 281.29,-26.62 281.15,-26.29 281.00,-25.97 280.78,-25.69 280.56,-25.41 280.29,-25.19 280.01,-24.97 279.68,-24.83 279.36,-24.68 279.01,-24.61 278.66,-24.55 277.41,-24.45 276.15,-24.34 273.40,-24.17 270.64,-24.01 265.64,-23.71 260.65,-23.42 254.37,-23.03 248.09,-22.64 239.63,-22.14 231.17,-21.64 221.54,-21.18 211.91,-20.72 201.09,-20.13 190.27,-19.55 178.48,-18.95 166.69,-18.35 154.17,-17.62 141.66,-16.88 128.78,-16.02 115.89,-15.15 103.05,-14.14 90.21,-13.13 78.12,-12.06 66.02,-11.00 55.33,-9.86 44.64,-8.72 35.77,-7.78 26.89,-6.85 20.03,-6.16 13.16,-5.46 8.17,-5.13 3.17,-4.80 0.22,-4.82 -2.72,-4.85 -4.00,-4.91 -5.27,-4.96 -6.59,-5.24 -7.91,-5.52 -8.07,-5.71 -8.23,-5.90 -8.33,-6.13 -8.44,-6.35 -8.49,-6.60 -8.55,-6.84 -8.54,-7.09 -8.53,-7.34 -8.46,-7.59 -8.39,-7.83 -8.27,-8.04 -8.14,-8.26 -7.97,-8.44 -7.80,-8.62 -7.59,-8.76 -7.38,-8.89 -7.14,-8.97 -6.91,-9.05 -6.66,-9.08 -6.41,-9.10 -6.16,-9.06 -5.91,-9.02 -5.68,-8.92 -5.45,-8.83 -5.25,-8.68 -5.05,-8.53 -4.97,-8.38 -4.90,-8.24 -3.98,-7.22 -3.07,-6.21 -2.22,-5.21 -1.38,-4.21 -0.10,-2.64 1.17,-1.08 1.28,-0.92 1.40,-0.76 1.47,-0.58 1.54,-0.41 1.57,-0.21 1.59,-0.02 1.57,0.16 1.55,0.35 1.49,0.53 1.42,0.71 1.32,0.87 1.21,1.03 1.07,1.16 0.93,1.29 0.76,1.39 0.59,1.48 0.40,1.53 0.22,1.58 0.02,1.58 -0.16,1.58 -0.35,1.54 -0.53,1.50 -0.71,1.41 -0.88,1.33 -1.03,1.20 -1.17,1.08 -1.17,1.08 L -1.17,1.08 Z"></path></g><g transform="translate(189.9710197505134 716.3894201867267) rotate(0 -7.598454538134831 -5.1943768912761925)" stroke="none"><path fill="#1971c2" d="M 1.42,1.17 Q 1.42,1.17 0.88,2.34 0.34,3.50 -0.85,4.40 -2.06,5.30 -3.29,5.83 -4.51,6.35 -6.10,6.45 -7.68,6.54 -9.34,6.05 -10.99,5.56 -12.77,4.20 -14.55,2.84 -16.05,0.56 -17.55,-1.70 -18.58,-4.26 -19.60,-6.83 -20.12,-9.68 -20.64,-12.54 -20.49,-15.53 -20.33,-18.53 -19.65,-21.13 -18.97,-23.73 -17.49,-26.04 -16.01,-28.35 -14.21,-30.03 -12.42,-31.70 -10.40,-32.84 -8.39,-33.97 -5.87,-34.41 -3.36,-34.85 -0.82,-33.95 1.70,-33.05 4.07,-30.44 6.45,-27.83 8.11,-24.68 9.77,-21.52 10.79,-17.94 11.81,-14.35 11.98,-10.61 12.16,-6.86 11.19,-3.15 10.23,0.55 8.40,3.98 6.57,7.42 4.08,10.49 1.59,13.56 -1.32,16.04 -4.24,18.52 -7.32,20.22 -10.40,21.92 -13.27,22.88 -16.14,23.83 -18.38,24.18 -20.61,24.52 -22.09,24.43 -23.57,24.34 -24.06,23.84 -24.56,23.34 -24.80,23.31 -25.04,23.29 -25.27,23.20 -25.50,23.12 -25.70,22.98 -25.90,22.85 -26.06,22.67 -26.22,22.49 -26.34,22.27 -26.45,22.06 -26.52,21.82 -26.58,21.59 -26.58,21.35 -26.58,21.10 -26.53,20.87 -26.47,20.63 -26.36,20.42 -26.25,20.20 -26.09,20.02 -25.93,19.83 -25.73,19.69 -25.54,19.55 -25.31,19.46 -25.08,19.38 -24.84,19.34 -24.60,19.31 -22.96,18.79 -21.33,18.27 -21.12,18.21 -20.92,18.15 -20.70,18.16 -20.49,18.17 -20.29,18.25 -20.10,18.33 -19.93,18.47 -19.77,18.60 -19.66,18.78 -19.55,18.97 -19.50,19.17 -19.46,19.38 -19.48,19.59 -19.50,19.80 -19.59,20.00 -19.68,20.19 -19.83,20.34 -19.97,20.50 -20.16,20.60 -20.35,20.70 -20.56,20.74 -20.76,20.77 -20.97,20.74 -21.18,20.70 -21.37,20.60 -21.56,20.51 -21.71,20.35 -21.85,20.20 -21.94,20.01 -22.03,19.81 -22.06,19.60 -22.08,19.39 -22.04,19.18 -21.99,18.97 -21.88,18.79 -21.77,18.61 -21.61,18.47 -21.45,18.33 -21.25,18.25 -21.06,18.18 -20.84,18.16 -20.63,18.15 -20.43,18.21 -20.22,18.26 -20.05,18.38 -19.87,18.50 -19.74,18.67 -19.61,18.84 -19.54,19.04 -19.47,19.24 -19.47,19.45 -19.47,19.66 -19.54,19.87 -19.61,20.07 -19.74,20.24 -19.86,20.41 -20.04,20.53 -20.21,20.65 -20.21,20.65 -20.21,20.65 -22.39,21.99 -24.56,23.34 -24.80,23.31 -25.04,23.29 -25.27,23.20 -25.50,23.12 -25.70,22.98 -25.90,22.85 -26.06,22.67 -26.22,22.49 -26.34,22.27 -26.45,22.06 -26.52,21.83 -26.58,21.59 -26.58,21.35 -26.58,21.10 -26.53,20.87 -26.47,20.63 -26.36,20.42 -26.25,20.20 -26.09,20.02 -25.93,19.83 -25.73,19.69 -25.54,19.55 -25.31,19.46 -25.08,19.38 -24.84,19.34 -24.60,19.31 -23.11,19.02 -21.62,18.72 -19.84,18.36 -18.06,18.00 -15.70,17.23 -13.34,16.46 -10.78,15.10 -8.21,13.74 -5.69,11.67 -3.17,9.60 -1.01,7.02 1.15,4.44 2.72,1.65 4.29,-1.13 5.14,-3.93 5.98,-6.73 5.91,-9.74 5.84,-12.75 5.05,-15.73 4.26,-18.72 2.97,-21.31 1.68,-23.89 0.35,-25.73 -0.98,-27.56 -1.96,-28.17 -2.93,-28.78 -4.25,-28.63 -5.56,-28.48 -6.93,-27.79 -8.30,-27.10 -9.61,-25.96 -10.92,-24.82 -11.98,-23.41 -13.04,-22.00 -13.60,-20.06 -14.16,-18.11 -14.34,-15.82 -14.53,-13.53 -14.18,-11.27 -13.84,-9.00 -13.10,-6.93 -12.35,-4.86 -11.47,-3.26 -10.59,-1.66 -9.74,-0.78 -8.89,0.09 -7.53,0.55 -6.17,1.02 -4.81,0.64 -3.45,0.26 -2.44,-0.45 -1.42,-1.17 -1.26,-1.32 -1.10,-1.48 -0.90,-1.59 -0.71,-1.70 -0.50,-1.76 -0.28,-1.82 -0.06,-1.83 0.15,-1.84 0.37,-1.79 0.59,-1.74 0.79,-1.65 0.99,-1.55 1.16,-1.41 1.33,-1.27 1.47,-1.09 1.60,-0.91 1.68,-0.71 1.77,-0.50 1.81,-0.28 1.84,-0.06 1.82,0.15 1.80,0.37 1.73,0.58 1.66,0.79 1.54,0.98 1.42,1.17 1.42,1.17 L 1.42,1.17 Z"></path></g><g transform="translate(202.1080394066649 724.151771860108) rotate(0 8.637451950032897 3.5534113305008077)" stroke="none"><path fill="#1971c2" d="M -0.35,-1.84 Q -0.35,-1.84 -0.06,-2.37 0.21,-2.91 0.55,-2.93 0.89,-2.96 1.23,-2.90 1.56,-2.84 1.87,-2.70 2.18,-2.57 2.45,-2.36 2.72,-2.15 2.94,-1.89 3.15,-1.62 3.29,-1.31 3.43,-1.01 3.50,-0.67 3.56,-0.34 3.54,-0.00 3.53,0.33 3.43,0.66 3.33,0.98 3.16,1.27 2.99,1.57 2.75,1.81 2.51,2.05 2.22,2.23 1.93,2.41 1.61,2.51 1.28,2.62 2.52,1.73 3.75,0.84 3.75,2.16 3.76,3.48 3.69,4.74 3.62,6.01 3.23,7.92 2.84,9.82 2.65,10.12 2.46,10.42 2.31,10.74 2.16,11.06 1.94,11.33 1.71,11.61 1.43,11.82 1.15,12.03 0.82,12.17 0.49,12.31 0.14,12.37 -0.20,12.43 -0.55,12.40 -0.90,12.37 -1.24,12.26 -1.57,12.14 -1.87,11.95 -2.17,11.77 -2.42,11.51 -2.66,11.25 -2.84,10.95 -3.02,10.64 -3.12,10.30 -3.21,9.96 -3.23,9.61 -3.24,9.25 -3.17,8.91 -3.10,8.56 -2.80,6.26 -2.49,3.97 -1.19,2.27 0.11,0.58 1.55,-0.66 3.00,-1.90 4.31,-2.86 5.62,-3.81 7.05,-4.52 8.48,-5.22 10.14,-5.50 11.81,-5.78 13.47,-5.22 15.13,-4.66 16.38,-3.24 17.63,-1.82 18.31,-0.32 18.98,1.16 19.26,2.96 19.53,4.76 19.48,7.49 19.43,10.23 19.44,10.44 19.45,10.65 19.39,10.86 19.33,11.06 19.21,11.23 19.09,11.41 18.91,11.53 18.74,11.66 18.54,11.73 18.34,11.79 18.13,11.79 17.91,11.78 17.71,11.71 17.51,11.64 17.35,11.51 17.18,11.38 17.06,11.20 16.95,11.03 16.89,10.82 16.84,10.62 16.85,10.40 16.87,10.19 16.95,9.99 17.03,9.80 17.17,9.64 17.31,9.48 17.49,9.37 17.68,9.26 17.88,9.22 18.09,9.18 18.30,9.21 18.51,9.23 18.71,9.32 18.90,9.42 19.05,9.56 19.20,9.71 19.30,9.90 19.40,10.09 19.43,10.30 19.46,10.51 19.42,10.72 19.38,10.93 19.28,11.11 19.18,11.30 19.02,11.45 18.87,11.59 18.67,11.68 18.48,11.76 18.27,11.78 18.06,11.80 17.85,11.75 17.64,11.70 17.46,11.59 17.28,11.48 17.15,11.32 17.01,11.15 16.93,10.95 16.86,10.76 16.86,10.76 16.86,10.76 15.81,8.35 14.76,5.95 14.29,4.74 13.81,3.54 13.00,1.76 12.18,-0.02 10.64,0.48 9.11,0.99 7.97,1.82 6.82,2.65 5.74,3.54 4.65,4.42 3.86,5.21 3.08,6.00 2.42,6.85 1.77,7.70 2.12,9.06 2.46,10.42 2.31,10.74 2.16,11.06 1.94,11.33 1.71,11.61 1.43,11.82 1.15,12.03 0.82,12.17 0.49,12.31 0.14,12.37 -0.19,12.43 -0.55,12.40 -0.90,12.37 -1.24,12.26 -1.57,12.14 -1.87,11.95 -2.17,11.77 -2.42,11.51 -2.66,11.25 -2.84,10.95 -3.02,10.64 -3.12,10.30 -3.21,9.96 -3.23,9.61 -3.24,9.25 -3.17,8.91 -3.10,8.56 -2.87,8.24 -2.63,7.92 -2.36,6.80 -2.10,5.67 -1.97,3.65 -1.85,1.62 -0.81,-0.64 0.21,-2.91 0.55,-2.93 0.89,-2.96 1.23,-2.90 1.56,-2.84 1.87,-2.70 2.18,-2.57 2.45,-2.36 2.72,-2.15 2.93,-1.89 3.15,-1.62 3.29,-1.31 3.43,-1.01 3.50,-0.67 3.56,-0.34 3.54,-0.00 3.53,0.33 3.43,0.66 3.33,0.98 3.16,1.27 2.99,1.57 2.75,1.81 2.51,2.05 2.22,2.23 1.93,2.41 1.61,2.51 1.28,2.62 0.82,2.23 0.35,1.84 0.13,1.85 -0.09,1.87 -0.31,1.83 -0.54,1.79 -0.74,1.70 -0.95,1.61 -1.13,1.47 -1.31,1.33 -1.45,1.16 -1.59,0.98 -1.69,0.78 -1.78,0.57 -1.82,0.35 -1.87,0.13 -1.86,-0.09 -1.84,-0.32 -1.78,-0.53 -1.71,-0.75 -1.60,-0.94 -1.48,-1.14 -1.33,-1.30 -1.17,-1.46 -0.97,-1.58 -0.78,-1.70 -0.57,-1.77 -0.35,-1.84 -0.35,-1.84 L -0.35,-1.84 Z"></path></g><g transform="translate(231.5199331985791 722.6212318639862) rotate(0 8.03654043391714 5.193930426729139)" stroke="none"><path fill="#1971c2" d="M 1.87,-0.61 Q 1.87,-0.61 2.69,0.64 3.52,1.90 4.05,4.04 4.59,6.18 4.92,8.77 5.25,11.35 5.40,13.71 5.54,16.07 5.49,18.00 5.43,19.94 5.12,21.39 4.81,22.85 4.50,23.35 4.18,23.85 4.06,24.18 3.93,24.51 3.74,24.80 3.54,25.09 3.27,25.33 3.01,25.57 2.70,25.73 2.39,25.90 2.04,25.99 1.70,26.08 1.35,26.08 0.99,26.08 0.65,26.00 0.31,25.92 -0.00,25.76 -0.31,25.59 -0.58,25.36 -0.85,25.13 -1.05,24.84 -1.25,24.55 -1.38,24.22 -1.51,23.89 -1.55,23.54 -1.60,23.19 -1.56,22.84 -1.52,22.48 -2.24,21.52 -2.96,20.56 -3.21,18.02 -3.47,15.47 -3.53,12.12 -3.59,8.78 -3.15,5.02 -2.72,1.26 -1.45,-2.01 -0.19,-5.30 1.57,-7.86 3.34,-10.41 5.55,-12.13 7.77,-13.85 9.77,-14.64 11.77,-15.42 14.01,-14.81 16.25,-14.20 17.45,-12.12 18.64,-10.04 17.96,-7.32 17.28,-4.60 15.59,-2.26 13.89,0.07 11.69,2.04 9.48,4.01 6.88,6.15 4.28,8.28 4.11,8.40 3.93,8.52 3.73,8.57 3.52,8.63 3.31,8.61 3.10,8.60 2.90,8.52 2.70,8.44 2.54,8.30 2.38,8.17 2.27,7.98 2.16,7.80 2.12,7.59 2.07,7.39 2.10,7.17 2.12,6.96 2.21,6.77 2.30,6.58 2.45,6.42 2.59,6.27 2.78,6.17 2.97,6.07 3.18,6.04 3.39,6.01 3.60,6.04 3.81,6.08 4.00,6.18 4.18,6.28 4.33,6.43 4.48,6.59 4.56,6.78 4.65,6.98 4.67,7.19 4.70,7.40 4.65,7.61 4.60,7.81 4.49,7.99 4.38,8.18 4.22,8.31 4.06,8.45 3.86,8.53 3.66,8.60 3.45,8.62 3.24,8.63 3.03,8.57 2.83,8.51 2.65,8.39 2.48,8.27 2.35,8.10 2.22,7.93 2.15,7.73 2.09,7.53 2.09,7.31 2.09,7.10 2.16,6.90 2.23,6.70 2.36,6.53 2.49,6.36 2.49,6.36 2.49,6.36 4.70,3.98 6.91,1.60 8.45,-0.41 9.98,-2.43 11.03,-4.39 12.09,-6.34 11.69,-7.68 11.29,-9.03 9.74,-7.95 8.19,-6.87 6.79,-4.95 5.39,-3.02 4.33,-0.49 3.27,2.02 2.86,5.36 2.46,8.69 2.50,11.82 2.54,14.94 2.64,17.75 2.74,20.56 3.46,22.20 4.18,23.85 4.06,24.18 3.93,24.51 3.74,24.80 3.54,25.09 3.27,25.33 3.01,25.57 2.70,25.73 2.39,25.90 2.04,25.99 1.70,26.08 1.35,26.08 0.99,26.08 0.65,26.00 0.31,25.92 -0.00,25.76 -0.31,25.59 -0.58,25.36 -0.85,25.13 -1.05,24.84 -1.25,24.55 -1.38,24.22 -1.51,23.89 -1.55,23.54 -1.60,23.19 -1.56,22.84 -1.52,22.48 -0.87,21.07 -0.23,19.66 -0.12,18.02 -0.02,16.38 -0.13,14.21 -0.24,12.03 -0.51,9.76 -0.78,7.50 -1.25,5.56 -1.71,3.62 -1.79,2.11 -1.87,0.61 -1.92,0.38 -1.96,0.14 -1.95,-0.09 -1.94,-0.32 -1.87,-0.55 -1.81,-0.78 -1.69,-0.98 -1.57,-1.19 -1.40,-1.36 -1.23,-1.53 -1.03,-1.66 -0.83,-1.78 -0.60,-1.86 -0.38,-1.93 -0.14,-1.95 0.09,-1.97 0.32,-1.93 0.56,-1.89 0.77,-1.79 0.99,-1.70 1.18,-1.55 1.37,-1.41 1.52,-1.22 1.67,-1.04 1.77,-0.82 1.87,-0.61 1.87,-0.61 L 1.87,-0.61 Z"></path></g><g transform="translate(260.16658675673557 710.375423679854) rotate(0 23.34390483914342 -0.595494412944106)" stroke="none"><path fill="#1971c2" d="M -1.51,-1.28 Q -1.51,-1.28 -0.43,-3.03 0.63,-4.78 1.92,-6.32 3.20,-7.86 4.24,-8.83 5.28,-9.80 5.79,-10.17 6.29,-10.54 6.58,-10.74 6.87,-10.94 7.20,-11.06 7.53,-11.18 7.88,-11.22 8.23,-11.26 8.58,-11.22 8.94,-11.17 9.26,-11.05 9.59,-10.92 9.88,-10.72 10.17,-10.51 10.40,-10.25 10.64,-9.98 10.80,-9.67 10.96,-9.35 11.04,-9.01 11.12,-8.67 11.12,-8.32 11.12,-7.96 11.03,-7.62 10.95,-7.28 10.78,-6.97 10.61,-6.66 10.38,-6.39 10.14,-6.13 10.79,-7.00 11.43,-7.88 11.23,-5.72 11.02,-3.55 10.46,-1.38 9.90,0.79 9.34,2.97 8.78,5.15 8.42,7.08 8.06,9.00 7.78,10.59 7.50,12.17 6.11,12.13 4.73,12.10 5.75,10.99 6.77,9.88 7.84,8.58 8.92,7.27 9.90,5.71 10.89,4.15 11.72,2.63 12.55,1.11 13.16,-0.01 13.76,-1.14 14.35,-1.92 14.93,-2.70 15.14,-2.98 15.35,-3.27 15.62,-3.49 15.89,-3.72 16.21,-3.87 16.53,-4.02 16.87,-4.09 17.22,-4.17 17.57,-4.15 17.92,-4.14 18.26,-4.05 18.60,-3.95 18.91,-3.77 19.21,-3.60 19.47,-3.36 19.72,-3.12 19.91,-2.82 20.10,-2.52 20.22,-2.19 20.33,-1.85 20.36,-1.50 20.39,-1.15 20.34,-0.80 20.28,-0.46 20.15,-0.13 20.01,0.18 20.59,2.14 21.16,4.10 21.69,5.87 22.22,7.64 23.04,9.89 23.87,12.14 24.89,14.14 25.92,16.14 27.01,17.17 28.09,18.19 29.88,18.07 31.68,17.95 32.90,16.74 34.11,15.53 35.44,13.61 36.77,11.69 37.74,9.24 38.70,6.79 39.29,3.79 39.89,0.79 40.15,-2.66 40.41,-6.12 40.38,-9.89 40.35,-13.66 40.17,-16.25 39.99,-18.85 39.44,-20.35 38.88,-21.84 38.85,-22.19 38.83,-22.54 38.89,-22.89 38.95,-23.23 39.09,-23.56 39.23,-23.88 39.44,-24.16 39.65,-24.43 39.92,-24.65 40.20,-24.87 40.52,-25.02 40.83,-25.17 41.18,-25.24 41.52,-25.30 41.87,-25.29 42.22,-25.27 42.56,-25.17 42.89,-25.07 43.20,-24.89 43.50,-24.71 43.75,-24.47 44.00,-24.22 44.19,-23.93 44.37,-23.63 44.48,-23.29 44.59,-22.96 43.95,-21.17 43.32,-19.38 43.13,-17.97 42.95,-16.55 42.82,-14.22 42.69,-11.89 42.71,-9.23 42.74,-6.56 43.01,-4.02 43.28,-1.47 43.73,0.68 44.17,2.84 44.65,4.73 45.14,6.63 46.42,9.12 47.70,11.62 47.80,11.81 47.91,11.99 47.95,12.20 48.00,12.41 47.97,12.62 47.94,12.83 47.85,13.02 47.76,13.21 47.61,13.36 47.46,13.52 47.27,13.61 47.08,13.71 46.87,13.74 46.66,13.77 46.46,13.74 46.25,13.70 46.06,13.60 45.87,13.49 45.73,13.34 45.59,13.18 45.50,12.99 45.41,12.79 45.39,12.58 45.37,12.37 45.42,12.16 45.47,11.96 45.58,11.78 45.69,11.60 45.86,11.46 46.02,11.32 46.22,11.25 46.42,11.17 46.63,11.16 46.84,11.16 47.05,11.22 47.25,11.28 47.43,11.40 47.60,11.52 47.73,11.69 47.85,11.86 47.92,12.06 47.98,12.27 47.98,12.48 47.98,12.69 47.90,12.89 47.83,13.09 47.70,13.26 47.57,13.43 47.39,13.54 47.22,13.66 47.01,13.71 46.81,13.77 46.59,13.75 46.38,13.74 46.19,13.66 45.99,13.58 45.83,13.44 45.67,13.30 45.67,13.30 45.67,13.30 43.41,10.73 41.15,8.17 40.13,6.16 39.12,4.15 38.36,1.66 37.59,-0.83 37.26,-3.67 36.93,-6.52 36.92,-9.37 36.90,-12.23 37.06,-14.93 37.23,-17.62 38.05,-19.73 38.88,-21.84 38.85,-22.19 38.83,-22.54 38.89,-22.89 38.94,-23.23 39.08,-23.56 39.22,-23.88 39.44,-24.16 39.65,-24.43 39.92,-24.65 40.20,-24.87 40.52,-25.02 40.83,-25.17 41.18,-25.24 41.52,-25.30 41.87,-25.29 42.22,-25.27 42.56,-25.17 42.89,-25.07 43.20,-24.89 43.50,-24.71 43.75,-24.47 44.00,-24.22 44.18,-23.93 44.37,-23.63 44.48,-23.29 44.59,-22.96 44.85,-22.74 45.11,-22.53 45.46,-20.89 45.81,-19.24 45.99,-16.47 46.17,-13.69 46.18,-9.68 46.19,-5.67 45.88,-1.84 45.56,1.97 44.79,5.47 44.03,8.96 42.74,11.98 41.46,15.00 39.67,17.43 37.88,19.86 35.64,21.62 33.40,23.37 30.95,23.80 28.50,24.23 26.33,23.28 24.16,22.33 22.49,20.59 20.82,18.84 19.62,16.49 18.41,14.13 17.53,11.71 16.65,9.29 16.05,7.23 15.44,5.18 15.08,2.63 14.72,0.08 14.83,-1.30 14.93,-2.70 15.14,-2.98 15.35,-3.27 15.62,-3.49 15.89,-3.71 16.21,-3.87 16.53,-4.02 16.87,-4.09 17.22,-4.17 17.57,-4.15 17.92,-4.14 18.26,-4.05 18.60,-3.95 18.91,-3.78 19.21,-3.60 19.47,-3.36 19.72,-3.12 19.91,-2.82 20.10,-2.52 20.22,-2.19 20.33,-1.86 20.36,-1.50 20.39,-1.15 20.34,-0.80 20.28,-0.46 20.15,-0.13 20.01,0.18 19.51,0.91 19.00,1.63 18.39,2.80 17.78,3.97 16.85,5.67 15.91,7.37 14.71,9.23 13.50,11.10 12.07,12.79 10.64,14.48 7.87,15.89 5.10,17.30 3.30,15.54 1.50,13.77 1.57,12.45 1.64,11.13 1.94,9.51 2.23,7.89 2.64,5.78 3.05,3.67 3.62,1.48 4.19,-0.69 5.02,-3.51 5.86,-6.32 6.07,-8.43 6.29,-10.54 6.58,-10.74 6.87,-10.94 7.20,-11.06 7.53,-11.18 7.88,-11.22 8.23,-11.26 8.58,-11.22 8.93,-11.17 9.26,-11.05 9.59,-10.92 9.88,-10.72 10.17,-10.51 10.40,-10.25 10.64,-9.98 10.80,-9.67 10.96,-9.36 11.04,-9.01 11.12,-8.67 11.12,-8.32 11.12,-7.96 11.03,-7.62 10.95,-7.28 10.78,-6.97 10.61,-6.66 10.38,-6.39 10.14,-6.13 9.63,-5.77 9.13,-5.40 8.23,-4.68 7.33,-3.96 5.97,-2.69 4.60,-1.42 3.06,-0.07 1.51,1.28 1.34,1.44 1.16,1.60 0.95,1.72 0.74,1.83 0.51,1.90 0.28,1.96 0.04,1.97 -0.19,1.97 -0.42,1.92 -0.66,1.87 -0.87,1.76 -1.08,1.65 -1.27,1.50 -1.45,1.35 -1.59,1.15 -1.73,0.96 -1.82,0.74 -1.91,0.51 -1.95,0.28 -1.98,0.04 -1.96,-0.19 -1.93,-0.43 -1.85,-0.65 -1.77,-0.88 -1.64,-1.08 -1.51,-1.28 -1.51,-1.28 L -1.51,-1.28 Z"></path></g><g transform="translate(279.1918697959235 711.0317265641153) rotate(0 29.029184382125948 -11.699454635674101)" stroke="none"><path fill="#1971c2" d="M -2.38,-0.80 Q -2.38,-0.80 -2.17,-1.92 -1.95,-3.04 0.17,-4.84 2.30,-6.64 5.52,-8.19 8.74,-9.74 12.94,-11.38 17.14,-13.01 22.08,-14.83 27.01,-16.64 32.46,-18.26 37.92,-19.88 43.75,-21.06 49.59,-22.23 52.34,-22.86 55.09,-23.49 57.10,-24.07 59.11,-24.66 59.32,-24.68 59.53,-24.71 59.74,-24.66 59.95,-24.62 60.13,-24.51 60.31,-24.40 60.45,-24.24 60.59,-24.08 60.67,-23.89 60.75,-23.69 60.77,-23.48 60.78,-23.27 60.73,-23.06 60.67,-22.86 60.56,-22.68 60.44,-22.50 60.27,-22.37 60.10,-22.24 59.90,-22.17 59.70,-22.10 59.49,-22.10 59.28,-22.10 59.08,-22.16 58.87,-22.23 58.70,-22.35 58.53,-22.48 58.41,-22.65 58.29,-22.83 58.23,-23.03 58.17,-23.24 58.18,-23.45 58.19,-23.66 58.27,-23.86 58.34,-24.06 58.48,-24.22 58.61,-24.38 58.79,-24.50 58.97,-24.61 59.18,-24.66 59.39,-24.70 59.60,-24.68 59.81,-24.66 60.01,-24.58 60.20,-24.49 60.36,-24.35 60.51,-24.20 60.61,-24.01 60.71,-23.83 60.75,-23.62 60.79,-23.41 60.76,-23.20 60.72,-22.99 60.63,-22.80 60.53,-22.61 60.38,-22.46 60.22,-22.32 60.03,-22.22 59.84,-22.13 59.84,-22.13 59.84,-22.13 57.83,-21.55 55.83,-20.97 53.15,-20.02 50.46,-19.07 44.98,-17.11 39.50,-15.16 34.27,-13.21 29.05,-11.25 24.18,-9.36 19.31,-7.46 15.31,-5.89 11.30,-4.33 8.51,-3.03 5.72,-1.74 4.45,-1.16 3.18,-0.59 2.78,0.10 2.38,0.80 2.25,1.08 2.12,1.35 1.93,1.59 1.73,1.82 1.49,2.00 1.25,2.18 0.97,2.30 0.69,2.42 0.39,2.47 0.09,2.52 -0.21,2.49 -0.51,2.46 -0.80,2.37 -1.09,2.27 -1.34,2.11 -1.60,1.94 -1.81,1.72 -2.02,1.50 -2.17,1.24 -2.32,0.97 -2.40,0.68 -2.49,0.39 -2.50,0.08 -2.51,-0.21 -2.45,-0.51 -2.38,-0.80 -2.38,-0.80 L -2.38,-0.80 Z"></path></g><g transform="translate(435.21848989142165 257.05663377873407) rotate(0 697.854327675196 516.4073258962184)" stroke="none"><path fill="#1971c2" d="M -0.49,1.80 Q -0.49,1.80 -2.70,1.37 -4.91,0.95 -6.15,1.01 -7.39,1.07 -8.60,3.12 -9.82,5.17 -10.12,7.40 -10.43,9.63 -10.62,13.50 -10.81,17.38 -10.78,22.08 -10.75,26.77 -10.45,32.34 -10.15,37.91 -9.52,44.70 -8.89,51.49 -7.94,59.22 -6.98,66.95 -5.79,74.84 -4.60,82.73 -2.83,92.67 -1.07,102.62 0.87,113.04 2.81,123.46 4.66,133.38 6.51,143.30 8.64,155.42 10.78,167.54 12.85,179.89 14.93,192.24 16.73,205.01 18.53,217.79 20.41,230.75 22.29,243.72 23.94,256.98 25.59,270.23 27.12,282.44 28.66,294.64 30.44,309.17 32.23,323.69 33.64,338.10 35.05,352.50 36.20,367.27 37.35,382.04 38.25,397.19 39.14,412.34 39.79,426.76 40.44,441.19 41.15,457.29 41.86,473.38 42.70,489.28 43.55,505.18 44.63,520.93 45.71,536.67 47.06,552.39 48.40,568.11 49.88,583.78 51.36,599.45 53.06,614.90 54.76,630.36 56.47,645.86 58.18,661.35 59.72,676.82 61.26,692.29 62.54,707.51 63.83,722.73 64.95,737.40 66.07,752.07 67.18,765.63 68.30,779.20 69.54,792.54 70.78,805.87 72.17,818.06 73.57,830.25 74.94,841.59 76.32,852.93 77.80,863.53 79.27,874.12 80.82,884.27 82.37,894.41 83.50,904.12 84.63,913.83 85.61,923.20 86.60,932.56 87.49,941.42 88.39,950.29 89.28,958.40 90.17,966.50 91.22,973.64 92.26,980.78 93.46,987.07 94.66,993.37 95.84,999.02 97.03,1004.68 98.03,1009.63 99.03,1014.59 99.83,1019.08 100.63,1023.57 101.06,1028.15 101.50,1032.73 101.58,1037.15 101.66,1041.57 101.55,1045.71 101.44,1049.84 101.40,1053.43 101.35,1057.02 101.36,1059.69 101.37,1062.36 101.83,1064.49 102.29,1066.61 103.07,1067.80 103.86,1069.00 104.83,1069.79 105.81,1070.59 107.12,1071.46 108.43,1072.33 109.94,1072.93 111.45,1073.53 113.15,1073.93 114.84,1074.33 117.57,1075.04 120.31,1075.74 123.38,1076.34 126.45,1076.94 130.25,1077.66 134.05,1078.38 138.62,1079.16 143.18,1079.94 148.71,1080.78 154.24,1081.62 160.09,1082.53 165.94,1083.45 174.13,1084.67 182.32,1085.89 190.73,1087.22 199.13,1088.55 209.41,1090.13 219.68,1091.71 230.62,1093.48 241.55,1095.24 253.36,1096.99 265.16,1098.74 277.85,1100.44 290.55,1102.13 304.44,1103.80 318.33,1105.46 333.56,1107.18 348.80,1108.90 363.62,1110.20 378.44,1111.50 397.53,1112.81 416.61,1114.11 433.79,1115.15 450.96,1116.19 468.49,1117.32 486.02,1118.44 505.60,1119.64 525.18,1120.84 546.87,1121.79 568.55,1122.73 592.11,1123.57 615.67,1124.41 639.76,1125.04 663.84,1125.66 688.15,1126.15 712.47,1126.65 737.15,1127.03 761.83,1127.42 786.90,1127.77 811.97,1128.13 836.94,1128.41 861.91,1128.70 913.19,1128.17 964.47,1127.63 999.17,1127.24 1033.87,1126.85 1060.85,1126.61 1087.82,1126.37 1110.78,1126.24 1133.73,1126.12 1154.04,1126.14 1174.34,1126.17 1210.63,1126.93 1246.92,1127.69 1277.85,1128.40 1308.79,1129.11 1328.85,1129.53 1348.92,1129.95 1363.89,1130.14 1378.87,1130.33 1389.43,1130.41 1400.00,1130.49 1407.81,1130.53 1415.62,1130.58 1428.02,1130.59 1440.43,1130.61 1447.44,1130.43 1454.45,1130.25 1458.13,1129.96 1461.81,1129.67 1463.78,1127.54 1465.75,1125.41 1466.80,1123.14 1467.86,1120.88 1468.51,1118.39 1469.17,1115.90 1469.56,1112.91 1469.96,1109.92 1470.05,1105.62 1470.14,1101.31 1470.03,1096.10 1469.92,1090.88 1469.54,1084.98 1469.17,1079.08 1468.64,1072.42 1468.11,1065.75 1467.53,1058.29 1466.95,1050.83 1466.26,1042.51 1465.57,1034.18 1464.82,1024.86 1464.08,1015.54 1463.25,1005.35 1462.42,995.16 1461.28,984.12 1460.15,973.09 1458.99,960.97 1457.83,948.85 1456.36,935.59 1454.88,922.34 1453.52,907.99 1452.15,893.65 1450.95,878.79 1449.74,863.94 1448.83,848.81 1447.92,833.69 1447.11,814.38 1446.30,795.08 1445.41,775.93 1444.52,756.78 1442.95,738.06 1441.39,719.34 1439.62,701.06 1437.85,682.77 1435.35,657.04 1432.86,631.31 1431.28,610.86 1429.70,590.40 1428.52,572.24 1427.34,554.07 1426.40,538.03 1425.46,522.00 1424.22,504.51 1422.99,487.03 1421.54,470.20 1420.10,453.37 1418.43,437.08 1416.75,420.78 1414.67,404.93 1412.59,389.08 1410.44,373.19 1408.30,357.30 1406.12,341.23 1403.94,325.16 1402.12,308.93 1400.31,292.71 1398.91,276.42 1397.52,260.13 1396.35,244.62 1395.17,229.11 1394.17,214.62 1393.16,200.14 1392.02,186.45 1390.88,172.76 1389.62,160.85 1388.35,148.94 1386.66,135.34 1384.97,121.75 1383.10,109.30 1381.23,96.85 1379.22,83.82 1377.20,70.79 1375.21,58.77 1373.22,46.74 1371.31,35.68 1369.39,24.62 1367.57,14.44 1365.75,4.26 1364.10,-4.86 1362.44,-13.98 1360.71,-21.89 1358.98,-29.80 1357.15,-37.02 1355.32,-44.24 1353.12,-50.53 1350.93,-56.83 1348.62,-62.06 1346.32,-67.29 1341.37,-74.61 1336.43,-81.92 1333.33,-85.83 1330.23,-89.74 1328.11,-91.93 1325.99,-94.12 1324.32,-95.13 1322.66,-96.14 1321.35,-96.51 1320.05,-96.89 1318.78,-96.85 1317.51,-96.81 1316.19,-96.39 1314.87,-95.97 1313.11,-95.00 1311.35,-94.04 1309.35,-92.50 1307.36,-90.96 1304.85,-88.86 1302.35,-86.75 1299.30,-84.25 1296.26,-81.76 1292.43,-79.03 1288.59,-76.30 1283.93,-73.72 1279.28,-71.14 1273.74,-68.41 1268.20,-65.67 1261.84,-63.02 1255.48,-60.38 1248.25,-57.74 1241.01,-55.10 1232.97,-52.33 1224.93,-49.56 1215.69,-47.01 1206.45,-44.46 1196.02,-41.85 1185.58,-39.24 1174.30,-36.77 1163.02,-34.31 1151.05,-32.09 1139.09,-29.87 1127.34,-27.77 1115.58,-25.67 1101.51,-23.66 1087.44,-21.65 1072.97,-19.87 1058.51,-18.08 1043.32,-16.30 1028.14,-14.53 1011.81,-12.91 995.49,-11.30 978.55,-9.84 961.62,-8.38 943.99,-7.29 926.36,-6.21 908.14,-5.22 889.91,-4.22 871.11,-3.15 852.30,-2.09 832.73,-1.20 813.17,-0.32 792.71,0.62 772.26,1.56 751.04,2.58 729.81,3.60 707.71,4.67 685.61,5.75 662.86,6.77 640.12,7.80 617.55,8.68 594.98,9.56 572.57,10.25 550.16,10.94 527.83,11.57 505.49,12.20 483.21,12.84 460.92,13.48 438.99,14.11 417.05,14.75 396.08,15.32 375.10,15.90 354.75,16.40 334.40,16.91 316.12,17.43 297.83,17.96 276.67,18.56 255.51,19.17 235.48,19.59 215.45,20.01 196.59,20.43 177.73,20.84 159.93,21.23 142.14,21.62 125.41,21.98 108.68,22.34 93.04,22.71 77.39,23.08 62.72,23.42 48.04,23.76 34.35,24.03 20.67,24.29 8.10,24.41 -4.47,24.52 -15.32,24.47 -26.18,24.41 -34.73,23.92 -43.28,23.42 -50.34,22.57 -57.40,21.72 -62.15,20.74 -66.89,19.76 -69.73,18.88 -72.58,18.00 -75.31,16.74 -78.04,15.49 -78.23,15.40 -78.43,15.32 -78.59,15.18 -78.75,15.04 -78.86,14.86 -78.96,14.67 -79.01,14.47 -79.05,14.26 -79.02,14.05 -78.99,13.84 -78.90,13.65 -78.81,13.45 -78.66,13.30 -78.51,13.15 -78.32,13.05 -78.13,12.96 -77.92,12.93 -77.71,12.90 -77.50,12.93 -77.30,12.97 -77.11,13.07 -76.92,13.18 -76.78,13.33 -76.64,13.49 -76.55,13.68 -76.46,13.88 -76.44,14.09 -76.43,14.30 -76.47,14.51 -76.52,14.72 -76.64,14.90 -76.75,15.08 -76.91,15.21 -77.08,15.35 -77.28,15.42 -77.47,15.50 -77.69,15.50 -77.90,15.51 -78.10,15.45 -78.31,15.39 -78.48,15.27 -78.65,15.15 -78.78,14.98 -78.91,14.80 -78.97,14.60 -79.03,14.40 -79.03,14.19 -79.03,13.97 -78.96,13.77 -78.88,13.57 -78.75,13.41 -78.62,13.24 -78.44,13.12 -78.27,13.01 -78.06,12.95 -77.86,12.90 -77.64,12.92 -77.43,12.93 -77.43,12.93 -77.43,12.93 -74.39,13.19 -71.35,13.44 -68.61,14.06 -65.87,14.68 -61.32,15.55 -56.76,16.43 -49.86,17.27 -42.96,18.10 -34.55,18.63 -26.15,19.16 -15.33,19.23 -4.51,19.30 8.02,19.18 20.56,19.06 34.24,18.77 47.91,18.49 62.59,18.13 77.27,17.77 92.92,17.40 108.56,17.03 125.29,16.64 142.02,16.25 159.81,15.85 177.61,15.45 196.47,15.00 215.33,14.56 235.34,14.11 255.35,13.66 276.51,13.03 297.67,12.40 315.97,11.87 334.26,11.34 354.61,10.82 374.95,10.29 395.92,9.73 416.89,9.18 438.83,8.55 460.76,7.92 483.05,7.26 505.34,6.61 527.66,5.97 549.99,5.33 572.37,4.64 594.76,3.95 617.32,3.08 639.87,2.21 662.61,1.24 685.35,0.26 707.45,-0.76 729.55,-1.79 750.78,-2.80 772.01,-3.81 792.47,-4.74 812.93,-5.67 832.46,-6.55 852.00,-7.42 870.81,-8.49 889.62,-9.56 907.83,-10.56 926.03,-11.56 943.60,-12.63 961.16,-13.70 978.06,-15.18 994.95,-16.65 1011.23,-18.30 1027.50,-19.95 1042.67,-21.72 1057.84,-23.49 1072.26,-25.26 1086.67,-27.03 1100.66,-29.01 1114.64,-30.98 1126.38,-33.05 1138.11,-35.11 1150.00,-37.32 1161.89,-39.52 1173.09,-41.95 1184.30,-44.38 1194.68,-46.95 1205.05,-49.53 1214.14,-52.03 1223.22,-54.53 1231.22,-57.28 1239.22,-60.04 1246.34,-62.63 1253.47,-65.22 1259.66,-67.81 1265.86,-70.40 1271.29,-73.08 1276.72,-75.77 1281.10,-78.20 1285.48,-80.63 1289.13,-83.28 1292.77,-85.93 1295.76,-88.48 1298.75,-91.02 1301.37,-93.22 1303.98,-95.42 1306.35,-97.19 1308.71,-98.96 1311.02,-100.16 1313.32,-101.36 1315.40,-101.90 1317.49,-102.45 1319.58,-102.38 1321.67,-102.32 1323.66,-101.67 1325.64,-101.01 1327.88,-99.60 1330.11,-98.18 1332.45,-95.78 1334.80,-93.37 1338.04,-89.28 1341.28,-85.20 1346.52,-77.46 1351.76,-69.72 1354.18,-64.26 1356.61,-58.80 1358.87,-52.25 1361.13,-45.71 1362.96,-38.39 1364.80,-31.08 1366.57,-23.07 1368.34,-15.05 1369.99,-5.92 1371.64,3.21 1373.46,13.40 1375.27,23.60 1377.19,34.69 1379.12,45.77 1381.09,57.83 1383.07,69.89 1385.05,82.94 1387.04,95.98 1388.90,108.50 1390.77,121.03 1392.44,134.68 1394.11,148.33 1395.36,160.31 1396.62,172.28 1397.77,186.01 1398.91,199.74 1399.90,214.21 1400.88,228.68 1402.03,244.16 1403.17,259.65 1404.56,275.86 1405.94,292.07 1407.77,308.23 1409.60,324.39 1411.79,340.47 1413.97,356.54 1416.09,372.44 1418.21,388.35 1420.27,404.28 1422.33,420.22 1423.96,436.56 1425.59,452.91 1426.99,469.78 1428.40,486.65 1429.61,504.17 1430.82,521.68 1431.75,537.71 1432.68,553.73 1433.84,571.85 1435.00,589.97 1436.71,610.37 1438.42,630.76 1441.06,656.48 1443.69,682.20 1445.49,700.52 1447.29,718.84 1448.88,737.67 1450.48,756.50 1451.37,775.66 1452.27,794.83 1453.08,814.08 1453.89,833.33 1454.79,848.39 1455.69,863.45 1456.90,878.27 1458.11,893.08 1459.48,907.38 1460.85,921.68 1462.31,934.98 1463.77,948.29 1464.92,960.39 1466.07,972.49 1467.19,983.59 1468.30,994.69 1469.10,1004.88 1469.90,1015.08 1470.63,1024.39 1471.35,1033.70 1472.03,1042.04 1472.72,1050.38 1473.30,1057.84 1473.88,1065.29 1474.42,1072.00 1474.95,1078.71 1475.34,1084.74 1475.72,1090.77 1475.82,1096.13 1475.92,1101.48 1475.75,1106.10 1475.57,1110.72 1475.06,1114.08 1474.54,1117.43 1473.63,1120.41 1472.72,1123.39 1471.08,1126.30 1469.44,1129.22 1466.19,1131.94 1462.94,1134.67 1458.75,1135.04 1454.57,1135.40 1447.50,1135.55 1440.43,1135.70 1428.01,1135.69 1415.60,1135.69 1407.78,1135.67 1399.96,1135.65 1389.38,1135.58 1378.81,1135.51 1363.81,1135.34 1348.81,1135.17 1328.74,1134.74 1308.67,1134.32 1277.74,1133.63 1246.80,1132.95 1210.57,1132.17 1174.34,1131.39 1154.05,1131.37 1133.76,1131.35 1110.81,1131.43 1087.86,1131.50 1060.90,1131.73 1033.93,1131.95 999.22,1132.36 964.52,1132.77 913.19,1133.27 861.86,1133.78 836.88,1133.52 811.89,1133.25 786.82,1132.89 761.75,1132.53 737.06,1132.14 712.37,1131.74 688.04,1131.27 663.72,1130.80 639.60,1130.26 615.49,1129.71 591.90,1128.94 568.31,1128.17 546.59,1127.20 524.86,1126.23 505.27,1125.05 485.68,1123.87 468.13,1122.80 450.59,1121.72 433.43,1120.50 416.26,1119.27 397.13,1117.98 377.99,1116.68 363.10,1115.38 348.22,1114.07 332.96,1112.36 317.71,1110.65 303.78,1108.99 289.85,1107.33 277.13,1105.64 264.40,1103.94 252.55,1102.21 240.71,1100.49 229.79,1098.75 218.87,1097.00 208.58,1095.44 198.30,1093.87 189.91,1092.57 181.52,1091.26 173.32,1090.05 165.11,1088.84 159.27,1087.95 153.43,1087.06 147.84,1086.23 142.26,1085.40 137.64,1084.63 133.02,1083.86 129.20,1083.14 125.39,1082.43 122.14,1081.80 118.90,1081.17 116.20,1080.47 113.50,1079.77 111.39,1079.23 109.28,1078.69 107.30,1077.82 105.32,1076.95 103.71,1075.84 102.10,1074.73 100.60,1073.30 99.10,1071.88 98.00,1069.85 96.89,1067.81 96.36,1065.11 95.83,1062.41 95.82,1059.68 95.81,1056.95 95.85,1053.32 95.90,1049.69 96.01,1045.68 96.13,1041.66 96.07,1037.46 96.01,1033.25 95.59,1028.90 95.17,1024.55 94.37,1020.13 93.57,1015.70 92.55,1010.77 91.53,1005.84 90.32,1000.14 89.10,994.45 87.83,988.04 86.57,981.62 85.49,974.38 84.41,967.14 83.52,959.00 82.62,950.87 81.74,942.01 80.86,933.16 79.88,923.83 78.90,914.50 77.79,904.89 76.67,895.28 75.15,885.09 73.62,874.91 72.14,864.26 70.65,853.61 69.30,842.25 67.94,830.89 66.56,818.64 65.18,806.38 63.98,793.01 62.78,779.64 61.73,766.06 60.69,752.48 59.57,737.83 58.45,723.18 57.17,708.00 55.89,692.82 54.36,677.38 52.82,661.94 51.12,646.44 49.42,630.95 47.72,615.45 46.02,599.95 44.56,584.25 43.11,568.56 41.79,552.79 40.47,537.03 39.40,521.25 38.32,505.46 37.49,489.53 36.65,473.61 35.95,457.52 35.24,441.43 34.59,427.04 33.93,412.64 33.05,397.54 32.16,382.44 30.99,367.73 29.83,353.02 28.36,338.69 26.89,324.36 25.06,309.84 23.24,295.32 21.71,283.11 20.19,270.90 18.55,257.70 16.92,244.49 15.07,231.51 13.22,218.53 11.46,205.82 9.70,193.11 7.67,180.78 5.63,168.45 3.53,156.34 1.43,144.23 -0.36,134.30 -2.16,124.38 -4.04,113.92 -5.92,103.46 -7.63,93.44 -9.33,83.43 -10.47,75.46 -11.62,67.50 -12.52,59.71 -13.42,51.91 -14.04,45.03 -14.65,38.15 -14.94,32.47 -15.24,26.79 -15.26,21.98 -15.28,17.16 -15.07,13.05 -14.86,8.94 -14.38,6.13 -13.89,3.32 -12.72,1.12 -11.56,-1.08 -9.73,-2.18 -7.90,-3.28 -5.85,-3.31 -3.79,-3.34 -1.64,-2.57 0.49,-1.80 0.70,-1.71 0.91,-1.63 1.09,-1.49 1.27,-1.36 1.42,-1.19 1.56,-1.02 1.66,-0.81 1.76,-0.61 1.81,-0.39 1.86,-0.17 1.85,0.04 1.84,0.27 1.78,0.49 1.73,0.70 1.62,0.90 1.51,1.10 1.35,1.26 1.20,1.43 1.01,1.55 0.82,1.67 0.61,1.75 0.39,1.82 0.17,1.84 -0.04,1.86 -0.27,1.83 -0.49,1.80 -0.49,1.80 L -0.49,1.80 Z"></path></g><g stroke-linecap="round" transform="translate(1273.167985512468 278.1494495894831) rotate(0 260 530)"><path d="M32 0 C158.03 2.46, 282.22 2.53, 488 0 M32 0 C132.94 -0.1, 234.58 -0.33, 488 0 M488 0 C508.27 -0.26, 520.76 8.71, 520 32 M488 0 C507.92 -1.14, 519.12 11.34, 520 32 M520 32 C519.3 416.05, 519.45 800.22, 520 1028 M520 32 C519.4 425.82, 519.18 819.8, 520 1028 M520 1028 C520.95 1048.21, 508.54 1059.35, 488 1060 M520 1028 C520.12 1047.14, 510.51 1059.38, 488 1060 M488 1060 C314.37 1059.52, 140.26 1058.23, 32 1060 M488 1060 C322.05 1062.43, 156.12 1062.07, 32 1060 M32 1060 C10.41 1059.55, 0.7 1050.61, 0 1028 M32 1060 C10.44 1060.39, 0.59 1049.94, 0 1028 M0 1028 C1.72 650.2, 3.07 273.31, 0 32 M0 1028 C2 748.96, 1.69 469.52, 0 32 M0 32 C0.09 10.09, 9.04 -1.38, 32 0 M0 32 C0.39 11.49, 8.97 2.17, 32 0" stroke="#1971c2" stroke-width="4" fill="none"></path></g></svg>